<svg style="position: absolute; width: 0; height: 0; overflow: hidden;" version="1.1" xmlns="http://www.w3.org/2000/svg" xmlns:xlink="http://www.w3.org/1999/xlink">
<defs>
<symbol id="OD_menu_mobile-nav-bar" viewBox="0 0 26 32">
<title>OD_menu_mobile-nav-bar</title>
<path class="path1" d="M22.724 15.432h-19.855c-0.314 0-0.567 0.254-0.567 0.567s0.254 0.567 0.567 0.567h19.855c0.314 0 0.567-0.254 0.567-0.567s-0.254-0.567-0.567-0.567z"></path>
<path class="path2" d="M22.724 21.106h-19.855c-0.314 0-0.567 0.254-0.567 0.567s0.254 0.567 0.567 0.567h19.855c0.314 0 0.567-0.254 0.567-0.567s-0.254-0.567-0.567-0.567z"></path>
<path class="path3" d="M2.869 10.894h19.855c0.314 0 0.567-0.254 0.567-0.567s-0.254-0.567-0.567-0.567h-19.855c-0.314 0-0.567 0.254-0.567 0.567s0.254 0.567 0.567 0.567z"></path>
</symbol>
<symbol id="OD_minus_mobile-nav-bar" viewBox="0 0 224 32">
<title>OD_minus_mobile-nav-bar</title>
<path class="path1" d="M0.24 31.744v-31.504h223.504v31.504z"></path>
</symbol>
<symbol id="OD_shopping-cart_nav-bar" viewBox="0 0 32 32">
<title>OD_shopping-cart_nav-bar</title>
<path class="path1" d="M11.627 28.437c-1.653 0-3.008-1.344-3.008-3.008 0-1.653 1.344-3.008 3.008-3.008 1.653 0 3.008 1.344 3.008 3.008 0 1.653-1.344 3.008-3.008 3.008zM11.627 23.648c-0.981 0-1.781 0.8-1.781 1.781s0.8 1.781 1.781 1.781 1.781-0.8 1.781-1.781c0-0.981-0.8-1.781-1.781-1.781z"></path>
<path class="path2" d="M25.44 28.437c-1.653 0-3.008-1.344-3.008-3.008 0-1.653 1.344-3.008 3.008-3.008 1.653 0 3.008 1.344 3.008 3.008 0 1.653-1.344 3.008-3.008 3.008zM25.44 23.648c-0.981 0-1.781 0.8-1.781 1.781s0.8 1.781 1.781 1.781c0.981 0 1.781-0.8 1.781-1.781s-0.8-1.781-1.781-1.781z"></path>
<path class="path3" d="M29.024 10.080c-0.501-0.501-1.173-0.779-1.888-0.779h-13.451c-0.341 0-0.608 0.277-0.608 0.608 0 0.341 0.277 0.608 0.608 0.608h13.451c0.384 0 0.747 0.149 1.024 0.427 0.416 0.416 0.48 1.088 0.181 1.643l-3.349 6.059c-0.395 0.715-1.152 1.163-1.973 1.163h-10.549c-0.704 0-1.301-0.501-1.429-1.205l-2.859-12.907c0 0 0-0.011 0-0.011-0.277-1.355-1.461-2.325-2.837-2.325h-2.325c-0.341 0-0.608 0.277-0.608 0.608s0.277 0.608 0.608 0.608h2.325c0.8 0 1.483 0.576 1.632 1.355 0 0 0 0 0 0.011 0 0 0 0.011 0 0.011l2.848 12.885c0.235 1.269 1.344 2.187 2.635 2.187h10.549c1.269 0 2.432-0.683 3.040-1.792l3.349-6.059c0.587-1.024 0.427-2.293-0.373-3.093z"></path>
</symbol>
<symbol id="OD_triangle_accordion_quote-basket-checkout" viewBox="0 0 32 32">
<title>OD_triangle_accordion_quote-basket-checkout</title>
<path class="path1" d="M22.496 23.2h-12.992c-0.56 0-1.072-0.288-1.36-0.784s-0.288-1.072 0-1.568l6.464-11.28c0.288-0.496 0.784-0.784 1.36-0.784 0 0 0 0 0 0 0.56 0 1.072 0.288 1.36 0.784l6.528 11.28c0.288 0.496 0.288 1.072 0 1.568s-0.784 0.784-1.36 0.784zM15.968 9.504c0 0 0 0 0 0-0.304 0-0.576 0.16-0.736 0.432v0l-6.464 11.28c-0.144 0.272-0.144 0.576 0 0.848 0.16 0.256 0.432 0.416 0.736 0.416h12.992c0.304 0 0.576-0.16 0.736-0.416 0.16-0.272 0.16-0.576 0-0.848l-6.528-11.28c-0.16-0.272-0.432-0.432-0.736-0.432zM14.912 9.76v0 0z"></path>
</symbol>
<symbol id="OD_calendar_quote-basket-checkout" viewBox="0 0 32 32">
<title>OD_calendar_quote-basket-checkout</title>
<path class="path1" d="M23.888 26.177h-15.776c-2.425 0-4.375-1.972-4.375-4.375v-11.628c0 0 0-0.023 0-0.023s0-0.023 0-0.023c0.023-2.402 1.972-4.352 4.375-4.352h15.776c2.425 0 4.375 1.972 4.375 4.375v11.651c0 2.425-1.972 4.375-4.375 4.375zM4.349 10.469v11.333c0 2.085 1.678 3.763 3.763 3.763h15.776c2.085 0 3.763-1.677 3.763-3.763v-11.333h-23.302zM4.372 9.857h23.279c-0.159-1.927-1.791-3.445-3.763-3.445h-15.776c-1.972-0.023-3.581 1.496-3.74 3.445z"></path>
<path class="path2" d="M9.064 14.617c0 0.426-0.345 0.771-0.771 0.771s-0.771-0.345-0.771-0.771c0-0.426 0.345-0.771 0.771-0.771s0.771 0.345 0.771 0.771z"></path>
<path class="path3" d="M12.872 14.64c0 0.426-0.345 0.771-0.771 0.771s-0.771-0.345-0.771-0.771c0-0.426 0.345-0.771 0.771-0.771s0.771 0.345 0.771 0.771z"></path>
<path class="path4" d="M16.703 14.663c0 0.426-0.345 0.771-0.771 0.771s-0.771-0.345-0.771-0.771c0-0.426 0.345-0.771 0.771-0.771s0.771 0.345 0.771 0.771z"></path>
<path class="path5" d="M20.511 14.663c0 0.426-0.345 0.771-0.77 0.771s-0.77-0.345-0.77-0.771c0-0.426 0.345-0.771 0.77-0.771s0.77 0.345 0.77 0.771z"></path>
<path class="path6" d="M24.341 14.685c0 0.426-0.345 0.771-0.77 0.771s-0.77-0.345-0.77-0.771c0-0.426 0.345-0.771 0.77-0.771s0.77 0.345 0.77 0.771z"></path>
<path class="path7" d="M9.064 18.131c0 0.426-0.345 0.77-0.771 0.77s-0.771-0.345-0.771-0.77c0-0.426 0.345-0.77 0.771-0.77s0.771 0.345 0.771 0.77z"></path>
<path class="path8" d="M12.872 18.153c0 0.426-0.345 0.77-0.771 0.77s-0.771-0.345-0.771-0.77c0-0.426 0.345-0.77 0.771-0.77s0.771 0.345 0.771 0.77z"></path>
<path class="path9" d="M16.703 18.176c0 0.426-0.345 0.77-0.771 0.77s-0.771-0.345-0.771-0.77c0-0.426 0.345-0.77 0.771-0.77s0.771 0.345 0.771 0.77z"></path>
<path class="path10" d="M20.511 18.176c0 0.426-0.345 0.77-0.77 0.77s-0.77-0.345-0.77-0.77c0-0.426 0.345-0.77 0.77-0.77s0.77 0.345 0.77 0.77z"></path>
<path class="path11" d="M24.341 18.198c0 0.426-0.345 0.77-0.77 0.77s-0.77-0.345-0.77-0.77c0-0.426 0.345-0.77 0.77-0.77s0.77 0.345 0.77 0.77z"></path>
<path class="path12" d="M9.064 21.644c0 0.426-0.345 0.77-0.771 0.77s-0.771-0.345-0.771-0.77c0-0.426 0.345-0.77 0.771-0.77s0.771 0.345 0.771 0.77z"></path>
<path class="path13" d="M12.895 21.644c0 0.426-0.345 0.77-0.771 0.77s-0.771-0.345-0.771-0.77c0-0.426 0.345-0.77 0.771-0.77s0.771 0.345 0.771 0.77z"></path>
<path class="path14" d="M16.703 21.689c0 0.426-0.345 0.77-0.771 0.77s-0.771-0.345-0.771-0.77c0-0.426 0.345-0.77 0.771-0.77s0.771 0.345 0.771 0.77z"></path>
<path class="path15" d="M20.534 21.689c0 0.426-0.345 0.77-0.77 0.77s-0.77-0.345-0.77-0.77c0-0.426 0.345-0.77 0.77-0.77s0.77 0.345 0.77 0.77z"></path>
<path class="path16" d="M24.341 21.712c0 0.426-0.345 0.77-0.77 0.77s-0.77-0.345-0.77-0.77c0-0.426 0.345-0.77 0.77-0.77s0.77 0.345 0.77 0.77z"></path>
<path class="path17" d="M9.064 8.203c0 0.426-0.345 0.771-0.771 0.771s-0.771-0.345-0.771-0.771c0-0.426 0.345-0.771 0.771-0.771s0.771 0.345 0.771 0.771z"></path>
<path class="path18" d="M24.341 8.203c0 0.426-0.345 0.771-0.77 0.771s-0.77-0.345-0.77-0.771c0-0.426 0.345-0.771 0.77-0.771s0.77 0.345 0.77 0.771z"></path>
</symbol>
<symbol id="OD_plus-in-circle_quote-basket-checkout" viewBox="0 0 32 32">
<title>OD_plus-in-circle_quote-basket-checkout</title>
<path class="path1" d="M16 26.342c-5.702 0-10.36-4.64-10.36-10.36s4.658-10.36 10.36-10.36c5.702 0 10.36 4.64 10.36 10.36s-4.658 10.36-10.36 10.36zM16 6.508c-5.224 0-9.475 4.25-9.475 9.475s4.25 9.474 9.475 9.474c5.224 0 9.474-4.25 9.474-9.475s-4.25-9.475-9.475-9.475z"></path>
<path class="path2" d="M16.018 22.181h-0.053c-0.478 0-0.85-0.39-0.85-0.868v-10.679c0-0.478 0.39-0.85 0.868-0.85h0.053c0.478 0 0.85 0.39 0.85 0.868l-0.018 10.697c0 0.46-0.39 0.85-0.85 0.832z"></path>
<path class="path3" d="M9.802 16v-0.053c0-0.478 0.39-0.85 0.868-0.85l10.697 0.018c0.478 0 0.85 0.39 0.85 0.868v0.053c0 0.478-0.39 0.85-0.868 0.85l-10.697-0.018c-0.478 0-0.868-0.39-0.85-0.868z"></path>
</symbol>
<symbol id="OD_maker-muscly-arm_quote-basket" viewBox="0 0 32 32">
<title>OD_maker-muscly-arm_quote-basket</title>
<path class="path1" d="M11.375 6.961c0.064 0.381 0.212 0.91 0.572 1.143 0.212 0.148 0.572 0.275 1.164 0.381 0.275 0.042 1.567 0.233 2.985 0.254 0 0 0 0 0 0s0 0 0 0 0 0 0 0 0 0 0 0 0 0 0 0 0 0 0 0c1.418-0.021 2.71-0.212 2.985-0.254 0.572-0.106 0.953-0.233 1.143-0.381 0.36-0.254 0.508-0.783 0.572-1.143 0.085-0.36 0.106-0.741 0.106-1.207 0 0 0 0 0 0 0.021-0.487-0.064-1.080-0.085-1.334-0.064-0.381-0.212-0.91-0.572-1.143-0.212-0.148-0.572-0.275-1.164-0.381-0.148-0.021-1.461-0.254-2.964-0.275-0.021 0-0.106 0-0.106 0-1.503 0.021-2.816 0.254-2.964 0.275-0.572 0.106-0.953 0.233-1.143 0.381-0.36 0.254-0.508 0.783-0.572 1.164-0.042 0.233-0.106 0.847-0.085 1.313s0.042 0.847 0.127 1.207zM12.031 4.547c0.106-0.55 0.233-0.677 0.275-0.72 0.064-0.042 0.254-0.148 0.868-0.254 0.148-0.021 1.397-0.254 2.837-0.275 0.021 0 0.085 0 0.106 0 1.44 0.021 2.71 0.254 2.837 0.275 0.635 0.106 0.826 0.212 0.889 0.254 0.042 0.021 0.169 0.169 0.275 0.699 0.021 0.212 0.106 0.783 0.085 1.207 0 0 0 0 0 0s0 0 0 0c0 0.55-0.042 0.847-0.106 1.080-0.106 0.55-0.233 0.677-0.275 0.72-0.064 0.042-0.254 0.148-0.868 0.254-0.254 0.042-1.503 0.233-2.879 0.254-1.376-0.021-2.604-0.191-2.879-0.254-0.635-0.106-0.826-0.212-0.889-0.254-0.042-0.021-0.169-0.169-0.275-0.72-0.042-0.212-0.106-0.529-0.106-1.080 0 0 0 0 0 0s0 0 0 0c0-0.423 0.085-0.974 0.106-1.186z"></path>
<path class="path2" d="M14.889 1.351c0 0 0 0.021 0 0.021 0.042 0.318 0.106 0.635 0.36 0.762 0.233 0.127 0.423 0.148 0.804 0.148 0.042 0 0.042 0 0.064 0 0.381 0 0.572-0.021 0.783-0.148 0.275-0.127 0.339-0.445 0.381-0.783 0-0.021 0-0.042 0-0.064 0 0 0-0.021 0-0.021 0-0.191 0-0.381-0.085-0.55-0.148-0.339-0.466-0.466-1.143-0.466-0.614 0-0.995 0.169-1.143 0.487-0.085 0.169-0.085 0.381-0.064 0.572 0.042 0.021 0.042 0.042 0.042 0.042zM16.116 1.584c-0.275 0-0.423-0.021-0.487-0.042-0.021-0.042-0.042-0.106-0.042-0.254v-0.021c0-0.169 0-0.212 0.021-0.233 0.042-0.064 0.318-0.085 0.508-0.085 0.106 0 0.445 0.042 0.487 0.085 0 0.021 0.021 0.064 0 0.233v0.042c-0.021 0.148-0.042 0.212-0.042 0.254-0.085 0.021-0.169 0.021-0.445 0.021z"></path>
<path class="path3" d="M26.616 26.542c0-2.879-2.35-5.229-5.229-5.229h-5.652c-0.042 0-0.085 0-0.106 0.021h-0.339c-0.931 0-1.715 0.148-2.307 0.466l1.037-3.154c0.318-0.974 0.212-2.032-0.233-2.879 0.064 0 0.127 0 0.212 0h0.847c0 0.529 0 1.037-0.021 1.482-0.021 1.418 0 1.567 0.021 1.694 0.127 0.423 0.529 0.635 1.185 0.635 0.72 0 1.143-0.212 1.249-0.656 0.021-0.127 0.042-0.487 0-3.239 1.101-0.296 1.926-1.313 1.926-2.519v-0.127c0-1.185-0.804-2.202-1.905-2.519v-0.656c-0.021-0.487-0.487-0.804-1.186-0.826 0 0-0.042 0-0.064 0-0.572 0-1.228 0.233-1.228 0.847v0.529h-0.847c-0.656 0-1.249 0.339-1.757 0.741-0.021 0.021-0.042 0.021-0.064 0.042l-3.853 3.133-0.423 0.36c0 0 0 0 0 0s0 0 0 0c-0.508 0.445-0.826 0.953-1.058 1.609l-1.207 3.683c-0.191 0.55-0.233 1.016-0.127 1.651 0 0.021 0.021 0.042 0.021 0.064s0 0.021 0 0.042l1.926 6.605c0 0 0 0 0 0s0 0 0 0.021c0.741 2.032 2.688 3.387 4.89 3.387h9.018c2.837 0 5.144-2.265 5.208-5.102 0.042-0.021 0.064-0.064 0.064-0.106zM16.603 18.773c-0.021 0.021-0.127 0.106-0.572 0.106-0.296 0-0.466-0.042-0.508-0.148-0.021-0.148 0-0.826 0-1.482 0-0.445 0-0.953 0.021-1.482h1.058c0 1.461 0.021 2.773 0 3.006zM15.524 9.903c0-0.064 0.254-0.148 0.55-0.148s0.529 0.085 0.529 0.127v0.55c0 0 0 0 0 0h-1.058v-0.529zM15.079 15.090h-1.101c-0.381 0-0.762-0.148-0.931-0.254-0.021-0.021-0.021-0.021-0.042-0.042-0.148-0.127-0.36-0.106-0.487 0.042-0.064 0.064-0.085 0.148-0.085 0.233 0 0.127 0.042 0.233 0.148 0.296 0.021 0 0.021 0.021 0.042 0.021 0.783 0.741 1.080 1.948 0.72 3.048l-1.376 4.192c-0.042 0.148 0 0.296 0.106 0.381 0 0 0.021 0.021 0.021 0.021 0.064 0.064 0.148 0.085 0.233 0.085 0.106 0 0.191-0.042 0.275-0.127 0.529-0.635 1.418-0.931 2.688-0.931h0.741c0.042 0 0.085 0 0.106-0.021h5.25c2.456 0 4.467 1.969 4.509 4.424 0 0.042-0.021 0.064-0.021 0.106 0 2.498-2.032 4.509-4.509 4.509h-9.018c-1.884 0-3.578-1.164-4.213-2.921l-1.926-6.605c0-0.021 0-0.021-0.021-0.042-0.085-0.508-0.064-0.847 0.085-1.291l1.207-3.705c0.169-0.529 0.445-0.931 0.847-1.313l0.402-0.36 3.683-2.943c0.021 0 0.021-0.021 0.042-0.021 0.487-0.381 0.995-0.741 1.545-0.741h2.625c1.058 0 1.905 0.868 1.905 1.905v0.127c0 1.080-0.847 1.926-1.905 1.926h-1.545z"></path>
<path class="path4" d="M19.44 23.409h-0.106c-0.762 0-1.397 0.381-1.778 0.953-0.381-0.572-1.016-0.953-1.757-0.953h-0.106c-1.185 0-2.096 0.931-2.096 2.117 0 0.042 0 0.085 0.021 0.127 0.021 0.445 0.191 0.868 0.466 1.207 0.127 0.169 0.254 0.318 0.296 0.36l2.943 3.006c0 0 0 0 0 0s0 0 0 0 0.021 0.021 0.021 0.021c0 0 0.021 0.021 0.021 0.021 0.021 0 0.021 0.021 0.042 0.021 0 0 0.021 0 0.021 0.021 0.021 0 0.021 0 0.042 0.021 0 0 0.021 0 0.021 0 0.021 0 0.042 0 0.064 0s0.042 0 0.064 0c0 0 0.021 0 0.021 0 0.021 0 0.021 0 0.042-0.021 0 0 0.021 0 0.021-0.021 0.021 0 0.021-0.021 0.042-0.021 0 0 0.021-0.021 0.021-0.021s0.021-0.021 0.021-0.021c0 0 0 0 0 0s0 0 0 0l2.265-2.307 0.677-0.699c0.042-0.042 0.169-0.212 0.296-0.36 0.296-0.36 0.487-0.847 0.487-1.313v-0.021c0.042-1.164-0.91-2.117-2.075-2.117zM20.837 25.547c0 0.318-0.106 0.635-0.318 0.868 0 0 0 0.021-0.021 0.021-0.106 0.148-0.233 0.296-0.254 0.296l-2.689 2.752-2.011-2.053-0.677-0.699c-0.021-0.021-0.127-0.148-0.254-0.296 0 0 0-0.021-0.021-0.021-0.212-0.233-0.318-0.55-0.318-0.868v-0.021c0-0.042 0-0.064-0.021-0.106 0.042-0.741 0.656-1.313 1.397-1.313h0.106c0.783 0 1.397 0.635 1.397 1.397 0 0.191 0.148 0.36 0.36 0.36 0 0 0 0 0.021 0 0 0 0 0 0.021 0 0.191 0 0.36-0.148 0.36-0.36 0-0.783 0.614-1.397 1.397-1.397h0.106c0.783 0 1.397 0.635 1.397 1.397v0.042z"></path>
</symbol>
<symbol id="OD_price-tag_quote-basket" viewBox="0 0 32 32">
<title>OD_price-tag_quote-basket</title>
<path class="path1" d="M23.666 9.315c-0.446 0-0.869-0.134-1.27-0.401l-0.111-0.067c-1.025-0.691-1.292-2.117-0.602-3.142l1.248-1.827c0.334-0.513 0.847-0.847 1.448-0.958s1.203 0.022 1.694 0.357l0.111 0.067c1.025 0.691 1.292 2.117 0.602 3.142l-1.248 1.827c-0.423 0.669-1.137 1.003-1.872 1.003zM24.802 3.632c-0.089 0-0.201 0-0.29 0.022-0.401 0.067-0.758 0.312-0.98 0.646l-1.248 1.827c-0.468 0.691-0.29 1.649 0.401 2.117l0.111 0.067c0.691 0.468 1.649 0.29 2.117-0.401l1.248-1.827c0.468-0.691 0.29-1.649-0.401-2.117l-0.111-0.067c-0.245-0.178-0.535-0.267-0.847-0.267z"></path>
<path class="path2" d="M16.468 32c-0.713 0-1.426-0.223-2.028-0.624l-10.050-6.819c-1.649-1.114-2.095-3.387-0.958-5.036l7.176-10.585c1.047-1.538 1.76-1.961 2.474-2.362l0.178-0.111 10.318-5.727c1.337-0.735 2.942-0.669 4.212 0.178s1.916 2.318 1.716 3.833l-1.515 11.699c0 0.022 0 0.045-0.022 0.067-0.134 1.137-0.602 2.273-1.337 3.387l-7.153 10.518c-0.535 0.802-1.359 1.337-2.318 1.515-0.245 0.045-0.468 0.067-0.691 0.067zM25.515 0.958c-0.535 0-1.092 0.134-1.604 0.423l-10.273 5.705-0.178 0.111c-0.646 0.379-1.27 0.735-2.228 2.139l-7.176 10.585c-0.891 1.315-0.557 3.12 0.758 4.011l10.050 6.819c0.646 0.423 1.404 0.602 2.162 0.446s1.426-0.579 1.85-1.226l7.153-10.518c0.691-1.025 1.114-2.072 1.226-3.098 0-0.022 0-0.045 0.022-0.067l1.515-11.655c0.156-1.248-0.357-2.429-1.404-3.142-0.602-0.334-1.226-0.535-1.872-0.535z"></path>
<path class="path3" d="M14.485 26.474c-0.067 0-0.134-0.022-0.201-0.067l-5.437-3.699c-0.267-0.178-0.334-0.535-0.156-0.78l5.504-8.089c1.159-1.694 3.476-2.139 5.17-0.98l0.178 0.111c1.448 0.98 2.028 2.875 1.337 4.501-0.067 0.178-0.29 0.267-0.49 0.201-0.178-0.089-0.267-0.29-0.201-0.49 0.535-1.292 0.089-2.808-1.092-3.61l-0.178-0.111c-1.359-0.914-3.209-0.579-4.145 0.802l-5.393 7.955 5.304 3.588c0.178 0.111 0.223 0.334 0.089 0.513-0.045 0.111-0.178 0.156-0.29 0.156z"></path>
<path class="path4" d="M15.777 19.944c-0.067 0-0.134-0.022-0.201-0.067l-4.902-3.343c-0.178-0.111-0.223-0.334-0.089-0.513 0.111-0.178 0.334-0.201 0.513-0.089l4.902 3.343c0.178 0.111 0.223 0.334 0.089 0.513-0.067 0.111-0.201 0.156-0.312 0.156z"></path>
</symbol>
<symbol id="OD_receive-furniture_quote-basket" viewBox="0 0 32 32">
<title>OD_receive-furniture_quote-basket</title>
<path class="path1" d="M13.603 31.75c-0.066 0-0.155-0.022-0.221-0.044l-0.331-0.133c-0.177-0.066-0.287-0.287-0.199-0.464 0.066-0.177 0.287-0.287 0.464-0.199l0.243 0.088c0.022-0.022 0.044-0.044 0.066-0.066l0.022-0.022-3.623-9.366-0.972-0.376c-0.022 0.066-0.066 0.133-0.133 0.177v0c-0.155 0.11-0.398 0.066-0.508-0.088-0.022-0.044-0.044-0.066-0.044-0.11-0.044-0.088-0.066-0.177-0.044-0.287l-0.552-0.221-1.635 7.157c-0.022 0.133-0.11 0.199-0.133 0.221l-0.398 0.309c-0.155 0.133-0.398 0.088-0.508-0.066-0.133-0.155-0.088-0.398 0.066-0.508l0.309-0.243 1.635-7.179-4.109-1.657c0 0 0 0-0.022 0 0 0 0 0-0.022 0h-0.022c0 0-0.022 0-0.022 0s-0.022 0-0.022-0.022h-0.022c0 0-0.022 0-0.022 0s-0.022 0-0.022-0.022v0c0 0-0.022 0-0.022-0.022 0 0-0.022-0.022-0.022-0.022v0c0 0 0 0-0.022-0.022 0 0-0.022-0.022-0.022-0.022v0c0 0 0-0.022-0.022-0.022 0 0 0 0 0 0s0 0 0 0 0 0 0 0 0 0 0 0c-0.022-0.022-0.022-0.044-0.044-0.066v0c0 0 0-0.022-0.022-0.022 0-0.022 0-0.022-0.022-0.044v0c0 0 0 0 0-0.022 0 0 0-0.022 0-0.022 0-0.022 0-0.044 0-0.066v0c0 0 0-0.022 0-0.022s0 0 0-0.022c0 0 0 0 0 0s0 0 0 0c0-0.022 0-0.044 0-0.066v0c0 0 0 0 0-0.022 0 0 0-0.022 0-0.022 0-0.022 0.022-0.044 0.022-0.066v0c0 0 0-0.022 0.022-0.022 0 0 0 0 0 0v0c0 0 0-0.022 0.022-0.022v0c0.022-0.022 0.044-0.044 0.066-0.066v0c0 0 0 0 0.022 0 0 0 0 0 0 0l12.878-10.139c0 0 0 0 0 0s0 0 0.022 0h0.022c0 0 0.022 0 0.022-0.022 0.022 0 0.022-0.022 0.044-0.022v0c0 0 0 0 0 0s0 0 0.022 0h0.022c0 0 0.022 0 0.022-0.022 0 0 0.022 0 0.022 0h0.022c0 0 0.022 0 0.022 0s0.022 0 0.022 0h0.022c0 0 0 0 0 0s0 0 0 0 0 0 0 0h0.022c0 0 0.022 0 0.022 0s0.022 0 0.022 0h0.022c0 0 0.022 0 0.022 0s0.022 0 0.022 0h0.022c0 0 0 0 0 0s0 0 0 0h0.022c0 0 0.022 0 0.022 0s0.022 0 0.022 0h0.022c0 0 0 0 0 0s0 0 0 0h0.022c0 0 0.022 0 0.022 0s0.022 0 0.022 0.022h0.022c0 0 0 0 0 0l8.195 3.269c0 0 0 0 0.022 0 0 0 0 0 0.022 0h0.022c0 0 0 0 0.022 0 0 0 0 0 0.022 0h0.022c0 0 0.022 0 0.022 0.022 0 0 0.022 0.022 0.022 0.022v0c0 0 0 0 0.022 0.022 0 0 0.022 0.022 0.022 0.022v0c0 0 0.022 0.022 0.022 0.022s0.022 0.022 0.022 0.022v0c0 0 0.022 0.022 0.022 0.022 0 0.022 0.022 0.022 0.022 0.044v0c0 0 0 0 0 0.022 0 0 0 0 0 0.022s0.022 0.044 0.022 0.066v0c0 0 0 0.022 0 0.044s0 0.022 0 0.044v0c0 0.044 0 0.088-0.022 0.133v0c0 0 0 0.022-0.022 0.022 0 0.022-0.022 0.022-0.022 0.044v0c0 0 0 0.022-0.022 0.022 0 0-0.022 0.022-0.022 0.022v0c0 0 0 0 0 0s-0.022 0.022-0.022 0.022c0 0.022-0.022 0.022-0.044 0.044v0c0 0 0 0-0.022 0.022v0c0 0 0 0 0 0s0 0-0.022 0.022l-1.922 1.524 3.247 8.394c0.066 0.177 0.022 0.353-0.088 0.486-0.022 0.022-0.022 0.022-0.044 0.044l-0.199 0.155c0 0 0 0 0 0l-0.199 0.155c-0.022 0-0.022 0.022-0.044 0.022-0.133 0.066-0.309 0.088-0.464 0.022l-0.199-0.155c-0.199-0.088-0.331-0.243-0.376-0.376l-3.181-7.466-2.938 2.319-0.398 1.723c0 0 0 0.022 0 0.022s0 0.022 0 0.022v0c0 0.022 0 0.022-0.022 0.044 0 0.022-0.022 0.022-0.022 0.044v0c0 0-0.022 0.022-0.022 0.022 0 0.022-0.022 0.022-0.022 0.044 0 0-0.022 0.022-0.022 0.022s-0.022 0.022-0.022 0.022l-0.398 0.309c-0.155 0.133-0.376 0.11-0.486 0.066l-0.309-0.133c-0.221-0.066-0.42-0.243-0.442-0.486l-4.153 3.269c0 0 0 0 0 0s0 0 0 0v0c0 0-0.022 0-0.022 0.022 0 0-0.022 0.022-0.022 0.022v0c0 0-0.022 0-0.022 0.022 0 0-0.022 0-0.022 0.022v0c0 0-0.022 0-0.022 0s-0.022 0-0.022 0h-0.022c0 0 0 0-0.022 0 0 0 0 0-0.022 0h-0.022c0 0 0 0-0.022 0 0 0-0.022 0-0.022 0h-0.022c0 0-0.022 0-0.022 0s-0.022 0-0.022 0h-0.022c0 0 0 0 0 0s0 0 0 0h-0.022c0 0-0.022 0-0.022 0s-0.022 0-0.022 0h-0.022c0 0-0.022 0-0.022 0s-0.022 0-0.022 0h-0.022c0 0 0 0 0 0s0 0-0.022 0h-0.022c0 0-0.022 0-0.022 0s-0.022 0-0.022 0h-0.022c0 0 0 0-0.022 0 0 0 0 0 0 0l-0.199-0.088 3.446 8.924c0.066 0.133 0.044 0.376-0.133 0.53l-0.199 0.155c-0.044 0.022-0.066 0.044-0.11 0.066-0.022 0.022-0.022 0.044-0.044 0.066-0.133 0.066-0.265 0.11-0.376 0.11zM13.405 31.109c0 0 0 0 0 0s0 0 0 0zM24.957 21.765l0.221 0.088 0.066-0.066c0 0 0 0 0 0v0l0.022-0.022-3.093-8.019-0.486 0.376 3.269 7.643zM24.98 21.809c0 0 0 0 0 0s0 0 0 0zM3.663 18.187l7.753 3.093 12.459-9.808-7.753-3.093-12.459 9.808zM16.696 18.474l0.177 0.066 0.088-0.066c0 0 0 0 0 0v0c0 0 0 0 0 0l0.11-0.088 0.177-0.751-0.464 0.353-0.088 0.486z"></path>
<path class="path2" d="M13.67 31.728c-0.11 0-0.221-0.044-0.287-0.133 0 0-0.022-0.022-0.022-0.022-0.088 0.044-0.199 0.044-0.287 0-0.177-0.066-0.309-0.243-0.353-0.331 0-0.022-0.022-0.022-0.022-0.044l-4.285-10.029c0 0 0-0.022 0-0.022l-0.221-0.486c-0.088-0.177 0-0.398 0.199-0.486 0.177-0.088 0.398 0 0.486 0.199l0.133 0.309c0 0 0.022 0.022 0.022 0.022 0.022 0.022 0.022 0.022 0.022 0.044v0c0 0 0 0.022 0.022 0.022 0 0 0 0.022 0.022 0.022v0c0 0 0 0.022 0 0.022s0 0.022 0 0.022v0c0 0.022 0 0.022 0.022 0.044 0 0.022 0 0.022 0 0.044v0c0 0.022 0 0.044 0 0.044l4.219 9.896c0 0 0 0 0.022 0.022 0.066 0.022 0.11 0.066 0.155 0.133l0.133-0.11c0.155-0.133 0.398-0.088 0.508 0.066 0.133 0.155 0.088 0.398-0.066 0.508l-0.199 0.155c-0.066 0.066-0.155 0.088-0.221 0.088zM5.32 28.436c-0.066 0-0.155-0.022-0.221-0.044l-0.309-0.133c-0.199-0.066-0.464-0.287-0.442-0.619l1.303-8.085c0.022-0.199 0.221-0.331 0.42-0.309s0.331 0.221 0.309 0.42l-1.281 7.952 0.221 0.088c0.133-0.022 0.265 0.022 0.353 0.133 0.11 0.155 0.088 0.398-0.066 0.508-0.088 0.044-0.199 0.088-0.287 0.088zM5.165 27.752c0 0 0 0 0 0s0 0 0 0zM5.364 27.707v0c0.022 0 0.022 0 0 0z"></path>
<path class="path3" d="M27.365 28.414h-12.127c-1.104 0-2.010-0.906-2.010-2.010v-6.34c0-0.199 0.155-0.376 0.353-0.376s0.353 0.155 0.353 0.376v6.34c0 0.707 0.574 1.281 1.281 1.281h12.127c0.685 0 1.259-0.552 1.259-1.259v-24.166c0-0.707-0.574-1.281-1.281-1.281h-12.083c-0.707 0-1.281 0.574-1.281 1.281v7.488c0 0.199-0.155 0.353-0.353 0.353s-0.353-0.155-0.353-0.353v-7.488c0-1.105 0.906-2.010 2.010-2.010h12.105c1.105 0 2.010 0.906 2.010 2.010v24.166c-0.022 1.105-0.906 1.988-2.010 1.988z"></path>
<path class="path4" d="M22.992 10.963c-0.199 0-0.376-0.155-0.376-0.353v-6.075c0-0.641 0.353-1.259 0.972-1.635l4.175-2.474c0.177-0.11 0.398-0.044 0.508 0.133s0.044 0.398-0.133 0.508l-4.153 2.496c-0.376 0.243-0.619 0.619-0.619 1.016v6.053c-0.022 0.177-0.177 0.331-0.376 0.331z"></path>
<path class="path5" d="M28.006 28.282c-0.066 0-0.133-0.022-0.177-0.044l-4.131-2.43c-0.641-0.309-1.060-0.906-1.060-1.568v-6.141c0-0.199 0.155-0.376 0.376-0.376s0.376 0.155 0.376 0.376v6.141c0 0.376 0.243 0.729 0.641 0.906 0 0 0.022 0 0.022 0.022l4.153 2.452c0.177 0.11 0.221 0.331 0.133 0.508-0.088 0.088-0.221 0.155-0.331 0.155z"></path>
<path class="path6" d="M22.992 15.138c-0.199 0-0.376-0.155-0.376-0.353v-2.143c0-0.199 0.155-0.353 0.376-0.353s0.376 0.155 0.376 0.353v2.143c0 0.199-0.177 0.353-0.376 0.353z"></path>
</symbol>
<symbol id="OD_get-quote_quote-basket" viewBox="0 0 32 32">
<title>OD_get-quote_quote-basket</title>
<path class="path1" d="M21.521 30.177h-17.916c-0.824 0-1.5-0.676-1.5-1.5v-25.417c0-0.824 0.676-1.5 1.5-1.5h17.895c0.824 0 1.5 0.676 1.5 1.5v6.36c0 0.19-0.148 0.338-0.338 0.338s-0.338-0.148-0.338-0.338v-6.36c0-0.444-0.359-0.803-0.803-0.803h-17.916c-0.444 0-0.803 0.359-0.803 0.803v25.417c0 0.444 0.359 0.803 0.803 0.803h17.895c0.444 0 0.803-0.359 0.803-0.803v-10.247c0-0.19 0.148-0.338 0.338-0.338s0.338 0.148 0.338 0.338v10.247c0.042 0.824-0.634 1.5-1.458 1.5z"></path>
<path class="path2" d="M17.443 24.472h-8.789c-0.338 0-0.613-0.275-0.613-0.613v-13.057c0-2.662 2.155-4.817 4.817-4.817h0.296c2.282 0 4.268 1.606 4.712 3.845 0.042 0.19-0.085 0.359-0.275 0.401s-0.359-0.085-0.401-0.275c-0.38-1.902-2.092-3.296-4.035-3.296h-0.296c-2.282 0-4.12 1.859-4.12 4.12v12.994h8.705c0.19 0 0.338 0.148 0.338 0.338s-0.148 0.359-0.338 0.359z"></path>
<path class="path3" d="M13.978 16.296h-7.944c-0.19 0-0.338-0.148-0.338-0.338s0.148-0.338 0.338-0.338h7.923c0.19 0 0.338 0.148 0.338 0.338 0.021 0.169-0.127 0.338-0.317 0.338z"></path>
<path class="path4" d="M21.415 18.789c-0.423 0-0.803-0.254-0.951-0.655l-1.141-2.916c-0.148-0.359-0.105-0.782 0.105-1.12l5.641-8.874c0.507-0.824 1.31-1.373 2.261-1.585 0.929-0.211 1.902-0.042 2.704 0.486l0.169 0.105c0.803 0.507 1.373 1.31 1.584 2.24s0.042 1.902-0.486 2.704l-5.62 8.874c-0.232 0.359-0.613 0.57-1.014 0.592l-3.19 0.148c-0.021 0-0.042 0-0.064 0zM23.633 8.795l-3.613 5.683c-0.085 0.148-0.105 0.338-0.042 0.486l1.141 2.916c0.042 0.127 0.19 0.232 0.338 0.211l3.19-0.148c0.19 0 0.359-0.105 0.465-0.275l5.62-8.852c0.423-0.655 0.549-1.437 0.38-2.197s-0.634-1.394-1.289-1.817l-0.169-0.105c-0.655-0.423-1.437-0.549-2.176-0.38-0.761 0.169-1.394 0.613-1.817 1.289l-2.028 3.19z"></path>
<path class="path5" d="M17.443 24.472c-0.064 0-0.127-0.021-0.19-0.064-0.169-0.105-0.211-0.317-0.105-0.465l10.289-16.163c0.105-0.169 0.317-0.211 0.465-0.105 0.169 0.105 0.211 0.317 0.105 0.465l-10.289 16.163c-0.064 0.105-0.169 0.169-0.275 0.169z"></path>
</symbol>
<symbol id="OD_laurel-wreath_maker-dashboard" viewBox="0 0 32 32">
<title>OD_laurel-wreath_maker-dashboard</title>
<path class="path1" d="M28.288 15.189c0.075 0.011 0.149 0.011 0.224 0.011 0.448 0 0.875-0.149 1.237-0.448l0.299-0.235c0.267-0.213 0.48-0.491 0.608-0.811l0.949-2.293c0.085-0.203 0.053-0.437-0.085-0.608s-0.363-0.245-0.576-0.213l-2.432 0.416c-0.331 0.064-0.651 0.203-0.917 0.416l-0.309 0.245c-0.053 0.043-0.107 0.085-0.149 0.139-0.192-0.811-0.469-1.589-0.832-2.325 0.533-0.085 1.003-0.416 1.259-0.939l0.139-0.277c0.128-0.256 0.192-0.555 0.181-0.853l-0.085-2.027c-0.011-0.224-0.139-0.416-0.331-0.512-0.203-0.096-0.427-0.085-0.608 0.043l-1.664 1.152c-0.245 0.171-0.448 0.395-0.576 0.661l-0.064 0.139c-0.309-0.352-0.64-0.683-1.003-0.992 0.107-0.608-0.149-1.237-0.693-1.589l-0.224-0.149c-0.235-0.149-0.491-0.224-0.757-0.245l-1.728-0.107c-0.213-0.011-0.416 0.096-0.533 0.277s-0.128 0.405-0.021 0.597l0.832 1.515c0.128 0.235 0.32 0.437 0.544 0.576l0.235 0.149c0.256 0.16 0.544 0.245 0.832 0.245 0.117 0 0.224-0.021 0.331-0.032 0.224-0.053 0.427-0.149 0.597-0.277 0.181 0.16 0.352 0.331 0.523 0.512l-0.203 0.011c-0.299 0.021-0.587 0.117-0.832 0.277l-1.696 1.109c-0.181 0.117-0.277 0.331-0.267 0.544 0.011 0.224 0.149 0.405 0.341 0.501l1.835 0.843c0.224 0.107 0.48 0.16 0.736 0.16 0.043 0 0.085 0 0.117-0.011l0.32-0.021c0.459-0.032 0.875-0.235 1.173-0.587 0.096-0.107 0.171-0.224 0.235-0.341 0.277 0.555 0.501 1.131 0.672 1.728l-0.267-0.107c-0.32-0.128-0.661-0.16-1.003-0.117l-2.453 0.341c-0.213 0.032-0.405 0.181-0.48 0.384-0.075 0.213-0.032 0.437 0.107 0.608l1.589 1.888c0.213 0.267 0.501 0.469 0.821 0.587l0.363 0.139c0.235 0.085 0.469 0.128 0.704 0.128 0.363 0 0.704-0.096 1.013-0.277-0.053 0.789-0.192 1.557-0.416 2.304-0.011-0.021-0.032-0.053-0.043-0.085l-0.235-0.363c-0.203-0.309-0.48-0.565-0.811-0.747l-2.475-1.312c-0.192-0.107-0.437-0.096-0.619 0.021s-0.288 0.331-0.277 0.555l0.192 2.784c0.032 0.373 0.149 0.736 0.352 1.045l0.245 0.373c0.32 0.48 0.8 0.821 1.365 0.939 0.149 0.032 0.309 0.053 0.459 0.053 0.075 0 0.139 0 0.213-0.011-0.149 0.203-0.309 0.405-0.48 0.597-0.459 0.533-0.971 1.003-1.525 1.419 0.032-0.181 0.053-0.373 0.043-0.565l-0.021-0.48c-0.021-0.395-0.139-0.789-0.352-1.131l-1.621-2.613c-0.117-0.192-0.331-0.299-0.555-0.288s-0.427 0.139-0.523 0.341l-1.344 2.741c-0.171 0.363-0.256 0.768-0.235 1.163l0.021 0.491c0.032 0.619 0.299 1.184 0.757 1.6 0.192 0.171 0.405 0.299 0.619 0.395-0.512 0.16-1.045 0.277-1.579 0.363-0.309 0.043-0.523 0.32-0.48 0.629 0.043 0.277 0.277 0.48 0.555 0.48 0.032 0 0.053 0 0.075 0 0.661-0.096 1.312-0.245 1.931-0.459-0.064 0.363-0.043 0.725 0.075 1.088 0.181 0.597 0.587 1.077 1.131 1.365l0.427 0.224c0.331 0.171 0.715 0.267 1.099 0.267 0.011 0 0.032-0.011 0.043 0l3.072-0.064c0.224-0.011 0.427-0.128 0.533-0.331 0.107-0.192 0.096-0.437-0.032-0.619l-1.685-2.549c-0.213-0.341-0.523-0.619-0.875-0.8l-0.427-0.224c-0.032-0.021-0.064-0.032-0.096-0.043 0.651-0.48 1.259-1.035 1.803-1.664 0.181-0.213 0.363-0.427 0.523-0.651 0.341 0.757 1.099 1.269 1.973 1.269 0.032 0 0.064 0 0.096 0l0.437-0.021c0.373-0.011 0.736-0.128 1.056-0.32l2.4-1.461c0.181-0.117 0.299-0.32 0.288-0.544s-0.139-0.427-0.341-0.523l-2.496-1.248c-0.331-0.171-0.704-0.245-1.077-0.235l-0.448 0.021c-0.085 0-0.171 0.011-0.256 0.021 0.395-1.109 0.619-2.272 0.661-3.456 0.256 0.16 0.544 0.267 0.853 0.309zM27.968 12.544l0.309-0.245c0.128-0.096 0.267-0.16 0.416-0.181l1.515-0.256-0.608 1.429c-0.053 0.139-0.149 0.267-0.267 0.363l-0.299 0.235c-0.181 0.139-0.405 0.203-0.629 0.181-0.235-0.032-0.437-0.139-0.576-0.32-0.288-0.373-0.235-0.907 0.139-1.205zM23.168 19.104l-0.245-0.373c-0.096-0.16-0.16-0.341-0.171-0.523l-0.128-1.867 1.653 0.896c0.171 0.085 0.309 0.213 0.405 0.373l0.235 0.363c0.32 0.48 0.171 1.131-0.309 1.44-0.48 0.32-1.131 0.171-1.44-0.309zM18.773 21.813c-0.011-0.203 0.032-0.416 0.128-0.608l0.939-1.92 1.152 1.835c0.107 0.181 0.171 0.384 0.181 0.597l0.021 0.48c0.032 0.651-0.48 1.216-1.141 1.248-0.32 0.021-0.629-0.096-0.864-0.309-0.245-0.224-0.384-0.512-0.395-0.832l-0.021-0.491zM23.285 25.355l1.184 1.792-2.155 0.043c-0.213 0.011-0.416-0.043-0.608-0.139l-0.427-0.224c-0.288-0.149-0.491-0.405-0.587-0.704s-0.064-0.619 0.085-0.907c0.149-0.288 0.395-0.491 0.704-0.587 0.117-0.032 0.235-0.053 0.352-0.053 0.192 0 0.384 0.043 0.565 0.139l0.427 0.224c0.181 0.096 0.341 0.235 0.459 0.416zM27.072 19.445l0.448-0.021c0.011 0 0.032 0 0.043 0 0.171 0 0.341 0.032 0.491 0.117l1.675 0.832-1.611 0.981c-0.16 0.096-0.341 0.149-0.523 0.16l-0.437 0.021c-0.576 0.021-1.067-0.427-1.088-1.003s0.427-1.067 1.003-1.088zM25.483 7.52l0.139-0.288c0.053-0.096 0.128-0.181 0.213-0.245l0.885-0.608 0.032 1.088c0.011 0.107-0.021 0.213-0.064 0.309l-0.139 0.277c-0.139 0.288-0.501 0.416-0.8 0.267-0.075-0.032-0.139-0.085-0.181-0.139-0.021-0.043-0.053-0.085-0.085-0.117-0.075-0.171-0.085-0.363 0-0.544zM22.411 5.813c-0.053 0.096-0.149 0.171-0.267 0.192-0.107 0.032-0.224 0.011-0.32-0.053l-0.235-0.149c-0.064-0.043-0.117-0.107-0.16-0.171l-0.373-0.672 0.779 0.032c0.085 0.011 0.16 0.032 0.224 0.075l0.224 0.149c0.192 0.128 0.256 0.395 0.128 0.597zM24.181 9.44c-0.107 0.117-0.256 0.192-0.416 0.203l-0.32 0.021c-0.107 0.011-0.213-0.011-0.309-0.053l-0.971-0.448 0.917-0.608c0.085-0.053 0.192-0.085 0.299-0.096l0.309-0.021c0.16-0.011 0.32 0.043 0.437 0.149s0.192 0.256 0.203 0.416c0.011 0.16-0.043 0.32-0.149 0.437zM26.101 13.749c-0.171 0.437-0.672 0.661-1.109 0.491l-0.363-0.139c-0.139-0.064-0.267-0.149-0.363-0.267l-0.992-1.173 1.525-0.213c0.149-0.021 0.309 0 0.448 0.053l0.363 0.139c0.437 0.171 0.661 0.672 0.491 1.109z"></path>
<path class="path2" d="M14.411 24.704c-0.427-0.064-0.843-0.16-1.259-0.277 0.693-0.373 1.184-1.077 1.227-1.92l0.021-0.491c0.021-0.405-0.064-0.8-0.235-1.163l-1.344-2.741c-0.096-0.203-0.299-0.331-0.523-0.341s-0.437 0.096-0.555 0.288l-1.621 2.613c-0.213 0.341-0.331 0.736-0.352 1.131l-0.021 0.48c-0.011 0.16 0 0.309 0.021 0.459-0.576-0.437-1.12-0.939-1.6-1.493-0.117-0.139-0.224-0.277-0.341-0.416 0.053 0 0.107 0.011 0.171 0.011 0.149 0 0.309-0.011 0.448-0.064 0.565-0.117 1.056-0.448 1.365-0.939l0.245-0.373c0.203-0.309 0.331-0.672 0.352-1.045l0.192-2.784c0.011-0.224-0.096-0.437-0.277-0.555s-0.427-0.128-0.619-0.021l-2.475 1.333c-0.331 0.171-0.608 0.437-0.811 0.747l-0.235 0.363c-0.021 0.032-0.032 0.064-0.053 0.096-0.235-0.757-0.395-1.547-0.448-2.347 0.32 0.203 0.683 0.309 1.067 0.309 0.235 0 0.469-0.043 0.704-0.139l0.363-0.139c0.32-0.128 0.597-0.331 0.821-0.587l1.6-1.888c0.149-0.171 0.181-0.405 0.107-0.608s-0.267-0.352-0.48-0.384l-2.453-0.341c-0.341-0.043-0.683 0-1.003 0.117l-0.363 0.139c-0.011 0-0.021 0.011-0.032 0.011 0.181-0.651 0.416-1.291 0.725-1.888 0.075 0.171 0.16 0.32 0.288 0.469 0.299 0.341 0.715 0.555 1.173 0.587l0.32 0.021c0.043 0 0.085 0 0.128 0 0.256 0 0.501-0.053 0.736-0.16l1.835-0.832c0.192-0.096 0.331-0.288 0.341-0.501 0.021-0.213-0.085-0.427-0.267-0.544l-1.707-1.109c-0.245-0.16-0.533-0.256-0.832-0.277l-0.309-0.021c-0.021 0-0.043 0-0.064 0 0.192-0.203 0.384-0.405 0.597-0.597 0.288 0.256 0.661 0.395 1.035 0.395 0.288 0 0.576-0.075 0.821-0.245l0.235-0.149c0.235-0.139 0.416-0.341 0.544-0.576l0.832-1.515c0.096-0.181 0.096-0.416-0.021-0.597s-0.32-0.288-0.533-0.277l-1.728 0.107c-0.267 0.021-0.533 0.107-0.757 0.245l-0.235 0.149c-0.352 0.224-0.597 0.565-0.683 0.971-0.032 0.149-0.043 0.299-0.043 0.437-0.373 0.32-0.715 0.661-1.035 1.024-0.139-0.256-0.331-0.48-0.565-0.64l-1.664-1.152c-0.181-0.128-0.416-0.139-0.608-0.043s-0.32 0.299-0.331 0.512l-0.085 2.027c-0.011 0.288 0.053 0.587 0.181 0.853l0.139 0.277c0.245 0.469 0.661 0.779 1.131 0.896-0.341 0.725-0.597 1.483-0.789 2.272-0.021-0.011-0.032-0.032-0.053-0.043l-0.309-0.245c-0.267-0.213-0.576-0.363-0.917-0.416l-2.432-0.416c-0.224-0.032-0.437 0.053-0.576 0.224s-0.171 0.405-0.085 0.608l0.949 2.293c0.128 0.32 0.341 0.597 0.608 0.811l0.299 0.235c0.363 0.288 0.8 0.427 1.227 0.427 0.352 0 0.704-0.096 1.013-0.277 0.064 1.173 0.299 2.336 0.715 3.424-0.075-0.011-0.16-0.021-0.235-0.021l-0.448-0.021c-0.373-0.011-0.747 0.064-1.077 0.235l-2.496 1.248c-0.203 0.107-0.331 0.299-0.341 0.523s0.096 0.427 0.288 0.544l2.411 1.461c0.32 0.192 0.683 0.309 1.056 0.32l0.437 0.021c0.021 0 0.053 0 0.085 0 0.544 0 1.056-0.203 1.472-0.576 0.224-0.213 0.405-0.459 0.523-0.736 0.128 0.171 0.256 0.331 0.395 0.491 0.597 0.683 1.259 1.291 1.984 1.813-0.064 0.021-0.128 0.053-0.181 0.085l-0.427 0.224c-0.352 0.192-0.651 0.469-0.875 0.8l-1.685 2.549c-0.128 0.181-0.139 0.416-0.032 0.619s0.309 0.331 0.533 0.331l3.072 0.064c0.021 0 0.032 0 0.053 0 0.384 0 0.768-0.096 1.088-0.267l0.427-0.224c0.96-0.501 1.419-1.589 1.173-2.592 0.587 0.192 1.184 0.331 1.792 0.427 0.032 0.011 0.053 0.011 0.085 0.011 0.277 0 0.512-0.192 0.544-0.469 0.043-0.309-0.16-0.597-0.469-0.64zM10.901 21.856c0.011-0.213 0.075-0.416 0.181-0.597l1.131-1.835 0.949 1.92c0.096 0.181 0.139 0.395 0.128 0.608l-0.021 0.491c-0.032 0.661-0.587 1.173-1.248 1.141s-1.173-0.587-1.141-1.248l0.021-0.48zM7.125 18.123l0.235-0.363c0.107-0.16 0.245-0.288 0.405-0.373l1.664-0.896-0.117 1.867c-0.011 0.192-0.075 0.363-0.171 0.523l-0.245 0.373c-0.16 0.235-0.384 0.395-0.661 0.459s-0.555 0.011-0.789-0.139c-0.235-0.16-0.395-0.384-0.459-0.661s-0.011-0.555 0.139-0.789zM9.579 5.643c0.032-0.107 0.096-0.203 0.192-0.267l0.224-0.149c0.075-0.043 0.149-0.075 0.224-0.075l0.779-0.043-0.373 0.661c-0.043 0.075-0.096 0.128-0.16 0.171l-0.235 0.149c-0.203 0.128-0.469 0.075-0.597-0.128-0.053-0.096-0.075-0.203-0.053-0.32zM4.203 13.899c-0.299 0.373-0.832 0.437-1.205 0.139l-0.299-0.235c-0.117-0.096-0.213-0.224-0.267-0.363l-0.587-1.429 1.493 0.256c0.149 0.021 0.299 0.085 0.416 0.181l0.309 0.245c0.181 0.149 0.299 0.352 0.32 0.576s-0.043 0.448-0.181 0.629zM5.643 21.397c-0.203 0.192-0.469 0.288-0.747 0.277l-0.437-0.021c-0.181-0.011-0.363-0.064-0.523-0.16l-1.611-0.981 1.664-0.832c0.16-0.085 0.352-0.128 0.533-0.117l0.448 0.021c0.576 0.021 1.024 0.512 1.003 1.088-0.011 0.277-0.128 0.533-0.331 0.725zM6.443 12.789l0.363-0.139c0.096-0.043 0.213-0.064 0.32-0.064 0.032 0 0.075 0 0.107 0.011l1.536 0.213-0.992 1.173c-0.096 0.117-0.224 0.213-0.363 0.267l-0.363 0.139c-0.448 0.171-0.939-0.053-1.109-0.491-0.075-0.224-0.075-0.448 0.021-0.661 0.096-0.203 0.267-0.363 0.48-0.448zM8.683 8.64c0.107 0 0.213 0.043 0.299 0.096l0.907 0.587-0.971 0.448c-0.096 0.043-0.203 0.064-0.309 0.053l-0.32-0.021c-0.16-0.011-0.309-0.075-0.416-0.203s-0.16-0.277-0.149-0.437c0.011-0.16 0.085-0.309 0.203-0.416 0.117-0.096 0.245-0.149 0.395-0.149 0.021 0 0.032 0 0.053 0.021l0.309 0.021zM5.493 8.192l-0.139-0.277c-0.043-0.096-0.064-0.203-0.064-0.309l0.043-1.077 0.875 0.597c0.096 0.064 0.171 0.149 0.213 0.245l0.139 0.288c0.032 0.064 0.053 0.139 0.064 0.203-0.149 0.203-0.288 0.416-0.416 0.629-0.277 0.096-0.576-0.032-0.715-0.299zM10.773 26.965l-0.427 0.224c-0.192 0.096-0.395 0.149-0.608 0.139l-2.155-0.043 1.195-1.792c0.107-0.171 0.267-0.32 0.459-0.416l0.427-0.224c0.576-0.309 1.301-0.085 1.611 0.501 0.309 0.576 0.085 1.301-0.501 1.611z"></path>
</symbol>
<symbol id="OD_register-online_maker-dashboard" viewBox="0 0 32 32">
<title>OD_register-online_maker-dashboard</title>
<path class="path1" d="M20.352 25.792h-15.872c-2.304 0-4.192-1.877-4.192-4.192v-10.368c0-2.304 1.877-4.192 4.192-4.192h15.872c2.304 0 4.192 1.877 4.192 4.192v1.76c0 0.309-0.256 0.555-0.555 0.555s-0.555-0.256-0.555-0.555v-1.76c0-1.696-1.376-3.072-3.072-3.072h-15.883c-1.696 0-3.072 1.376-3.072 3.072v10.368c0 1.696 1.376 3.072 3.072 3.072h15.872c1.696 0 3.072-1.376 3.072-3.072v-5.461c0-0.309 0.256-0.555 0.555-0.555s0.555 0.256 0.555 0.555v5.461c0.011 2.315-1.867 4.192-4.181 4.192z"></path>
<path class="path2" d="M23.957 11.904h-23.104c-0.309 0-0.555-0.256-0.555-0.555s0.256-0.555 0.555-0.555h23.104c0.309 0 0.555 0.256 0.555 0.555s-0.245 0.555-0.555 0.555z"></path>
<path class="path3" d="M4.672 9.525c0 0.277-0.224 0.501-0.501 0.501s-0.501-0.224-0.501-0.501c0-0.277 0.224-0.501 0.501-0.501s0.501 0.224 0.501 0.501z"></path>
<path class="path4" d="M6.88 9.536c0 0.277-0.224 0.501-0.501 0.501s-0.501-0.224-0.501-0.501c0-0.277 0.224-0.501 0.501-0.501s0.501 0.224 0.501 0.501z"></path>
<path class="path5" d="M9.088 9.557c0 0.277-0.224 0.501-0.501 0.501s-0.501-0.224-0.501-0.501c0-0.277 0.224-0.501 0.501-0.501s0.501 0.224 0.501 0.501z"></path>
<path class="path6" d="M28.085 12.416c-0.139 0-0.277-0.053-0.395-0.16-0.224-0.213-0.224-0.565-0.011-0.789 0.181-0.181 0.171-0.491-0.021-0.672l-0.053-0.043c-0.096-0.096-0.224-0.139-0.341-0.139-0.128 0-0.245 0.053-0.331 0.139-0.213 0.224-0.565 0.224-0.789 0.011s-0.224-0.565-0.011-0.789c0.299-0.309 0.693-0.48 1.12-0.48 0 0 0.011 0 0.011 0 0.427 0 0.821 0.16 1.12 0.459l0.043 0.043c0 0 0 0 0 0 0.629 0.619 0.651 1.632 0.043 2.261-0.085 0.107-0.235 0.16-0.384 0.16z"></path>
<path class="path7" d="M29.504 10.933c-0.139 0-0.277-0.053-0.395-0.16-0.224-0.213-0.224-0.565-0.011-0.789 0.085-0.085 0.128-0.203 0.128-0.331s-0.053-0.245-0.149-0.341l-0.043-0.043c-0.096-0.096-0.213-0.139-0.341-0.139s-0.245 0.053-0.331 0.139c-0.213 0.224-0.565 0.224-0.789 0.011s-0.224-0.565-0.011-0.789c0.299-0.309 0.693-0.48 1.12-0.48 0 0 0.011 0 0.011 0 0.427 0 0.821 0.16 1.12 0.459l0.043 0.043c0 0 0 0 0 0 0.309 0.299 0.48 0.693 0.491 1.12s-0.149 0.832-0.448 1.141c-0.107 0.107-0.245 0.16-0.395 0.16z"></path>
<path class="path8" d="M15.797 23.616c-0.139 0-0.288-0.053-0.395-0.16-0.171-0.171-0.224-0.427-0.117-0.64l1.312-2.752c0.075-0.181 0.192-0.405 0.384-0.597l12.021-12.469c0.299-0.309 0.704-0.48 1.131-0.491 0.011 0 0.011 0 0.021 0 0.416 0 0.821 0.16 1.12 0.459l0.053 0.043c0.309 0.299 0.48 0.704 0.48 1.131 0.011 0.427-0.16 0.832-0.459 1.141l-12.021 12.459c0 0-0.011 0.011-0.011 0.011-0.128 0.128-0.341 0.299-0.544 0.395l-2.72 1.408c-0.085 0.043-0.171 0.064-0.256 0.064zM30.155 7.637c-0.011 0-0.011 0 0 0-0.139 0-0.256 0.053-0.352 0.149l-12.021 12.448c-0.064 0.064-0.117 0.181-0.16 0.267 0 0.011-0.011 0.011-0.011 0.021l-0.608 1.269 1.248-0.64c0 0 0.011 0 0.011-0.011 0.053-0.021 0.171-0.107 0.256-0.192l12.032-12.448c0.096-0.096 0.139-0.213 0.139-0.341s-0.053-0.256-0.149-0.341l-0.053-0.043c-0.085-0.096-0.203-0.139-0.331-0.139zM18.923 21.344v0 0z"></path>
<path class="path9" d="M15.776 23.627h-4.48c-0.309 0-0.555-0.256-0.555-0.555s0.256-0.555 0.555-0.555h4.48c0.309 0 0.555 0.256 0.555 0.555s-0.245 0.555-0.555 0.555z"></path>
</symbol>
<symbol id="OD_conversation" viewBox="0 0 32 32">
<title>OD_conversation</title>
<path class="path1" d="M30.336 21.771c-0.277 0-0.544-0.107-0.747-0.32l-2.411-2.507c-0.128-0.139-0.309-0.213-0.501-0.213h-13.877c-2.144 0-3.883-1.739-3.883-3.883v-9.6c0-2.144 1.739-3.883 3.883-3.883h14.688c2.144 0 3.883 1.739 3.883 3.883v9.611c0 0.021 0 0.043 0 0.053v5.824c0 0.427-0.256 0.8-0.651 0.96-0.128 0.053-0.256 0.075-0.384 0.075zM12.8 2.475c-1.525 0-2.763 1.237-2.763 2.763v9.611c0 1.525 1.237 2.763 2.763 2.763h13.877c0.491 0 0.971 0.203 1.312 0.555l2.272 2.357v-5.643c0-0.021 0-0.043 0-0.053v-9.6c0-1.525-1.237-2.763-2.763-2.763h-14.699z"></path>
<path class="path2" d="M1.717 30.688c-0.128 0-0.267-0.021-0.395-0.075-0.395-0.16-0.651-0.533-0.651-0.96v-5.824c0-0.021 0-0.032 0-0.053v-9.611c0-2.144 1.739-3.883 3.883-3.883h4.864c0.309 0 0.555 0.256 0.555 0.555s-0.256 0.555-0.555 0.555h-4.864c-1.525 0-2.763 1.237-2.763 2.763v9.6c0 0.021 0 0.032 0 0.043v5.643l2.283-2.347c0.341-0.352 0.821-0.555 1.312-0.555h13.877c1.525 0 2.763-1.237 2.763-2.763v-5.376c0-0.309 0.256-0.555 0.555-0.555s0.555 0.256 0.555 0.555v5.376c0 2.144-1.739 3.883-3.883 3.883h-13.877c-0.192 0-0.373 0.075-0.501 0.213l-2.411 2.507c-0.203 0.203-0.469 0.309-0.747 0.309z"></path>
</symbol>
<symbol id="OD_introduction-call_maker-dashboard" viewBox="0 0 32 32">
<title>OD_introduction-call_maker-dashboard</title>
<path class="path1" d="M22.891 20.459c-0.309 0-0.555-0.256-0.555-0.555v-7.648c0-3.307-2.688-5.995-5.995-5.995h-0.416c-3.307 0-5.995 2.688-5.995 5.995v4.853c0 0.309-0.256 0.555-0.555 0.555s-0.555-0.256-0.555-0.555v-4.853c0-1.909 0.736-3.701 2.091-5.045 1.344-1.333 3.125-2.069 5.024-2.069h0.416c1.899 0 3.691 0.736 5.024 2.069 1.344 1.344 2.091 3.136 2.091 5.045v7.648c-0.011 0.299-0.267 0.555-0.576 0.555z"></path>
<path class="path2" d="M20.853 20.32h-0.128c-1.44 0-2.613-1.173-2.613-2.613v-2.4c0-1.44 1.173-2.613 2.613-2.613h0.128c1.44 0 2.613 1.173 2.613 2.613v2.4c0.011 1.44-1.163 2.613-2.613 2.613zM20.725 13.803c-0.821 0-1.493 0.672-1.493 1.493v2.4c0 0.821 0.672 1.493 1.493 1.493h0.128c0.821 0 1.493-0.672 1.493-1.493v-2.4c0-0.821-0.672-1.493-1.493-1.493h-0.128z"></path>
<path class="path3" d="M11.552 20.32h-0.128c-1.44 0-2.613-1.173-2.613-2.613v-2.4c0-1.44 1.173-2.613 2.613-2.613h0.128c1.44 0 2.613 1.173 2.613 2.613v2.4c0.011 1.44-1.163 2.613-2.613 2.613zM11.424 13.803c-0.821 0-1.493 0.672-1.493 1.493v2.4c0 0.821 0.672 1.493 1.493 1.493h0.128c0.821 0 1.493-0.672 1.493-1.493v-2.4c0-0.821-0.672-1.493-1.493-1.493h-0.128z"></path>
<path class="path4" d="M18.987 23.147c-0.267 0-0.501-0.192-0.555-0.459-0.053-0.299 0.139-0.597 0.448-0.651l1.984-0.373c0.885-0.171 1.493-0.885 1.461-1.749-0.011-0.309 0.235-0.565 0.544-0.576 0.011 0 0.011 0 0.021 0 0.299 0 0.555 0.235 0.555 0.544 0.043 1.397-0.96 2.613-2.379 2.88l-1.984 0.373c-0.032 0.011-0.064 0.011-0.096 0.011z"></path>
<path class="path5" d="M17.397 22.944l-0.011-0.032c-0.053-0.277 0.117-0.544 0.395-0.608l0.587-0.117c0.277-0.053 0.544 0.117 0.608 0.395l0.011 0.032c0.053 0.277-0.117 0.544-0.395 0.608l-0.587 0.117c-0.277 0.053-0.544-0.117-0.608-0.395z"></path>
<path class="path6" d="M17.899 23.829c-0.192 0-0.373-0.053-0.544-0.16-0.224-0.149-0.373-0.363-0.427-0.629l-0.011-0.032c-0.117-0.533 0.235-1.067 0.768-1.173l0.587-0.117c0.256-0.053 0.523 0 0.747 0.139 0.224 0.149 0.373 0.363 0.427 0.629l0.011 0.032c0.117 0.533-0.235 1.067-0.768 1.173l-0.587 0.117c-0.064 0.011-0.128 0.021-0.203 0.021zM18.485 22.645c0 0-0.011 0 0 0l-0.597 0.128c-0.021 0-0.032 0.021-0.021 0.043l0.011 0.032c0 0 0 0 0 0s0 0.011 0.011 0.021c0.011 0.011 0.021 0.011 0.021 0l0.587-0.117c0.021 0 0.032-0.021 0.021-0.043l-0.011-0.032c0 0 0-0.011-0.011-0.021 0-0.011-0.011-0.011-0.011-0.011z"></path>
<path class="path7" d="M30.315 30.421c-0.331 0-0.651-0.128-0.885-0.384l-3.392-3.52c-0.224-0.235-0.544-0.373-0.864-0.373h-19.52c-2.88 0.011-5.227-2.336-5.227-5.216v-13.525c0-2.88 2.347-5.227 5.227-5.227h20.661c2.891 0 5.237 2.347 5.237 5.237v13.515c0 0.021 0 0.043 0 0.075v8.192c0 0.501-0.299 0.96-0.768 1.141-0.16 0.064-0.309 0.085-0.469 0.085zM5.653 3.296c-2.272 0-4.117 1.845-4.117 4.117v13.515c0 2.272 1.845 4.117 4.117 4.117h19.509c0.629 0 1.237 0.256 1.675 0.715l3.392 3.52c0.011 0.011 0.053 0.053 0.128 0.032 0.075-0.032 0.075-0.085 0.075-0.107v-8.213c0-0.021 0-0.043 0-0.064v-13.525c0-2.272-1.845-4.117-4.117-4.117h-20.661z"></path>
</symbol>
<symbol id="OD_victory-hand_investor-page" viewBox="0 0 32 32">
<title>OD_victory-hand_investor-page</title>
<path class="path1" d="M22.581 19.989c-0.032 0-0.064 0-0.085-0.011-0.309-0.053-0.512-0.341-0.459-0.64l2.549-15.787c0.064-0.395-0.213-0.725-0.373-0.885-0.331-0.32-0.811-0.555-1.333-0.629l-0.235-0.032c-0.523-0.075-1.056 0-1.461 0.203-0.203 0.107-0.565 0.341-0.619 0.736l-2.368 14.667c-0.043 0.277-0.277 0.469-0.555 0.469s-0.512-0.213-0.544-0.48l-2.165-15.392c-0.053-0.363-0.405-0.587-0.608-0.693-0.405-0.203-0.939-0.277-1.472-0.203l-0.235 0.032c-1.013 0.149-1.824 0.832-1.728 1.461l1.931 13.877c0.043 0.309-0.171 0.587-0.48 0.629s-0.587-0.171-0.629-0.48l-1.92-13.856c-0.192-1.259 1.013-2.485 2.667-2.731l0.235-0.032c0.757-0.117 1.515 0 2.133 0.309 0.672 0.341 1.12 0.896 1.216 1.536l1.621 11.691 1.771-10.976c0.096-0.64 0.544-1.216 1.216-1.557 0.619-0.32 1.387-0.437 2.144-0.32l0.235 0.032c0.757 0.117 1.451 0.448 1.952 0.939 0.544 0.533 0.8 1.205 0.693 1.856l-2.549 15.797c-0.043 0.267-0.277 0.469-0.544 0.469z"></path>
<path class="path2" d="M12.213 31.797c-0.768 0-1.515-0.288-2.048-0.864l-5.024-5.355c-0.544-0.587-0.789-1.376-0.704-2.219 0.085-0.811 0.491-1.568 1.12-2.155l0.128-0.117c0.779-0.725 1.792-1.045 2.709-0.928-0.128-0.992 0.256-2.059 1.109-2.848l0.128-0.117c1.323-1.227 3.296-1.269 4.384-0.085l1.803 1.92c0.352-0.149 0.704-0.213 1.067-0.213l7.733 0.032c0 0 0 0 0 0 0.747 0.011 1.461 0.32 2.016 0.885 0.64 0.651 1.003 1.589 0.992 2.571v0.181c-0.021 1.877-1.387 3.381-3.051 3.381-0.011 0-0.021 0-0.032 0l-5.173-0.021c-0.192 0.373-0.437 0.704-0.747 0.981l-0.128 0.117c-0.789 0.725-1.792 1.045-2.72 0.917 0.117 0.992-0.267 2.080-1.099 2.859l-0.128 0.117c-0.672 0.651-1.525 0.96-2.336 0.96zM8.011 21.269c-0.533 0-1.109 0.224-1.568 0.651l-0.128 0.117c-0.437 0.405-0.704 0.917-0.768 1.461-0.053 0.512 0.085 0.981 0.405 1.323l5.024 5.355c0.672 0.725 1.931 0.661 2.805-0.139l0.128-0.117c0.821-0.757 1.013-1.931 0.437-2.677-0.171-0.224-0.149-0.533 0.043-0.736 0.203-0.203 0.512-0.224 0.736-0.053 0.715 0.544 1.835 0.405 2.603-0.309l0.128-0.117c0.277-0.256 0.48-0.565 0.619-0.928 0.085-0.213 0.288-0.363 0.523-0.363 0 0 0 0 0 0l5.547 0.021c0.011 0 0.011 0 0.021 0 1.056 0 1.92-1.013 1.941-2.283v-0.181c0.011-0.683-0.235-1.323-0.672-1.771-0.341-0.352-0.779-0.544-1.216-0.544l-7.733-0.032c-0.299 0-0.597 0.085-0.896 0.267-0.224 0.139-0.523 0.096-0.704-0.096l-2.101-2.229c-0.672-0.725-1.931-0.661-2.805 0.139l-0.128 0.117c-0.832 0.768-1.024 1.92-0.437 2.677 0.171 0.224 0.149 0.533-0.043 0.736-0.203 0.203-0.512 0.224-0.736 0.053-0.277-0.235-0.64-0.341-1.024-0.341z"></path>
<path class="path3" d="M14.805 27.456c-0.149 0-0.299-0.064-0.405-0.171l-5.408-5.739c-0.213-0.224-0.203-0.576 0.021-0.789s0.576-0.203 0.789 0.021l5.408 5.739c0.213 0.224 0.203 0.576-0.021 0.789-0.107 0.096-0.245 0.149-0.384 0.149z"></path>
<path class="path4" d="M24.576 25.877c-0.011 0-0.021 0-0.032 0l-7.723-0.043c-0.757-0.011-1.472-0.32-2.016-0.885-0.64-0.651-0.992-1.589-0.981-2.571v-0.181c0.021-1.867 1.387-3.381 3.051-3.381 0.011 0 0.021 0 0.032 0l7.723 0.043c0.747 0.011 1.461 0.32 2.016 0.885 0.64 0.651 1.003 1.589 0.981 2.56v0.181c-0.032 1.888-1.397 3.392-3.051 3.392zM16.875 19.936c-1.056 0-1.92 1.013-1.931 2.272v0.181c-0.011 0.683 0.235 1.333 0.661 1.771 0.341 0.352 0.768 0.544 1.227 0.544l7.723 0.043c0.011 0 0.011 0 0.021 0 1.056 0 1.92-1.013 1.931-2.272v-0.181c0 0 0 0 0 0 0.011-0.683-0.235-1.323-0.672-1.771-0.341-0.352-0.768-0.544-1.216-0.555l-7.723-0.043c0 0.011-0.011 0.011-0.021 0.011z"></path>
</symbol>
<symbol id="OD_cnc-cutting" viewBox="0 0 32 32">
<title>OD_cnc-cutting</title>
<path class="path1" d="M25.429 10.133c-0.053 0-0.117-0.011-0.171-0.032-1.376-0.587-2.571-1.472-3.669-2.72-0.16-0.181-0.139-0.448 0.043-0.597 0.181-0.16 0.448-0.139 0.597 0.043 1.003 1.141 2.101 1.963 3.36 2.496 0.213 0.096 0.32 0.341 0.224 0.555-0.053 0.16-0.213 0.256-0.384 0.256z"></path>
<path class="path2" d="M25.429 5.845c-0.053 0-0.117-0.011-0.171-0.032-1.387-0.608-2.624-1.536-3.669-2.741-0.149-0.181-0.139-0.448 0.043-0.597s0.448-0.139 0.597 0.043c0.96 1.109 2.091 1.952 3.36 2.517 0.213 0.096 0.309 0.341 0.224 0.565-0.053 0.149-0.213 0.245-0.384 0.245z"></path>
<path class="path3" d="M13.109 31.883c-0.011 0-0.011 0-0.021 0h-0.011c-0.011 0-0.032 0-0.043 0s-0.032-0.011-0.043-0.011h-0.011c-0.011 0-0.021-0.011-0.032-0.011s-0.021-0.011-0.032-0.011h-0.011c-0.011 0-0.021-0.011-0.021-0.011-0.011 0-0.021-0.011-0.021-0.011l-0.011-0.011c0 0-0.011 0-0.011-0.011 0 0-0.011-0.011-0.011-0.011l-0.288-0.171c0 0 0 0-0.011 0 0 0-0.011 0-0.011-0.011l-0.011-0.011c0 0-0.011 0-0.011-0.011 0 0-0.011-0.011-0.011-0.011l-0.011-0.011c0 0-0.011-0.011-0.011-0.011-0.011 0-0.011-0.011-0.021-0.011l-0.011-0.011c0 0-0.011-0.011-0.011-0.011s-0.011-0.011-0.011-0.011l-0.011-0.011c0 0-0.011-0.011-0.011-0.011s-0.011-0.011-0.011-0.011l-0.011-0.011c0 0 0 0 0 0s0 0 0 0 0 0 0 0 0-0.011-0.011-0.011l-0.011-0.011c-0.011-0.011-0.011-0.011-0.021-0.021 0-0.011-0.011-0.011-0.011-0.021l-0.011-0.011c-0.139-0.192-0.096-0.459 0.096-0.597s0.448-0.096 0.587 0.085l0.139 0.085c0.011-0.011 0.011-0.011 0.021-0.021l-2.069-9.301-0.768-0.448c-0.032 0.043-0.085 0.085-0.139 0.107h-0.011c-0.213 0.107-0.469 0.011-0.576-0.192-0.011-0.032-0.032-0.064-0.032-0.096-0.043-0.085-0.053-0.192-0.032-0.288l-0.352-0.203-2.549 6.453c0 0.011-0.011 0.021-0.011 0.032s-0.011 0.021-0.011 0.021-0.011 0.032-0.021 0.043c-0.011 0.011-0.011 0.021-0.021 0.032s-0.021 0.021-0.032 0.032c-0.011 0.011-0.021 0.021-0.032 0.032s-0.021 0.021-0.043 0.032c-0.011 0.011-0.032 0.021-0.043 0.032l-0.203 0.117c-0.203 0.117-0.469 0.043-0.587-0.16s-0.043-0.469 0.16-0.587l0.085-0.053 2.56-6.464-3.605-2.123c0 0-0.011-0.011-0.011-0.011s-0.011 0-0.011-0.011l-0.011-0.011c-0.011 0-0.011-0.011-0.021-0.021s-0.011-0.011-0.021-0.021l-0.011-0.011c-0.011 0-0.011-0.011-0.021-0.021s-0.011-0.011-0.021-0.021l-0.011-0.011c-0.011-0.011-0.021-0.021-0.021-0.021-0.011-0.011-0.011-0.021-0.021-0.032v0c-0.011-0.011-0.011-0.021-0.021-0.021-0.011-0.011-0.011-0.021-0.021-0.032v0c-0.011-0.021-0.021-0.032-0.032-0.053s-0.011-0.043-0.021-0.053c0-0.011-0.011-0.032-0.011-0.043s0-0.032-0.011-0.043c0-0.021 0-0.043 0-0.064s0-0.043 0-0.053c0-0.021 0.011-0.043 0.011-0.064 0.011-0.021 0.011-0.043 0.021-0.064s0.011-0.032 0.021-0.053c0.011-0.021 0.021-0.032 0.032-0.053 0.011-0.011 0.011-0.021 0.021-0.021 0.011-0.011 0.011-0.011 0.021-0.021s0.032-0.032 0.043-0.043c0.011-0.011 0.032-0.021 0.053-0.032v0c0 0 0.011-0.011 0.011-0.011s0.011-0.011 0.011-0.011l10.773-6.101c0.203-0.117 0.469-0.043 0.587 0.16s0.043 0.469-0.16 0.587l-10.251 5.813 6.741 3.968 13.109-7.392-2.048-1.28c-0.203-0.128-0.256-0.384-0.139-0.587 0.128-0.203 0.384-0.256 0.587-0.139l2.507 1.579c0 0 0 0 0.011 0 0 0 0 0 0.011 0l0.011 0.011c0.011 0 0.011 0.011 0.021 0.011s0.011 0.011 0.021 0.011l0.011 0.011c0.011 0.011 0.021 0.011 0.032 0.021s0.021 0.021 0.021 0.021v0c0.011 0.011 0.011 0.011 0.021 0.021s0.011 0.011 0.021 0.021v0c0.011 0.011 0.011 0.011 0.021 0.021s0.011 0.021 0.021 0.032v0c0.011 0.011 0.021 0.032 0.021 0.043 0.011 0.011 0.011 0.032 0.021 0.053s0.011 0.043 0.021 0.064c0 0.021 0.011 0.043 0.011 0.064 0 0.011 0 0.032 0 0.043s0 0.032 0 0.043c0 0.021-0.011 0.053-0.011 0.075-0.011 0.021-0.021 0.053-0.032 0.075-0.011 0.011-0.011 0.032-0.021 0.043s-0.021 0.032-0.032 0.043c-0.011 0.011-0.011 0.021-0.021 0.032s-0.011 0.021-0.021 0.021-0.021 0.021-0.043 0.032c-0.011 0.011-0.032 0.021-0.043 0.032v0c-0.011 0-0.011 0.011-0.021 0.011s-0.011 0.011-0.021 0.011l-1.995 1.131 1.845 8.373c0 0 0 0.011 0 0.011s0 0.011 0 0.011v0.011c0 0.011 0 0.032 0.011 0.043s0 0.032 0 0.043v0c0 0.021 0 0.032 0 0.053s0 0.032-0.011 0.043v0c0 0.021-0.011 0.032-0.011 0.053s-0.011 0.032-0.021 0.053c-0.011 0.021-0.021 0.032-0.032 0.053s-0.021 0.032-0.032 0.053c-0.011 0.021-0.032 0.032-0.043 0.053-0.021 0.021-0.032 0.032-0.053 0.043v0c-0.011 0.011-0.011 0.011-0.021 0.021s-0.021 0.011-0.021 0.011l-0.203 0.117c0 0 0 0 0 0l-0.213 0.117c-0.021 0.011-0.043 0.021-0.064 0.032-0.032 0.011-0.075 0.021-0.117 0.032h-0.011c-0.011 0-0.032 0-0.043 0s-0.032 0-0.043 0v0c-0.011 0-0.032 0-0.043 0s-0.032 0-0.043-0.011h-0.011c-0.011 0-0.021-0.011-0.043-0.011-0.011 0-0.021-0.011-0.032-0.011h-0.011c-0.011 0-0.021-0.011-0.043-0.011-0.011-0.011-0.021-0.011-0.032-0.021l-0.011-0.011c0 0 0 0-0.011 0l-0.299-0.171c0 0-0.011 0-0.011-0.011l-0.011-0.011c-0.011 0-0.011-0.011-0.021-0.011s-0.011-0.011-0.021-0.011l-0.011-0.011c0 0-0.011-0.011-0.011-0.011s-0.011-0.011-0.011-0.011l-0.011-0.011c0 0-0.011-0.011-0.011-0.011s-0.011-0.011-0.011-0.011l-0.011-0.011c0 0 0 0 0 0l-0.011-0.011c-0.011-0.011-0.011-0.011-0.021-0.021s-0.011-0.011-0.021-0.021l-0.011-0.011c0 0 0 0-0.011-0.011l-0.011-0.011c-0.011-0.011-0.011-0.011-0.021-0.021 0-0.011-0.011-0.011-0.011-0.021l-0.011-0.011c0 0 0 0 0-0.011 0 0 0 0 0 0s0 0 0 0 0 0 0-0.011l-0.011-0.011c0 0-0.011-0.011-0.011-0.011 0-0.011-0.011-0.011-0.011-0.021v-0.011c0 0 0-0.011-0.011-0.011 0 0 0-0.011-0.011-0.011v-0.011c0-0.011-0.011-0.021-0.011-0.032s-0.011-0.021-0.011-0.032v-0.011c0 0 0 0 0 0s0 0 0 0 0 0 0 0v0l-1.92-7.445-3.019 1.707-0.608 1.547c0 0.011-0.011 0.011-0.011 0.021s-0.011 0.011-0.011 0.021-0.011 0.032-0.021 0.043c-0.011 0.011-0.021 0.021-0.032 0.043-0.011 0.011-0.021 0.021-0.032 0.043-0.011 0.011-0.021 0.021-0.032 0.032s-0.021 0.021-0.043 0.032c-0.011 0.011-0.032 0.021-0.043 0.021l-0.405 0.235c-0.011 0-0.021 0.011-0.021 0.011-0.011 0.011-0.021 0.011-0.043 0.021-0.011 0.011-0.021 0.011-0.043 0.011-0.011 0-0.021 0.011-0.032 0.011s-0.021 0-0.032 0.011c-0.011 0-0.032 0-0.043 0.011-0.021 0-0.032 0-0.043 0v0c-0.011 0-0.021 0-0.021 0-0.011 0-0.021 0-0.021 0v0c-0.011 0-0.032 0-0.043-0.011-0.011 0-0.032-0.011-0.043-0.011v0c-0.011 0-0.011 0-0.021 0s-0.011 0-0.021-0.011h-0.011c-0.011 0-0.011 0-0.021-0.011-0.011 0-0.011 0-0.021-0.011h-0.011c-0.011 0-0.021-0.011-0.032-0.011s-0.021-0.011-0.021-0.011h-0.011c0 0 0 0-0.011 0 0 0 0 0 0 0l-0.299-0.171c0 0-0.011 0-0.011-0.011 0 0-0.011-0.011-0.011-0.011l-0.011-0.011c-0.011 0-0.011-0.011-0.021-0.011s-0.011-0.011-0.021-0.011l-0.011-0.011c0 0-0.011-0.011-0.011-0.011s-0.011-0.011-0.011-0.011l-0.011-0.011c-0.011-0.011-0.011-0.011-0.021-0.021s-0.011-0.011-0.021-0.021l-0.011-0.011c0 0-0.011-0.011-0.011-0.011s-0.011-0.011-0.011-0.011l-0.011-0.011c-0.011-0.011-0.011-0.011-0.021-0.021s-0.011-0.021-0.021-0.021l-0.011-0.021c0 0 0-0.011-0.011-0.011 0 0 0-0.011-0.011-0.011l-0.011-0.011c0-0.011-0.011-0.021-0.011-0.032s-0.011-0.021-0.011-0.032v-0.011c0-0.011-0.011-0.021-0.011-0.032s-0.011-0.021-0.011-0.021v-0.011c0 0 0-0.011 0-0.011l-4.299 2.432c0 0-0.011 0-0.011 0s-0.011 0-0.011 0.011h-0.011c-0.011 0-0.021 0.011-0.032 0.011s-0.021 0.011-0.032 0.011h-0.011c-0.011 0-0.021 0.011-0.043 0.011-0.011 0-0.021 0.011-0.043 0.011h-0.011c-0.011 0-0.011 0-0.021 0s-0.011 0-0.021 0h-0.011c0 0-0.011 0-0.011 0-0.011 0-0.011 0-0.021 0h-0.011c-0.011 0-0.011 0-0.021 0s-0.011 0-0.021 0h-0.011c-0.011 0-0.011 0-0.021 0s-0.021 0-0.021 0h-0.021c0 0-0.011 0-0.011 0s-0.011 0-0.011 0h-0.021c-0.011 0-0.011 0-0.021 0s-0.011 0-0.021-0.011h-0.011c-0.011 0-0.011 0-0.021-0.011-0.011 0-0.011 0-0.021-0.011l-0.011-0.011c0 0-0.011 0-0.011-0.011 0 0-0.011 0-0.011-0.011l-0.011-0.011c-0.011 0-0.011-0.011-0.021-0.011s-0.011-0.011-0.021-0.011l-0.011-0.011c0 0-0.011 0-0.011-0.011 0 0-0.011 0-0.011-0.011l-0.021-0.011 1.931 8.768c0 0.011 0 0.011 0 0.021s0 0.011 0 0.021v0.011c0 0.011 0 0.021 0 0.032s0 0.021 0 0.032v0c0 0.021 0 0.043 0 0.053 0 0.021 0 0.043-0.011 0.064v0c0 0.021-0.011 0.032-0.011 0.053s-0.011 0.032-0.021 0.053c-0.011 0.021-0.021 0.043-0.032 0.053-0.011 0.021-0.021 0.032-0.032 0.053s-0.032 0.032-0.043 0.053c-0.011 0.011-0.032 0.032-0.053 0.043-0.011 0.011-0.021 0.011-0.032 0.021s-0.021 0.011-0.032 0.021l-0.203 0.117c-0.032 0.021-0.075 0.032-0.117 0.043-0.043 0.043-0.096 0.085-0.16 0.107l-0.011 0.011c-0.032 0.011-0.075 0.021-0.117 0.021-0.064-0.011-0.075-0.011-0.096-0.011zM25.301 23.936l0.128 0.075 0.021-0.011-1.739-7.893-0.373 0.213 1.963 7.616zM17.995 19.637l0.053 0.032 0.053-0.032c0 0 0 0 0 0l0.096-0.053 0.181-0.448-0.267 0.149-0.117 0.352z"></path>
<path class="path4" d="M13.141 31.883c-0.149 0-0.288-0.075-0.373-0.213-0.021-0.032-0.032-0.064-0.043-0.085-0.171 0.043-0.363-0.021-0.469-0.181l-0.011-0.011c0-0.011-0.011-0.011-0.011-0.021s-0.011-0.011-0.011-0.021l-0.021-0.021c0-0.011-0.011-0.021-0.011-0.032s-0.011-0.021-0.011-0.032v-0.011c0-0.011 0-0.011-0.011-0.021 0-0.011 0-0.011-0.011-0.021v-0.011c0 0 0-0.011 0-0.011s0-0.011 0-0.011l-2.592-10.069-0.939-0.555c-0.203-0.117-0.267-0.384-0.149-0.587s0.384-0.267 0.587-0.149l1.088 0.64c0.021 0.011 0.043 0.021 0.053 0.043 0.021 0.021 0.053 0.043 0.075 0.064l0.011 0.011c0 0 0.011 0.011 0.011 0.011s0.011 0.011 0.011 0.011v0c0.011 0.011 0.021 0.021 0.032 0.043 0.011 0.011 0.021 0.032 0.021 0.043 0.011 0.011 0.011 0.021 0.011 0.032s0.011 0.021 0.011 0.032c0 0.011 0.011 0.021 0.011 0.032s0 0.021 0.011 0.032c0 0.011 0.011 0.032 0.011 0.043 0 0.021 0 0.032 0 0.053v0c0 0.011 0 0.021 0 0.032s0 0.011 0 0.021l2.571 9.973c0.021 0.032 0.032 0.053 0.043 0.085l0.117-0.064c0.203-0.117 0.469-0.043 0.587 0.16s0.043 0.469-0.16 0.587l-0.213 0.117c-0.075 0.043-0.149 0.064-0.224 0.064zM5.739 27.541c0 0-0.011 0-0.011 0-0.011 0-0.021 0-0.032 0s-0.021 0-0.032 0v0c-0.011 0-0.011 0-0.021 0s-0.011 0-0.021 0v0c-0.011 0-0.021 0-0.032-0.011-0.011 0-0.021-0.011-0.032-0.011v0c-0.011 0-0.021-0.011-0.032-0.011s-0.021-0.011-0.032-0.011h-0.011c0 0 0 0-0.011 0 0 0-0.011 0-0.011 0l-0.011-0.011c0 0-0.011 0-0.011-0.011 0 0-0.011 0-0.011-0.011l-0.288-0.171c0 0-0.011 0-0.011-0.011 0 0-0.011 0-0.011-0.011l-0.011-0.011c-0.011 0-0.011-0.011-0.021-0.011s-0.011-0.011-0.021-0.011l-0.011-0.011c-0.011 0-0.011-0.011-0.021-0.011s-0.011-0.011-0.021-0.021l-0.011-0.011c-0.011-0.011-0.011-0.011-0.021-0.021s-0.011-0.011-0.021-0.021l-0.011-0.011c0 0-0.011-0.011-0.011-0.011s-0.011-0.011-0.011-0.011l-0.011-0.011c0-0.011-0.011-0.011-0.011-0.021s-0.011-0.011-0.011-0.021l-0.011-0.011c-0.011-0.011-0.011-0.021-0.011-0.021 0-0.011-0.011-0.011-0.011-0.021l-0.011-0.011c0-0.011-0.011-0.011-0.011-0.021s-0.011-0.011-0.011-0.021l-0.011-0.011c0-0.011-0.011-0.021-0.011-0.032s-0.011-0.021-0.011-0.032v-0.011c0-0.011 0-0.021-0.011-0.032 0-0.011 0-0.021 0-0.032v-0.011c0-0.021 0-0.032-0.011-0.053 0-0.021 0-0.032 0-0.053v0c0-0.011 0-0.021 0-0.043 0-0.011 0-0.021 0.011-0.043v0c0-0.011 0-0.021 0.011-0.032 0-0.011 0-0.021 0.011-0.032l2.4-7.467c0.075-0.224 0.309-0.352 0.533-0.277s0.352 0.309 0.277 0.533l-2.336 7.285 0.053 0.032 0.053-0.032c0.203-0.117 0.469-0.043 0.587 0.16s0.043 0.469-0.16 0.587l-0.203 0.117c-0.011 0-0.011 0.011-0.021 0.011-0.011 0.011-0.021 0.011-0.043 0.021-0.011 0.011-0.032 0.011-0.043 0.011s-0.021 0.011-0.043 0.011c-0.011 0-0.021 0.011-0.032 0.011s-0.032 0-0.043 0.011c-0.032-0.011-0.043-0.011-0.053-0.011z"></path>
<path class="path5" d="M23.659 12.8c-0.139 0-0.277-0.053-0.384-0.149l-1.579-1.419c-0.139-0.117-0.213-0.299-0.213-0.48v-1.077l0.011-8.192c0-0.725 0.587-1.312 1.312-1.312h1.813c0.693 0 1.259 0.565 1.259 1.259v9.291c0 0.181-0.075 0.352-0.213 0.469l-1.621 1.461c-0.107 0.096-0.245 0.149-0.384 0.149zM22.336 10.656l1.323 1.184 1.355-1.227v-9.195c0-0.224-0.181-0.405-0.405-0.405h-1.813c-0.245 0-0.459 0.203-0.459 0.459v9.184z"></path>
</symbol>
<symbol id="OD_cloud-download" viewBox="0 0 32 32">
<title>OD_cloud-download</title>
<path class="path1" d="M25.845 26.795h-19.637c-3.296 0-5.973-2.677-5.973-5.973v-0.341c0-2.891 2.048-5.333 4.843-5.867 0.533-5.472 5.141-9.685 10.688-9.685 5.515 0 10.112 4.181 10.677 9.611 1.387 0.139 2.677 0.747 3.659 1.749 1.099 1.12 1.707 2.603 1.707 4.181v0.341c0.011 3.307-2.667 5.984-5.963 5.984zM15.765 6.048c-5.109 0-9.323 3.989-9.611 9.088-0.011 0.277-0.224 0.491-0.501 0.523-2.453 0.277-4.309 2.347-4.309 4.821v0.341c0 2.677 2.176 4.853 4.853 4.853h19.637c2.677 0 4.853-2.176 4.853-4.853v-0.341c0-2.677-2.101-4.8-4.768-4.843-0.288 0-0.533-0.235-0.555-0.523-0.288-5.088-4.512-9.067-9.6-9.067z"></path>
<path class="path2" d="M16.011 22.539c-0.309 0-0.555-0.245-0.555-0.555l-0.011-11.499c0-0.309 0.245-0.565 0.555-0.565 0 0 0 0 0 0 0.309 0 0.555 0.245 0.555 0.555l0.011 11.499c0 0.309-0.245 0.565-0.555 0.565 0 0 0 0 0 0z"></path>
<path class="path3" d="M16.011 22.539c-0.139 0-0.288-0.053-0.395-0.16-0.224-0.213-0.224-0.576 0-0.789l4.779-4.789c0.213-0.224 0.576-0.224 0.789 0 0.224 0.213 0.224 0.576 0 0.789l-4.779 4.789c-0.107 0.107-0.256 0.16-0.395 0.16z"></path>
<path class="path4" d="M16.011 22.539c-0.139 0-0.288-0.053-0.395-0.16l-4.789-4.789c-0.224-0.213-0.224-0.576 0-0.789 0.213-0.224 0.576-0.224 0.789 0l4.789 4.789c0.213 0.213 0.213 0.576 0 0.789-0.107 0.107-0.256 0.16-0.395 0.16z"></path>
</symbol>
<symbol id="OD_play-button" viewBox="0 0 32 32">
<title>OD_play-button</title>
<path class="path1" d="M12.949 27.019h-0.128c-1.429 0-2.603-1.163-2.603-2.603v-16.949c0-1.429 1.163-2.603 2.603-2.603h0.128c0.544 0 1.045 0.149 1.44 0.437 0.011 0.011 0.021 0.011 0.032 0.021l10.901 9.131c0.459 0.384 0.725 0.949 0.725 1.557 0 0.597-0.267 1.173-0.736 1.557l-10.72 8.864c-0.48 0.384-1.045 0.587-1.643 0.587zM12.821 5.995c-0.821 0-1.483 0.661-1.483 1.483v16.949c0 0.821 0.661 1.483 1.483 1.483h0.128c0.427 0 0.736-0.181 0.928-0.341l10.72-8.864c0.203-0.171 0.331-0.427 0.331-0.693s-0.117-0.523-0.32-0.693l-10.901-9.12c-0.192-0.139-0.469-0.213-0.768-0.213h-0.117z"></path>
<path class="path2" d="M15.968 31.36c-8.533 0-15.477-6.944-15.477-15.477s6.933-15.488 15.477-15.488 15.477 6.944 15.477 15.477-6.944 15.488-15.477 15.488zM15.968 1.515c-7.925 0-14.368 6.443-14.368 14.368s6.443 14.357 14.357 14.357 14.357-6.443 14.357-14.357-6.432-14.368-14.347-14.368z"></path>
</symbol>
<symbol id="OD_crowdcube" viewBox="0 0 32 32">
<title>OD_crowdcube</title>
<path class="path1" d="M6.837 23.755h-0.085c-0.053 0-0.107 0-0.16-0.011h-4.107c-0.053 0-0.107 0.011-0.16 0.011h-0.085c-0.992 0-1.813-0.821-1.813-1.824v-4.587c0-0.981 0.789-1.792 1.76-1.824 0.021 0 0.053-0.011 0.075-0.011h4.544c0.032 0 0.053 0 0.085 0.011 0.971 0.032 1.76 0.843 1.76 1.824v4.587c0.011 1.003-0.811 1.824-1.813 1.824zM2.464 22.624h4.16c0.021 0 0.043 0 0.053 0 0.021 0 0.053 0 0.075 0h0.085c0.384 0 0.704-0.32 0.704-0.704v-4.587c0-0.395-0.309-0.704-0.704-0.704h-0.021c-0.021 0-0.053 0-0.075 0h-4.395c-0.021 0-0.053 0-0.075 0h-0.021c-0.395 0-0.704 0.309-0.704 0.704v4.587c0 0.384 0.32 0.704 0.704 0.704h0.085c0.021 0 0.053 0 0.075 0 0.011 0 0.032 0 0.053 0z"></path>
<path class="path2" d="M5.717 14.517h-0.043c-0.032 0-0.064 0-0.096 0h-2.059c-0.032 0-0.064 0-0.096 0h-0.043c-0.661 0-1.205-0.544-1.205-1.205v-2.325c0-0.64 0.512-1.173 1.152-1.205 0.021 0 0.043 0 0.064 0h2.315c0.021 0 0.043 0 0.064 0 0.64 0.032 1.152 0.555 1.152 1.205v2.325c0 0.672-0.533 1.205-1.205 1.205zM3.499 13.397h2.112c0.021 0 0.043 0 0.053 0h0.053c0.043 0 0.085-0.043 0.085-0.085v-2.325c0-0.043-0.032-0.085-0.085-0.085h-0.011c-0.021 0-0.032 0-0.053 0h-2.197c-0.021 0-0.032 0-0.053 0h-0.011c-0.043 0-0.085 0.032-0.085 0.085v2.325c0 0.043 0.043 0.085 0.085 0.085h0.043c0.011 0 0.043 0 0.064 0z"></path>
<path class="path3" d="M29.813 23.765h-0.085c-0.053 0-0.107 0-0.16-0.011h-4.107c-0.053 0-0.107 0.011-0.16 0.011h-0.085c-1.003 0-1.824-0.821-1.824-1.824v-4.587c0-0.981 0.789-1.792 1.76-1.824 0.021 0 0.053-0.011 0.075-0.011h4.544c0.032 0 0.053 0 0.085 0.011 0.971 0.032 1.76 0.832 1.76 1.824v4.587c0.021 1.013-0.8 1.824-1.803 1.824zM25.44 22.645h4.16c0.021 0 0.043 0 0.053 0 0.021 0 0.053 0 0.075 0h0.085c0.384 0 0.704-0.32 0.704-0.704v-4.587c0-0.395-0.309-0.704-0.704-0.704h-0.021c-0.021 0-0.053 0-0.075 0h-4.405c-0.021 0-0.053 0-0.075 0h-0.021c-0.395 0-0.704 0.309-0.704 0.704v4.587c0 0.384 0.32 0.704 0.704 0.704h0.085c0.021 0 0.053 0 0.075 0s0.043 0 0.064 0z"></path>
<path class="path4" d="M28.704 14.645h-0.043c-0.032 0-0.064 0-0.096 0h-2.069c-0.032 0-0.064 0-0.096 0h-0.043c-0.661 0-1.205-0.544-1.205-1.205v-2.325c0-0.64 0.512-1.173 1.152-1.205 0.021 0 0.043 0 0.064 0h2.325c0.021 0 0.043 0 0.064 0 0.64 0.032 1.152 0.555 1.152 1.205v2.325c-0.011 0.661-0.544 1.205-1.205 1.205zM26.475 13.525h2.112c0.021 0 0.043 0 0.064 0h0.053c0.043 0 0.085-0.043 0.085-0.085v-2.325c0-0.043-0.032-0.085-0.085-0.085h-0.011c-0.021 0-0.032 0-0.053 0h-2.208c-0.021 0-0.032 0-0.053 0h-0.011c-0.043 0-0.085 0.032-0.085 0.085v2.325c0 0.043 0.043 0.085 0.085 0.085h0.043c0.021 0 0.043 0 0.064 0z"></path>
<path class="path5" d="M19.275 23.819h-0.117c-0.075 0-0.139 0-0.213-0.011h-5.803c-0.075 0.011-0.149 0.011-0.213 0.011h-0.117c-1.291 0-2.336-1.045-2.336-2.336v-6.453c0-1.269 1.013-2.304 2.283-2.336 0.032 0 0.064-0.011 0.096-0.011h6.4c0.032 0 0.064 0 0.096 0.011 1.259 0.032 2.272 1.067 2.272 2.336v6.453c-0.011 1.291-1.056 2.336-2.347 2.336zM13.109 22.688h5.856c0.021 0 0.043 0 0.053 0 0.043 0 0.085 0.011 0.128 0.011h0.117c0.672 0 1.216-0.544 1.216-1.216v-6.453c0-0.672-0.544-1.216-1.216-1.216h-0.021c-0.032 0-0.064 0-0.085-0.011h-6.229c-0.032 0-0.053 0.011-0.085 0.011h-0.032c-0.672 0-1.216 0.544-1.216 1.216v6.453c0 0.672 0.544 1.216 1.216 1.216h0.117c0.043 0 0.085 0 0.128-0.011 0.011 0 0.032 0 0.053 0z"></path>
<path class="path6" d="M17.707 11.648h-0.053c-0.043 0-0.085 0-0.117 0h-2.933c-0.043 0-0.085 0-0.117 0h-0.053c-0.811 0-1.461-0.661-1.461-1.461v-3.285c0-0.789 0.629-1.429 1.408-1.461 0.021 0 0.043 0 0.075 0h3.253c0.021 0 0.053 0 0.075 0 0.779 0.032 1.408 0.672 1.408 1.461v3.285c-0.021 0.8-0.683 1.461-1.483 1.461zM14.571 10.517h2.976c0.021 0 0.043 0 0.053 0s0.021 0 0.032 0h0.053c0.192 0 0.341-0.149 0.341-0.341v-3.275c0-0.192-0.149-0.341-0.341-0.341h-0.011c-0.021 0-0.043 0-0.064 0h-3.136c-0.021 0-0.043 0-0.064 0h-0.011c-0.192 0-0.341 0.149-0.341 0.341v3.285c0 0.192 0.149 0.341 0.341 0.341h0.053c0.011 0 0.021 0 0.032 0 0.043-0.011 0.064-0.011 0.085-0.011z"></path>
</symbol>
<symbol id="OD_piggy-bank" viewBox="0 0 32 32">
<title>OD_piggy-bank</title>
<path class="path1" d="M19.040 14.272c-0.043 0-0.085 0-0.117-0.011-0.651-0.149-1.333-0.224-2.005-0.224-0.587 0-1.184 0.053-1.749 0.16-0.309 0.053-0.597-0.139-0.651-0.448s0.139-0.597 0.448-0.651c0.64-0.117 1.301-0.181 1.963-0.181 0.757 0 1.515 0.085 2.251 0.245 0.299 0.064 0.491 0.363 0.427 0.672-0.085 0.256-0.309 0.437-0.565 0.437z"></path>
<path class="path2" d="M18.592 14.123c0 0 0 0 0 0-0.309 0-0.565-0.256-0.555-0.565 0-0.533-0.437-0.971-0.971-0.971 0 0 0 0 0 0-0.256 0-0.501 0.096-0.683 0.288-0.181 0.181-0.288 0.427-0.288 0.683 0 0.309-0.256 0.555-0.555 0.555 0 0 0 0 0 0-0.309 0-0.555-0.256-0.555-0.565 0-0.555 0.224-1.088 0.619-1.483s0.917-0.608 1.472-0.608c0 0 0 0 0 0 1.152 0 2.091 0.939 2.091 2.091-0.011 0.331-0.267 0.576-0.576 0.576z"></path>
<path class="path3" d="M11.392 15.616c0 0.235 0.203 0.416 0.448 0.416s0.448-0.181 0.448-0.416c0-0.235-0.203-0.416-0.448-0.416s-0.448 0.181-0.448 0.416v0z"></path>
<path class="path4" d="M23.2 31.883h-0.107c-1.067 0-1.952-0.747-2.187-1.739-1.195 0.459-2.453 0.683-3.744 0.683-1.141 0-2.261-0.181-3.328-0.544-0.277 0.928-1.131 1.6-2.155 1.6h-0.107c-1.237 0-2.24-1.003-2.24-2.24v-2.357c-1.429-1.621-2.325-3.659-2.549-5.803l-0.565-0.256c-0.768-0.352-1.344-0.981-1.643-1.771-0.288-0.789-0.256-1.643 0.085-2.411l0.064-0.149c0.011-0.011 0.011-0.021 0.021-0.032l0.832-1.781c0.672-1.451 2.315-2.155 3.808-1.685 1.984-2.219 4.8-3.477 7.787-3.477 0.011 0 0.011 0 0.021 0 5.771 0.011 10.453 4.715 10.443 10.485 0 2.315-0.789 4.576-2.208 6.4v2.848c0.011 1.227-0.992 2.229-2.229 2.229zM21.408 28.768c0.107 0 0.213 0.032 0.299 0.085 0.16 0.107 0.256 0.277 0.256 0.469v0.309c0 0.619 0.501 1.12 1.12 1.12h0.107c0.619 0 1.12-0.501 1.12-1.12v-3.051c0-0.128 0.043-0.256 0.128-0.352 1.355-1.675 2.080-3.701 2.080-5.856 0.011-5.152-4.171-9.355-9.323-9.365v0c-0.011 0-0.011 0-0.021 0-2.752 0-5.344 1.205-7.125 3.296-0.064 0.107-0.149 0.192-0.267 0.235-0.149 0.064-0.309 0.064-0.459 0l-0.043-0.021c-1.013-0.469-2.229-0.021-2.688 1.003l-0.843 1.792c0 0.011-0.011 0.021-0.011 0.032l-0.064 0.139c-0.224 0.491-0.245 1.045-0.053 1.547 0.192 0.512 0.565 0.917 1.056 1.141l0.864 0.395c0.181 0.085 0.309 0.267 0.32 0.469 0.149 2.091 1.013 4.085 2.432 5.632 0.096 0.107 0.149 0.235 0.149 0.384v2.571c0 0.619 0.501 1.12 1.12 1.12h0.107c0.619 0 1.12-0.501 1.12-1.12v-0.139c0-0.192 0.096-0.363 0.245-0.469 0.16-0.107 0.352-0.128 0.523-0.053 1.141 0.48 2.336 0.715 3.584 0.715 0.011 0 0.011 0 0.021 0 1.387 0 2.731-0.299 3.979-0.885 0.096 0 0.181-0.021 0.267-0.021z"></path>
<path class="path5" d="M15.723 4.299c0 0 0 0 0 0-0.565 0-1.088-0.224-1.483-0.619s-0.608-0.917-0.608-1.483c0-0.555 0.224-1.088 0.619-1.483s0.917-0.608 1.472-0.608c0 0 0 0 0 0 0.555 0 1.088 0.224 1.483 0.619s0.608 0.917 0.608 1.483c0 1.152-0.939 2.091-2.091 2.091zM15.723 1.237c-0.256 0-0.501 0.096-0.683 0.288-0.181 0.181-0.288 0.427-0.288 0.683v0c0 0.256 0.096 0.501 0.288 0.683 0.181 0.181 0.427 0.288 0.683 0.288 0 0 0 0 0 0 0.533 0 0.971-0.437 0.971-0.971 0-0.256-0.096-0.501-0.288-0.683-0.181-0.192-0.416-0.288-0.683-0.288 0 0 0 0 0 0zM14.187 2.208v0 0z"></path>
<path class="path6" d="M18.891 8.981c0 0 0 0 0 0-0.565 0-1.088-0.224-1.483-0.619s-0.608-0.917-0.608-1.483v0c0-0.555 0.224-1.088 0.619-1.483s0.917-0.608 1.472-0.608c0 0 0 0 0 0 0.555 0 1.088 0.224 1.483 0.619s0.608 0.917 0.608 1.483c0 0.555-0.224 1.088-0.619 1.483s-0.917 0.608-1.472 0.608zM18.891 5.92c-0.256 0-0.501 0.096-0.683 0.288-0.181 0.181-0.288 0.427-0.288 0.683 0 0 0 0 0 0 0 0.256 0.096 0.501 0.288 0.683 0.181 0.181 0.427 0.288 0.683 0.288 0 0 0 0 0 0 0.256 0 0.501-0.096 0.683-0.288 0.181-0.181 0.288-0.427 0.288-0.683s-0.096-0.501-0.288-0.683c-0.181-0.181-0.427-0.288-0.683-0.288 0 0 0 0 0 0zM17.355 6.891v0 0z"></path>
</symbol>
<symbol id="OD_timer" viewBox="0 0 32 32">
<title>OD_timer</title>
<path class="path1" d="M14.912 31.584c-0.011 0-0.021 0-0.032 0-7.104-0.011-12.885-5.803-12.864-12.917v0c0.011-7.104 5.792-12.875 12.896-12.875 0.011 0 0.021 0 0.032 0 3.445 0.011 6.677 1.355 9.109 3.797s3.765 5.685 3.755 9.131c-0.011 3.445-1.355 6.677-3.797 9.109-2.432 2.421-5.664 3.755-9.099 3.755zM3.136 18.667c-0.011 6.496 5.259 11.787 11.755 11.797 0.011 0 0.021 0 0.021 0 3.136 0 6.091-1.216 8.309-3.435 2.229-2.219 3.456-5.173 3.467-8.32s-1.216-6.101-3.435-8.331c-2.219-2.229-5.173-3.456-8.32-3.467-0.011 0-0.021 0-0.021 0-6.485 0-11.765 5.269-11.776 11.755v0z"></path>
<path class="path2" d="M14.933 21.28c-1.035 0-2.005-0.629-2.411-1.611-0.469-1.152-0.064-2.485 0.981-3.168 0.021-0.021 0.053-0.032 0.075-0.043l4.363-1.941c0.277-0.117 0.587-0.064 0.8 0.139s0.288 0.523 0.181 0.8l-1.675 4.405c-0.011 0.043-0.032 0.085-0.064 0.117-0.384 0.672-1.045 1.141-1.824 1.28-0.139 0.011-0.288 0.021-0.427 0.021zM14.080 17.461c-0.565 0.395-0.789 1.141-0.523 1.781 0.256 0.629 0.949 1.013 1.611 0.896 0.448-0.075 0.832-0.352 1.045-0.736l1.333-3.488-3.467 1.547z"></path>
<path class="path3" d="M14.325 9.397c0 0.32 0.267 0.576 0.608 0.576s0.608-0.256 0.608-0.576-0.267-0.576-0.608-0.576-0.608 0.267-0.608 0.576v0z"></path>
<path class="path4" d="M17.579 4.661h-5.216c-0.811 0-1.461-0.661-1.461-1.461v-1.333c0-0.811 0.661-1.461 1.461-1.461h5.216c0.811 0 1.461 0.661 1.461 1.461v1.333c0.011 0.811-0.651 1.461-1.461 1.461zM12.363 1.515c-0.192 0-0.341 0.149-0.341 0.341v1.344c0 0.192 0.149 0.341 0.341 0.341h5.216c0.192 0 0.341-0.149 0.341-0.341v-1.333c0-0.192-0.149-0.341-0.341-0.341h-5.216z"></path>
<path class="path5" d="M14.933 6.912c-0.309 0-0.555-0.256-0.555-0.555v-2.251c0-0.309 0.256-0.555 0.555-0.555s0.555 0.256 0.555 0.555v2.251c0.011 0.309-0.245 0.555-0.555 0.555z"></path>
<path class="path6" d="M27.499 10.891c-0.395 0-0.8-0.16-1.088-0.48v0l-3.509-3.861c-0.267-0.288-0.395-0.661-0.373-1.056s0.192-0.747 0.48-1.013l0.992-0.896c0.597-0.544 1.525-0.501 2.069 0.096l3.509 3.861c0.267 0.288 0.395 0.661 0.373 1.056s-0.192 0.747-0.48 1.013l-0.992 0.896c-0.277 0.256-0.629 0.384-0.981 0.384zM27.253 9.664c0.128 0.139 0.341 0.149 0.48 0.021l0.992-0.896c0.139-0.128 0.149-0.341 0.021-0.48l-3.509-3.861c-0.128-0.139-0.341-0.149-0.48-0.021l-0.992 0.896c-0.064 0.064-0.107 0.149-0.107 0.235 0 0.096 0.032 0.181 0.085 0.245l3.509 3.861z"></path>
<path class="path7" d="M7.819 12.107c0 0.32 0.267 0.576 0.608 0.576s0.608-0.256 0.608-0.576-0.267-0.576-0.608-0.576c-0.341 0-0.608 0.256-0.608 0.576v0z"></path>
<path class="path8" d="M5.109 18.784c0 0.32 0.267 0.576 0.608 0.576s0.608-0.256 0.608-0.576c0-0.32-0.267-0.576-0.608-0.576-0.331 0.011-0.608 0.267-0.608 0.576v0z"></path>
<path class="path9" d="M7.712 25.077c0 0.32 0.267 0.576 0.608 0.576s0.608-0.256 0.608-0.576-0.267-0.576-0.608-0.576c-0.341 0.011-0.608 0.267-0.608 0.576v0z"></path>
<path class="path10" d="M14.325 27.712c0 0.32 0.267 0.576 0.608 0.576s0.608-0.256 0.608-0.576c0-0.32-0.267-0.576-0.608-0.576s-0.608 0.256-0.608 0.576v0z"></path>
<path class="path11" d="M20.939 25.152c0 0.32 0.267 0.576 0.608 0.576s0.608-0.256 0.608-0.576-0.267-0.576-0.608-0.576-0.608 0.256-0.608 0.576v0z"></path>
<path class="path12" d="M23.456 18.784c0 0.32 0.267 0.576 0.608 0.576s0.608-0.256 0.608-0.576c0-0.32-0.267-0.576-0.608-0.576-0.331 0.011-0.608 0.267-0.608 0.576v0z"></path>
<path class="path13" d="M20.725 12.139c0 0.32 0.267 0.576 0.608 0.576s0.608-0.256 0.608-0.576-0.267-0.576-0.608-0.576c-0.341 0-0.608 0.256-0.608 0.576v0z"></path>
</symbol>
<symbol id="OD_video-camera" viewBox="0 0 32 32">
<title>OD_video-camera</title>
<path class="path1" d="M6.965 14.955c-2.496 0-4.533-2.037-4.533-4.533s2.037-4.533 4.533-4.533 4.533 2.037 4.533 4.533-2.037 4.533-4.533 4.533zM6.965 7.008c-1.877 0-3.413 1.536-3.413 3.413s1.536 3.413 3.413 3.413 3.413-1.536 3.413-3.413-1.536-3.413-3.413-3.413z"></path>
<path class="path2" d="M16.64 14.933c-3.339 0-6.059-2.72-6.059-6.059s2.72-6.059 6.059-6.059c3.339 0 6.059 2.72 6.059 6.059s-2.72 6.059-6.059 6.059zM16.64 3.925c-2.72 0-4.939 2.219-4.939 4.939s2.219 4.939 4.939 4.939 4.939-2.219 4.939-4.939-2.208-4.939-4.939-4.939z"></path>
<path class="path3" d="M19.797 29.003h-17.493c-1.013 0-1.835-0.821-1.835-1.835v-11.040c0-1.013 0.821-1.835 1.835-1.835h17.493c1.013 0 1.835 0.821 1.835 1.835v11.040c0 1.013-0.821 1.835-1.835 1.835zM2.304 15.403c-0.395 0-0.715 0.32-0.715 0.715v11.040c0 0.395 0.32 0.715 0.715 0.715h17.493c0.395 0 0.715-0.32 0.715-0.715v-11.029c0-0.395-0.32-0.715-0.715-0.715h-17.493z"></path>
<path class="path4" d="M29.195 29.024h-0.128c-0.629 0-1.173-0.192-1.621-0.565-0.011-0.011-0.021-0.021-0.032-0.032l-5.941-5.888c-0.235-0.235-0.363-0.544-0.363-0.864v-0.053c0-0.501 0.288-0.8 0.565-1.088l0.032-0.043c0 0 0-0.011 0.011-0.011l5.333-5.269c0.619-0.629 1.312-0.96 2.005-0.96h0.128c1.408 0 2.56 1.12 2.56 2.507v9.749c0.011 1.397-1.141 2.517-2.549 2.517zM28.181 27.616c0.245 0.192 0.533 0.288 0.885 0.288h0.128c0.8 0 1.44-0.619 1.44-1.387v-9.749c0-0.768-0.651-1.387-1.44-1.387h-0.128c-0.395 0-0.811 0.213-1.216 0.629 0 0 0 0.011-0.011 0.011l-5.365 5.301c-0.171 0.181-0.256 0.267-0.256 0.309v0.053c0 0.011 0 0.032 0.032 0.064l5.931 5.867z"></path>
</symbol>
<symbol id="OD_account_nav-bar" viewBox="0 0 32 32">
<title>OD_account_nav-bar</title>
<path class="path1" d="M1.194 15.992c0-8.172 6.625-14.797 14.797-14.797s14.797 6.625 14.797 14.797-6.625 14.797-14.797 14.797c-8.172 0-14.797-6.625-14.797-14.797v0zM0.040 15.992c0 8.81 7.142 15.951 15.951 15.951s15.951-7.142 15.951-15.951c0-8.81-7.142-15.951-15.951-15.951s-15.951 7.142-15.951 15.951v0z"></path>
<path class="path2" d="M16.111 16.555c-3.512 0-10.536 1.774-10.536 5.288 0 2.081 1.671 3.787 3.785 3.787h13.571c2.080 0 3.785-1.672 3.785-3.787-0.068-3.514-7.092-5.288-10.604-5.288zM16.111 17.919c3.528 0 9.178 1.801 9.24 3.937-0.008 1.329-1.091 2.408-2.421 2.408h-13.571c-1.335 0-2.421-1.087-2.421-2.422 0-2.128 5.634-3.923 9.172-3.923z"></path>
<path class="path3" d="M16.142 5.828c-2.757 0-4.936 2.43-4.464 5.269 0.273 1.944 1.841 3.48 3.751 3.752 0.232 0.033 0.46 0.050 0.685 0.050 2.753 0 4.906-2.43 4.464-5.269-0.307-1.91-1.841-3.445-3.751-3.752-0.231-0.033-0.46-0.049-0.685-0.049zM16.142 7.192c0.158 0 0.32 0.012 0.479 0.034 1.324 0.218 2.397 1.294 2.609 2.613 0.149 0.959-0.105 1.881-0.717 2.595-0.598 0.699-1.473 1.099-2.4 1.099-0.161 0-0.326-0.012-0.492-0.036-1.318-0.189-2.409-1.278-2.593-2.591l-0.005-0.035c-0.157-0.942 0.088-1.851 0.689-2.561 0.602-0.711 1.488-1.119 2.429-1.119z"></path>
</symbol>
<symbol id="OD_logo-text" viewBox="0 0 125 32">
<title>OD_logo-text</title>
<path class="path1" d="M10.063 12.942c0-2.011-1.645-3.646-3.592-3.646h-0.336c-1.947 0-3.592 1.636-3.592 3.646v6.202c0 1.976 1.645 3.646 3.592 3.646h0.336c1.947 0 3.592-1.67 3.592-3.646v-6.202zM6.471 24.461h-0.336c-2.887 0-5.237-2.386-5.237-5.316v-6.202c0-2.965 2.35-5.316 5.237-5.316h0.336c2.887 0 5.236 2.352 5.236 5.316v6.202c0 2.93-2.349 5.316-5.236 5.316v0z"></path>
<path class="path2" d="M26.247 12.909c0-1.977-1.578-3.613-3.558-3.613h-0.302c-1.981 0-3.592 1.738-3.592 3.714v6.066c0 2.010 1.578 3.714 3.592 3.714h0.302c1.98 0 3.558-1.602 3.558-3.612v-6.27zM22.689 24.461h-0.302c-1.377 0-2.954-0.682-3.592-1.67v7.974c0 0.579-0.436 0.852-0.84 0.852s-0.839-0.273-0.839-0.852v-22.286c0-0.58 0.436-0.852 0.839-0.852s0.84 0.273 0.84 0.852v0.818c0.638-0.886 2.215-1.67 3.592-1.67h0.302c2.921 0 5.236 2.386 5.236 5.316v6.202c0 2.964-2.35 5.316-5.236 5.316v0z"></path>
<path class="path3" d="M42.162 12.942c0-2.011-1.679-3.646-3.559-3.646h-0.336c-1.981 0-3.626 1.636-3.626 3.646v2.249h7.52v-2.249zM42.968 16.895h-8.325v2.249c0 1.976 1.645 3.646 3.592 3.646h0.336c1.544 0 2.854-1.022 3.323-2.454 0.134-0.409 0.436-0.579 0.772-0.579 0.436 0 0.907 0.306 0.907 0.818 0 0.102-0.035 0.204-0.068 0.307-0.705 2.113-2.651 3.578-4.934 3.578h-0.336c-2.887 0-5.237-2.386-5.237-5.316v-6.202c0-2.93 2.35-5.316 5.204-5.316h0.336c2.92 0 5.27 2.249 5.27 5.316v3.101c0 0.443-0.403 0.852-0.839 0.852v0z"></path>
<path class="path4" d="M58.85 24.461c-0.403 0-0.839-0.273-0.839-0.852v-10.7c0-2.011-1.578-3.613-3.559-3.613h-0.302c-2.014 0-3.592 1.704-3.592 3.714v10.598c0 0.579-0.436 0.852-0.84 0.852s-0.839-0.273-0.839-0.852v-15.13c0-0.58 0.436-0.852 0.839-0.852s0.84 0.273 0.84 0.852v0.818c0.638-0.988 2.215-1.67 3.592-1.67h0.302c2.887 0 5.236 2.352 5.236 5.316v10.666c0 0.579-0.436 0.852-0.839 0.852z"></path>
<path class="path5" d="M73.893 13.010c0-2.010-1.578-3.714-3.592-3.714h-0.302c-1.981 0-3.559 1.602-3.559 3.612v6.27c0 1.976 1.578 3.612 3.559 3.612h0.302c1.98 0 3.592-1.738 3.592-3.714v-6.066zM74.731 24.461c-0.403 0-0.839-0.273-0.839-0.852v-0.818c-0.638 0.886-2.216 1.67-3.592 1.67h-0.302c-2.921 0-5.237-2.386-5.237-5.316v-6.202c0-2.965 2.35-5.316 5.237-5.316h0.302c1.376 0 2.954 0.682 3.592 1.67v-7.94c0-0.58 0.436-0.852 0.839-0.852s0.839 0.272 0.839 0.852v22.253c0 0.579-0.436 0.852-0.839 0.852v0z"></path>
<path class="path6" d="M90.781 12.942c0-2.011-1.679-3.646-3.559-3.646h-0.336c-1.981 0-3.626 1.636-3.626 3.646v2.249h7.52v-2.249zM91.587 16.895h-8.325v2.249c0 1.976 1.645 3.646 3.592 3.646h0.336c1.544 0 2.854-1.022 3.323-2.454 0.134-0.409 0.436-0.579 0.772-0.579 0.436 0 0.907 0.306 0.907 0.818 0 0.102-0.035 0.204-0.068 0.307-0.705 2.113-2.651 3.578-4.934 3.578h-0.336c-2.887 0-5.237-2.386-5.237-5.316v-6.202c0-2.93 2.35-5.316 5.204-5.316h0.336c2.921 0 5.27 2.249 5.27 5.316v3.101c0 0.443-0.403 0.852-0.839 0.852v0z"></path>
<path class="path7" d="M102.333 24.461h-0.604c-2.048 0-4.331-1.329-5.304-3.374-0.033-0.136-0.1-0.272-0.1-0.375 0-0.477 0.47-0.852 0.906-0.852 0.303 0 0.605 0.17 0.739 0.511 0.671 1.431 2.35 2.419 3.76 2.419h0.604c2.282 0 3.793-1.499 3.793-3.17 0-5.52-9.097-1.601-9.097-7.906v-0.17c0-2.249 2.216-3.919 5.103-3.919h0.067c2.82 0 4.733 1.431 4.733 2.215 0 0.444-0.369 0.853-0.805 0.853-0.168 0-0.369-0.068-0.57-0.239-0.873-0.818-1.88-1.159-3.357-1.159h-0.168c-1.377 0-3.358 0.682-3.358 2.283v0.136c0 4.362 9.131 0.955 9.131 7.906 0 3.374-3.122 4.84-5.472 4.84z"></path>
<path class="path8" d="M123.887 9.091l-4.901 5.282 4.968 8.792c0.101 0.17 0.135 0.307 0.135 0.443 0 0.477-0.437 0.852-0.907 0.852-0.269 0-0.537-0.137-0.705-0.444l-4.7-8.315-3.022 3.237v4.669c0 0.579-0.403 0.852-0.805 0.852-0.436 0-0.839-0.273-0.839-0.852v-22.253c0-0.58 0.403-0.852 0.839-0.852 0.403 0 0.805 0.272 0.805 0.852v15.062l7.889-8.519c0.202-0.205 0.404-0.273 0.604-0.273 0.47 0 0.873 0.409 0.873 0.886 0 0.17-0.033 0.375-0.235 0.579z"></path>
</symbol>
<symbol id="OD_price-tag-in-circle_nav-bar" viewBox="0 0 32 32">
<title>OD_price-tag-in-circle_nav-bar</title>
<path class="path1" d="M24.756 8.549c-0.29 0.295-0.575 0.585-0.851 0.865l0.274 0.27c0.086 0.086 0.632 0.633 0.632 0.633l-0.008 5.449-10.683 10.683-8.527-8.53 10.683-10.678h5.449l0.841 0.841 0.865-0.869-1.026-1.019c-0.113-0.116-0.269-0.187-0.431-0.187h-5.955c-0.019 0-0.039 0.005-0.058 0.007-0.142 0.015-0.274 0.083-0.373 0.186l-11.28 11.282c-0.235 0.236-0.235 0.619 0 0.855l9.389 9.389c0.236 0.235 0.618 0.235 0.854 0l11.288-11.28c0.113-0.115 0.176-0.27 0.174-0.431l0.008-5.947c-0.001-0.163-0.066-0.318-0.183-0.431l-1.084-1.088z"></path>
<path class="path2" d="M15.988 30.843c-8.191 0-14.831-6.64-14.831-14.831s6.64-14.831 14.831-14.831c3.869 0 7.391 1.482 10.032 3.909l-6.4 6.47c-0.253 0.219-0.28 0.602-0.061 0.854s0.622 0.296 0.854 0.061c0.128-0.13 3.477-3.535 6.444-6.552 2.458 2.647 3.961 6.192 3.961 10.088 0 8.19-6.64 14.831-14.83 14.831zM15.988 0.025c-8.83 0-15.988 7.158-15.988 15.988s7.158 15.988 15.988 15.988 15.988-7.158 15.988-15.988c0-8.83-7.158-15.988-15.988-15.988z"></path>
<path class="path3" d="M20.263 10.423c-0.097-0.017-0.197-0.027-0.298-0.027-0.926 0-1.68 0.754-1.68 1.68s0.754 1.68 1.68 1.68c0.926 0 1.68-0.754 1.68-1.68 0-0.113-0.011-0.224-0.033-0.331l0.949-0.965c0.196 0.39 0.306 0.831 0.306 1.297 0 1.601-1.302 2.903-2.903 2.903s-2.903-1.302-2.903-2.903 1.302-2.903 2.903-2.903c0.448 0 0.873 0.102 1.252 0.284l-0.954 0.965z"></path>
<path class="path4" d="M8.845 19.292c-0.139 0-0.279-0.053-0.385-0.16-0.212-0.213-0.212-0.557 0.001-0.77l5.547-5.539c0.213-0.212 0.557-0.212 0.77 0.001s0.212 0.557-0.001 0.77l-5.547 5.539c-0.106 0.106-0.245 0.159-0.385 0.159z"></path>
<path class="path5" d="M10.514 20.961c-0.139 0-0.279-0.053-0.385-0.16-0.212-0.213-0.212-0.557 0.001-0.77l5.546-5.539c0.213-0.212 0.557-0.212 0.77 0.001s0.212 0.557-0 0.77l-5.546 5.539c-0.106 0.106-0.245 0.159-0.385 0.159z"></path>
<path class="path6" d="M13.343 23.792c-0.139 0-0.279-0.053-0.385-0.16-0.212-0.213-0.212-0.557 0.001-0.77l4.036-4.031c0.213-0.212 0.557-0.212 0.77 0s0.212 0.557-0 0.77l-4.036 4.031c-0.106 0.106-0.245 0.159-0.385 0.159z"></path>
</symbol>
<symbol id="OD_logo-image" viewBox="0 0 31 32">
<title>OD_logo-image</title>
<path class="path1" d="M1.123 15.75c0-8.069 6.444-14.61 14.392-14.61s14.392 6.542 14.392 14.61-6.444 14.61-14.392 14.61c-7.949 0-14.392-6.542-14.392-14.61v0zM0 15.75c0 8.698 6.947 15.75 15.515 15.75s15.515-7.052 15.515-15.75c0-8.698-6.947-15.75-15.515-15.75s-15.515 7.052-15.515 15.75v0z"></path>
<path class="path2" d="M24.017 10.611l-11.219-4.585c-0.213-0.087-0.456-0.033-0.613 0.137l-5.517 5.957c-0.097 0.105-0.151 0.243-0.151 0.387v8.328c0 0.312 0.249 0.565 0.557 0.565 0.154 0 0.3-0.065 0.405-0.178l5.335-5.761 4.922 2.012v7.947c0 0.312 0.249 0.565 0.557 0.565 0.154 0 0.3-0.064 0.405-0.178l5.517-5.958c0.097-0.105 0.151-0.243 0.151-0.387v-8.328c0-0.231-0.138-0.438-0.349-0.524v0zM7.63 19.41v-6.065l4.074 1.665-4.074 4.4zM18.148 16.424l-10.111-4.132 4.699-5.073 10.11 4.132-4.698 5.073zM23.253 19.239l-4.404 4.755v-6.678l4.404-4.755v6.678z"></path>
</symbol>
<symbol id="icon-link" viewBox="0 0 24 24">
<title>icon-link</title>
<path class="path1" d="M17.016 6.984c2.766 0 4.969 2.25 4.969 5.016s-2.203 5.016-4.969 5.016h-4.031v-1.922h4.031c1.688 0 3.094-1.406 3.094-3.094s-1.406-3.094-3.094-3.094h-4.031v-1.922h4.031zM8.016 12.984v-1.969h7.969v1.969h-7.969zM3.891 12c0 1.688 1.406 3.094 3.094 3.094h4.031v1.922h-4.031c-2.766 0-4.969-2.25-4.969-5.016s2.203-5.016 4.969-5.016h4.031v1.922h-4.031c-1.688 0-3.094 1.406-3.094 3.094z"></path>
</symbol>
<symbol id="icon-aspect_ratio" viewBox="0 0 24 24">
<title>icon-aspect_ratio</title>
<path class="path1" d="M21 19.031v-14.063h-18v14.063h18zM21 3c1.078 0 2.016 0.938 2.016 2.016v13.969c0 1.078-0.938 2.016-2.016 2.016h-18c-1.078 0-2.016-0.938-2.016-2.016v-13.969c0-1.078 0.938-2.016 2.016-2.016h18zM6.984 9v3h-1.969v-5.016h4.969v2.016h-3zM18.984 12v5.016h-4.969v-2.016h3v-3h1.969z"></path>
</symbol>
<symbol id="icon-zoom_out_map" viewBox="0 0 24 24">
<title>icon-zoom_out_map</title>
<path class="path1" d="M21 15v6h-6l2.297-2.297-2.906-2.859 1.453-1.453 2.859 2.906zM9 21h-6v-6l2.297 2.297 2.859-2.906 1.453 1.453-2.906 2.859zM3 9v-6h6l-2.297 2.297 2.906 2.859-1.453 1.453-2.859-2.906zM15 3h6v6l-2.297-2.297-2.859 2.906-1.453-1.453 2.906-2.859z"></path>
</symbol>
<symbol id="icon-arrow_forward" viewBox="0 0 24 24">
<title>icon-arrow_forward</title>
<path class="path1" d="M12 3.984l8.016 8.016-8.016 8.016-1.406-1.406 5.578-5.625h-12.188v-1.969h12.188l-5.578-5.625z"></path>
</symbol>
<symbol id="icon-play_circle_outline" viewBox="0 0 24 24">
<title>icon-play_circle_outline</title>
<path class="path1" d="M12 20.016q3.281 0 5.648-2.367t2.367-5.648-2.367-5.648-5.648-2.367-5.648 2.367-2.367 5.648 2.367 5.648 5.648 2.367zM12 2.016q4.125 0 7.055 2.93t2.93 7.055-2.93 7.055-7.055 2.93-7.055-2.93-2.93-7.055 2.93-7.055 7.055-2.93zM9.984 16.5v-9l6 4.5z"></path>
</symbol>
<symbol id="icon-videocam" viewBox="0 0 24 24">
<title>icon-videocam</title>
<path class="path1" d="M17.016 10.5l3.984-3.984v10.969l-3.984-3.984v3.516q0 0.422-0.305 0.703t-0.727 0.281h-12q-0.422 0-0.703-0.281t-0.281-0.703v-10.031q0-0.422 0.281-0.703t0.703-0.281h12q0.422 0 0.727 0.281t0.305 0.703v3.516z"></path>
</symbol>
<symbol id="icon-file_download" viewBox="0 0 24 24">
<title>icon-file_download</title>
<path class="path1" d="M5.016 18h13.969v2.016h-13.969v-2.016zM18.984 9l-6.984 6.984-6.984-6.984h3.984v-6h6v6h3.984z"></path>
</symbol>
<symbol id="icon-timer" viewBox="0 0 24 24">
<title>icon-timer</title>
<path class="path1" d="M12 20.016q2.906 0 4.945-2.063t2.039-4.969-2.039-4.945-4.945-2.039-4.945 2.039-2.039 4.945 2.039 4.969 4.945 2.063zM19.031 7.406q1.969 2.484 1.969 5.578 0 3.703-2.625 6.352t-6.375 2.648-6.375-2.648-2.625-6.352 2.625-6.352 6.375-2.648q3.047 0 5.625 2.016l1.406-1.453q0.75 0.609 1.406 1.406zM11.016 14.016v-6h1.969v6h-1.969zM15 0.984v2.016h-6v-2.016h6z"></path>
</symbol>
<symbol id="icon-person_outline" viewBox="0 0 24 24">
<title>icon-person_outline</title>
<path class="path1" d="M12 12.984q1.5 0 3.281 0.422t3.258 1.406 1.477 2.203v3h-16.031v-3q0-1.219 1.477-2.203t3.258-1.406 3.281-0.422zM12 3.984q1.641 0 2.813 1.195t1.172 2.836-1.172 2.813-2.813 1.172-2.813-1.172-1.172-2.813 1.172-2.836 2.813-1.195zM12 14.906q-2.063 0-4.078 0.773t-2.016 1.336v1.078h12.188v-1.078q0-0.563-2.016-1.336t-4.078-0.773zM12 5.906q-0.891 0-1.5 0.609t-0.609 1.5 0.609 1.477 1.5 0.586 1.5-0.586 0.609-1.477-0.609-1.5-1.5-0.609z"></path>
</symbol>
<symbol id="icon-share" viewBox="0 0 24 24">
<title>icon-share</title>
<path class="path1" d="M18 16.078q1.219 0 2.063 0.867t0.844 2.039q0 1.219-0.867 2.086t-2.039 0.867-2.039-0.867-0.867-2.086q0-0.469 0.047-0.656l-7.078-4.125q-0.891 0.797-2.063 0.797-1.219 0-2.109-0.891t-0.891-2.109 0.891-2.109 2.109-0.891q1.172 0 2.063 0.797l7.031-4.078q-0.094-0.469-0.094-0.703 0-1.219 0.891-2.109t2.109-0.891 2.109 0.891 0.891 2.109-0.891 2.109-2.109 0.891q-1.125 0-2.063-0.844l-7.031 4.125q0.094 0.469 0.094 0.703t-0.094 0.703l7.125 4.125q0.844-0.75 1.969-0.75z"></path>
</symbol>
<symbol id="icon-check_circle" viewBox="0 0 24 24">
<title>icon-check_circle</title>
<path class="path1" d="M9.984 17.016l9-9-1.406-1.453-7.594 7.594-3.563-3.563-1.406 1.406zM12 2.016q4.125 0 7.055 2.93t2.93 7.055-2.93 7.055-7.055 2.93-7.055-2.93-2.93-7.055 2.93-7.055 7.055-2.93z"></path>
</symbol>
<symbol id="icon-perm_media" viewBox="0 0 24 24">
<title>icon-perm_media</title>
<path class="path1" d="M6.984 15h14.016l-3.516-4.5-2.484 3-3.516-4.5zM21.984 3.984q0.797 0 1.406 0.609t0.609 1.406v9.984q0 0.797-0.609 1.406t-1.406 0.609h-15.984q-0.797 0-1.406-0.609t-0.609-1.406l0.047-12q0-0.797 0.586-1.383t1.383-0.586h6l2.016 1.969h7.969zM2.016 6v14.016h18v1.969h-18q-0.797 0-1.406-0.586t-0.609-1.383v-14.016h2.016z"></path>
</symbol>
<symbol id="icon-add" viewBox="0 0 24 24">
<title>icon-add</title>
<path class="path1" d="M18.984 12.984h-6v6h-1.969v-6h-6v-1.969h6v-6h1.969v6h6v1.969z"></path>
</symbol>
<symbol id="icon-arrow_drop_down" viewBox="0 0 24 24">
<title>icon-arrow_drop_down</title>
<path class="path1" d="M6.984 9.984h10.031l-5.016 5.016z"></path>
</symbol>
<symbol id="icon-close" viewBox="0 0 24 24">
<title>icon-close</title>
<path class="path1" d="M18.984 6.422l-5.578 5.578 5.578 5.578-1.406 1.406-5.578-5.578-5.578 5.578-1.406-1.406 5.578-5.578-5.578-5.578 1.406-1.406 5.578 5.578 5.578-5.578z"></path>
</symbol>
<symbol id="icon-expand_more" viewBox="0 0 24 24">
<title>icon-expand_more</title>
<path class="path1" d="M16.594 8.578l1.406 1.406-6 6-6-6 1.406-1.406 4.594 4.594z"></path>
</symbol>
<symbol id="icon-mail_outline" viewBox="0 0 24 24">
<title>icon-mail_outline</title>
<path class="path1" d="M12 11.016l8.016-5.016h-16.031zM20.016 18v-9.984l-8.016 4.969-8.016-4.969v9.984h16.031zM20.016 3.984c1.078 0 1.969 0.938 1.969 2.016v12c0 1.078-0.891 2.016-1.969 2.016h-16.031c-1.078 0-1.969-0.938-1.969-2.016v-12c0-1.078 0.891-2.016 1.969-2.016h16.031z"></path>
</symbol>
<symbol id="icon-instagram" viewBox="0 0 32 32">
<title>icon-instagram</title>
<path class="path1" d="M16 2.881c4.275 0 4.781 0.019 6.462 0.094 1.563 0.069 2.406 0.331 2.969 0.55 0.744 0.288 1.281 0.638 1.837 1.194 0.563 0.563 0.906 1.094 1.2 1.838 0.219 0.563 0.481 1.412 0.55 2.969 0.075 1.688 0.094 2.194 0.094 6.463s-0.019 4.781-0.094 6.463c-0.069 1.563-0.331 2.406-0.55 2.969-0.288 0.744-0.637 1.281-1.194 1.837-0.563 0.563-1.094 0.906-1.837 1.2-0.563 0.219-1.413 0.481-2.969 0.55-1.688 0.075-2.194 0.094-6.463 0.094s-4.781-0.019-6.463-0.094c-1.563-0.069-2.406-0.331-2.969-0.55-0.744-0.288-1.281-0.637-1.838-1.194-0.563-0.563-0.906-1.094-1.2-1.837-0.219-0.563-0.481-1.413-0.55-2.969-0.075-1.688-0.094-2.194-0.094-6.463s0.019-4.781 0.094-6.463c0.069-1.563 0.331-2.406 0.55-2.969 0.288-0.744 0.638-1.281 1.194-1.838 0.563-0.563 1.094-0.906 1.838-1.2 0.563-0.219 1.412-0.481 2.969-0.55 1.681-0.075 2.188-0.094 6.463-0.094zM16 0c-4.344 0-4.887 0.019-6.594 0.094-1.7 0.075-2.869 0.35-3.881 0.744-1.056 0.412-1.95 0.956-2.837 1.85-0.894 0.888-1.438 1.781-1.85 2.831-0.394 1.019-0.669 2.181-0.744 3.881-0.075 1.713-0.094 2.256-0.094 6.6s0.019 4.887 0.094 6.594c0.075 1.7 0.35 2.869 0.744 3.881 0.413 1.056 0.956 1.95 1.85 2.837 0.887 0.887 1.781 1.438 2.831 1.844 1.019 0.394 2.181 0.669 3.881 0.744 1.706 0.075 2.25 0.094 6.594 0.094s4.888-0.019 6.594-0.094c1.7-0.075 2.869-0.35 3.881-0.744 1.050-0.406 1.944-0.956 2.831-1.844s1.438-1.781 1.844-2.831c0.394-1.019 0.669-2.181 0.744-3.881 0.075-1.706 0.094-2.25 0.094-6.594s-0.019-4.887-0.094-6.594c-0.075-1.7-0.35-2.869-0.744-3.881-0.394-1.063-0.938-1.956-1.831-2.844-0.887-0.887-1.781-1.438-2.831-1.844-1.019-0.394-2.181-0.669-3.881-0.744-1.712-0.081-2.256-0.1-6.6-0.1v0z"></path>
<path class="path2" d="M16 7.781c-4.537 0-8.219 3.681-8.219 8.219s3.681 8.219 8.219 8.219 8.219-3.681 8.219-8.219c0-4.537-3.681-8.219-8.219-8.219zM16 21.331c-2.944 0-5.331-2.387-5.331-5.331s2.387-5.331 5.331-5.331c2.944 0 5.331 2.387 5.331 5.331s-2.387 5.331-5.331 5.331z"></path>
<path class="path3" d="M26.462 7.456c0 1.060-0.859 1.919-1.919 1.919s-1.919-0.859-1.919-1.919c0-1.060 0.859-1.919 1.919-1.919s1.919 0.859 1.919 1.919z"></path>
</symbol>
<symbol id="icon-arrow-right2" viewBox="0 0 32 32">
<title>icon-arrow-right2</title>
<path class="path1" d="M19.414 27.414l10-10c0.781-0.781 0.781-2.047 0-2.828l-10-10c-0.781-0.781-2.047-0.781-2.828 0s-0.781 2.047 0 2.828l6.586 6.586h-19.172c-1.105 0-2 0.895-2 2s0.895 2 2 2h19.172l-6.586 6.586c-0.39 0.39-0.586 0.902-0.586 1.414s0.195 1.024 0.586 1.414c0.781 0.781 2.047 0.781 2.828 0z"></path>
</symbol>
<symbol id="icon-google-plus" viewBox="0 0 32 32">
<title>icon-google-plus</title>
<path class="path1" d="M0.025 27.177c-0.008-0.079-0.014-0.158-0.018-0.238 0.004 0.080 0.011 0.159 0.018 0.238zM7.372 17.661c2.875 0.086 4.804-2.897 4.308-6.662s-3.231-6.787-6.106-6.873c-2.876-0.085-4.804 2.796-4.308 6.562 0.496 3.765 3.23 6.887 6.106 6.973zM32 8v-2.666c0-2.934-2.399-5.334-5.333-5.334h-21.333c-2.884 0-5.25 2.32-5.33 5.185 1.824-1.606 4.354-2.947 6.965-2.947 2.791 0 11.164 0 11.164 0l-2.498 2.113h-3.54c2.348 0.9 3.599 3.629 3.599 6.429 0 2.351-1.307 4.374-3.153 5.812-1.801 1.403-2.143 1.991-2.143 3.184 0 1.018 1.93 2.75 2.938 3.462 2.949 2.079 3.904 4.010 3.904 7.233 0 0.513-0.064 1.026-0.19 1.53h9.617c2.934 0 5.333-2.398 5.333-5.334v-16.666h-6v6h-2v-6h-6v-2h6v-6h2v6h6zM5.809 23.936c0.675 0 1.294-0.018 1.936-0.018-0.848-0.823-1.52-1.831-1.52-3.074 0-0.738 0.236-1.448 0.567-2.079-0.337 0.024-0.681 0.031-1.035 0.031-2.324 0-4.297-0.752-5.756-1.995v2.101l0 6.304c1.67-0.793 3.653-1.269 5.809-1.269zM0.107 27.727c-0.035-0.171-0.061-0.344-0.079-0.52 0.018 0.176 0.045 0.349 0.079 0.52zM14.233 29.776c-0.471-1.838-2.139-2.749-4.465-4.361-0.846-0.273-1.778-0.434-2.778-0.444-2.801-0.030-5.41 1.092-6.882 2.762 0.498 2.428 2.657 4.267 5.226 4.267h8.951c0.057-0.348 0.084-0.707 0.084-1.076 0-0.392-0.048-0.775-0.137-1.148z"></path>
</symbol>
<symbol id="icon-facebook" viewBox="0 0 32 32">
<title>icon-facebook</title>
<path class="path1" d="M26.667 0h-21.334c-2.945 0-5.333 2.388-5.333 5.334v21.332c0 2.946 2.387 5.334 5.333 5.334h10.667v-14h-4v-4h4v-3c0-2.761 2.239-5 5-5h5v4h-5c-0.552 0-1 0.448-1 1v3h5.5l-1 4h-4.5v14h6.667c2.945 0 5.333-2.388 5.333-5.334v-21.332c0-2.946-2.387-5.334-5.333-5.334z"></path>
</symbol>
<symbol id="icon-twitter" viewBox="0 0 32 32">
<title>icon-twitter</title>
<path class="path1" d="M26.667 0h-21.333c-2.934 0-5.334 2.4-5.334 5.334v21.332c0 2.936 2.4 5.334 5.334 5.334h21.333c2.934 0 5.333-2.398 5.333-5.334v-21.332c0-2.934-2.399-5.334-5.333-5.334zM23.952 11.921c0.008 0.176 0.012 0.353 0.012 0.531 0 5.422-4.127 11.675-11.675 11.675-2.317 0-4.474-0.679-6.29-1.844 0.321 0.038 0.648 0.058 0.979 0.058 1.922 0 3.692-0.656 5.096-1.757-1.796-0.033-3.311-1.219-3.833-2.849 0.251 0.048 0.508 0.074 0.772 0.074 0.374 0 0.737-0.050 1.081-0.144-1.877-0.377-3.291-2.035-3.291-4.023 0-0.017 0-0.034 0-0.052 0.553 0.307 1.186 0.492 1.858 0.513-1.101-0.736-1.825-1.992-1.825-3.415 0-0.752 0.202-1.457 0.556-2.063 2.024 2.482 5.047 4.116 8.457 4.287-0.070-0.3-0.106-0.614-0.106-0.935 0-2.266 1.837-4.103 4.103-4.103 1.18 0 2.247 0.498 2.995 1.296 0.935-0.184 1.813-0.525 2.606-0.996-0.306 0.958-0.957 1.762-1.804 2.27 0.83-0.099 1.621-0.32 2.357-0.646-0.55 0.823-1.245 1.545-2.047 2.124z"></path>
</symbol>
<symbol id="icon-pinterest" viewBox="0 0 32 32">
<title>icon-pinterest</title>
<path class="path1" d="M26.667 0h-21.334c-2.945 0-5.333 2.388-5.333 5.334v21.332c0 2.946 2.387 5.334 5.333 5.334h21.334c2.945 0 5.333-2.388 5.333-5.334v-21.332c0-2.946-2.387-5.334-5.333-5.334zM17.915 25.126c-1.621 0-3.145-0.842-3.667-1.837 0 0-0.802 3.055-0.997 3.803-0.361 1.39-1.336 3.132-1.989 4.195l-1.093-0.387c-0.14-1.266-0.266-3.208 0.055-4.59 0.291-1.249 1.876-7.953 1.876-7.953s-0.479-0.958-0.479-2.375c0-2.225 1.29-3.886 2.895-3.886 1.365 0 2.025 1.025 2.025 2.254 0 1.373-0.874 3.425-1.325 5.327-0.377 1.593 0.799 2.892 2.369 2.892 2.844 0 5.030-2.999 5.030-7.327 0-3.831-2.753-6.509-6.683-6.509-4.552 0-7.225 3.415-7.225 6.943 0 1.375 0.53 2.85 1.191 3.651 0.131 0.158 0.15 0.297 0.111 0.459-0.121 0.506-0.391 1.593-0.444 1.815-0.070 0.293-0.232 0.355-0.535 0.214-1.998-0.93-3.248-3.852-3.248-6.198 0-5.047 3.667-9.682 10.572-9.682 5.55 0 9.864 3.955 9.864 9.241 0 5.514-3.477 9.952-8.302 9.952z"></path>
</symbol>
<symbol id="icon-display" viewBox="0 0 32 32">
<title>icon-display</title>
<path class="path1" d="M0 2v20h32v-20h-32zM30 20h-28v-16h28v16zM21 24h-10l-1 4-2 2h16l-2-2z"></path>
</symbol>
<symbol id="icon-twitter-no-bg" viewBox="0 0 32 32">
<title>icon-twitter-no-bg</title>
<path class="path1" d="M32 6.076c-1.177 0.522-2.443 0.875-3.771 1.034 1.355-0.813 2.396-2.099 2.887-3.632-1.269 0.752-2.674 1.299-4.169 1.593-1.198-1.276-2.904-2.073-4.792-2.073-3.626 0-6.565 2.939-6.565 6.565 0 0.515 0.058 1.016 0.17 1.496-5.456-0.274-10.294-2.888-13.532-6.86-0.565 0.97-0.889 2.097-0.889 3.301 0 2.278 1.159 4.287 2.921 5.465-1.076-0.034-2.088-0.329-2.974-0.821-0.001 0.027-0.001 0.055-0.001 0.083 0 3.181 2.263 5.834 5.266 6.437-0.551 0.15-1.131 0.23-1.73 0.23-0.423 0-0.834-0.041-1.235-0.118 0.835 2.608 3.26 4.506 6.133 4.559-2.247 1.761-5.078 2.81-8.154 2.81-0.53 0-1.052-0.031-1.566-0.092 2.905 1.863 6.356 2.95 10.064 2.95 12.076 0 18.679-10.004 18.679-18.68 0-0.285-0.006-0.568-0.019-0.849 1.283-0.926 2.396-2.082 3.276-3.398z"></path>
</symbol>
<symbol id="icon-youtube3" viewBox="0 0 32 32">
<title>icon-youtube3</title>
<path class="path1" d="M9.162 0l-2.162 4.289-2.162-4.289h-2.758l3.897 6.791 0.023-0.013v5.222h2v-5.222l0.023 0.013 3.897-6.791z"></path>
<path class="path2" d="M15 4c0.542 0 1 0.458 1 1v4c0 0.542-0.458 1-1 1s-1-0.458-1-1v-4c0-0.542 0.458-1 1-1zM15 2c-1.65 0-3 1.35-3 3v4c0 1.65 1.35 3 3 3s3-1.35 3-3v-4c0-1.65-1.35-3-3-3v0z"></path>
<path class="path3" d="M24 2v7.874c-0.873 0.728-2 1.167-2-1.426v-6.448h-2v6.854h0.003c0.031 1.653 0.379 4.63 3.997 2.21v0.936h2v-10h-2z"></path>
<path class="path4" d="M27 22c-0.551 0-1 0.449-1 1v1h2v-1c0-0.551-0.449-1-1-1z"></path>
<path class="path5" d="M18 23v5.25c0.677 0.677 2 0.75 2-0.25s0-3.688 0-4.688-1-1.313-2-0.313z"></path>
<path class="path6" d="M31.836 18.173c-0.087-1.152-0.501-2.092-1.243-2.82s-1.69-1.125-2.846-1.19c-2.181-0.109-7.17-0.163-11.554-0.163s-9.728 0.054-11.909 0.163c-1.156 0.065-2.104 0.462-2.846 1.19s-1.156 1.668-1.243 2.82c-0.131 2.347-0.196 3.198-0.196 4.372s0.065 2.934 0.196 5.282c0.087 1.152 0.502 2.092 1.243 2.82s1.69 1.125 2.846 1.19c2.181 0.109 7.525 0.163 11.909 0.163s9.373-0.054 11.554-0.163c1.156-0.065 2.104-0.462 2.846-1.19s1.156-1.668 1.243-2.82c0.109-1.956 0.164-3.717 0.164-5.282s-0.055-2.416-0.164-4.372zM6 30h-2v-10h-2v-2h6v2h-2v10zM14 30h-2v-0.936c-3.802 2.134-3.966 0.069-3.997-1.585h-0.003v-5.479h2v5.51c0 1.208 1.127 1.091 2 0.364v-5.874h2v8zM22 27.971c0 2.090-2.141 2.7-4 1.075v0.954h-2v-12h2v3.25c2-2 4-1.25 4 0.75s0 3.787 0 5.971zM30 24v1h-4v2c0 0.551 0.449 1 1 1s1-0.449 1-1v-1h2v1c0 1.654-1.346 3-3 3s-3-1.346-3-3v-4c0-1.654 1.346-3 3-3s3 1.346 3 3v1z"></path>
</symbol>
<symbol id="icon-vimeo2" viewBox="0 0 32 32">
<title>icon-vimeo2</title>
<path class="path1" d="M26.666 0h-21.332c-2.934 0-5.334 2.401-5.334 5.334v21.332c0 2.936 2.4 5.334 5.334 5.334h21.332c2.934 0 5.334-2.398 5.334-5.334v-21.332c0-2.934-2.4-5.334-5.334-5.334zM25.402 13.691c-1.061 5.978-6.991 11.041-8.774 12.197s-3.411-0.463-4.001-1.687c-0.675-1.397-2.7-8.967-3.23-9.594-0.53-0.626-2.121 0.627-2.121 0.627l-0.772-1.012c0 0 3.231-3.858 5.689-4.34 2.606-0.511 2.603 4.002 3.229 6.508 0.606 2.424 1.014 3.811 1.543 3.811 0.53 0 1.543-1.352 2.652-3.424 1.111-2.074-0.048-3.907-2.218-2.603 0.868-5.208 9.064-6.46 8.004-0.483z"></path>
</symbol>
<symbol id="icon-linkedin" viewBox="0 0 32 32">
<title>icon-linkedin</title>
<path class="path1" d="M26.625 0h-21.25c-2.956 0-5.375 2.419-5.375 5.375v21.25c0 2.956 2.419 5.375 5.375 5.375h21.25c2.956 0 5.375-2.419 5.375-5.375v-21.25c0-2.956-2.419-5.375-5.375-5.375zM12 26h-4v-14h4v14zM10 10c-1.105 0-2-0.895-2-2s0.895-2 2-2 2 0.895 2 2-0.895 2-2 2zM26 26h-4v-8c0-1.105-0.895-2-2-2s-2 0.895-2 2v8h-4v-14h4v2.483c0.825-1.133 2.086-2.483 3.5-2.483 2.485 0 4.5 2.239 4.5 5v9z"></path>
</symbol>
<symbol id="icon-linkedin-no-bg" viewBox="0 0 32 32">
<title>icon-linkedin-no-bg</title>
<path class="path1" d="M12 12h5.535v2.837h0.079c0.77-1.381 2.655-2.837 5.464-2.837 5.842 0 6.922 3.637 6.922 8.367v9.633h-5.769v-8.54c0-2.037-0.042-4.657-3.001-4.657-3.005 0-3.463 2.218-3.463 4.509v8.688h-5.767v-18z"></path>
<path class="path2" d="M2 12h6v18h-6v-18z"></path>
<path class="path3" d="M8 7c0 1.657-1.343 3-3 3s-3-1.343-3-3c0-1.657 1.343-3 3-3s3 1.343 3 3z"></path>
</symbol>
<symbol id="icon-svg" viewBox="0 0 32 32">
<title>icon-svg</title>
<path class="path1" d="M29 13c-0.888 0-1.686 0.386-2.236 1h-5.936l4.197-4.197c0.822 0.046 1.66-0.245 2.288-0.874 1.172-1.172 1.172-3.071 0-4.243s-3.071-1.172-4.243 0c-0.628 0.628-0.919 1.466-0.874 2.288l-4.197 4.197v-5.936c0.614-0.549 1-1.347 1-2.236 0-1.657-1.343-3-3-3s-3 1.343-3 3c0 0.888 0.386 1.686 1 2.236v5.936l-4.197-4.197c0.045-0.822-0.245-1.66-0.874-2.288-1.172-1.172-3.071-1.172-4.243 0s-1.172 3.071 0 4.243c0.628 0.628 1.466 0.919 2.288 0.874l4.197 4.197h-5.936c-0.549-0.614-1.347-1-2.236-1-1.657 0-3 1.343-3 3s1.343 3 3 3c0.888 0 1.686-0.386 2.236-1h5.936l-4.197 4.197c-0.822-0.046-1.66 0.245-2.288 0.874-1.172 1.172-1.172 3.071 0 4.243s3.071 1.172 4.243 0c0.628-0.628 0.919-1.466 0.874-2.288l4.197-4.197v5.936c-0.614 0.549-1 1.347-1 2.235 0 1.657 1.343 3 3 3s3-1.343 3-3c0-0.888-0.386-1.686-1-2.236v-5.936l4.197 4.197c-0.046 0.822 0.245 1.66 0.874 2.288 1.172 1.172 3.071 1.172 4.243 0s1.172-3.071 0-4.243c-0.628-0.628-1.466-0.919-2.288-0.874l-4.197-4.197h5.936c0.549 0.614 1.347 1 2.235 1 1.657 0 3-1.343 3-3s-1.343-3-3-3z"></path>
</symbol>
</defs>
</svg>
