<?xml version="1.0" encoding="utf-8"?>
<!-- Generated by IcoMoon.io -->
<!DOCTYPE svg PUBLIC "-//W3C//DTD SVG 1.1//EN" "http://www.w3.org/Graphics/SVG/1.1/DTD/svg11.dtd">
<svg version="1.1" xmlns="http://www.w3.org/2000/svg" xmlns:xlink="http://www.w3.org/1999/xlink" width="32" height="32" viewBox="0 0 32 32">
<path fill="#444" d="M7.029 3.307c0-0.181 0.053-0.373 0.171-0.533 0.299-0.416 0.875-0.512 1.291-0.213l15.136 10.784c0.843 0.608 1.333 1.547 1.333 2.581 0 0 0 0.011 0 0.011 0 1.035-0.48 1.973-1.323 2.581l-15.147 10.923c-0.416 0.299-0.992 0.203-1.291-0.213s-0.203-0.992 0.213-1.291l15.147-10.923c0.352-0.256 0.555-0.651 0.555-1.077 0 0 0 0 0 0 0-0.437-0.203-0.832-0.555-1.077l-15.136-10.795c-0.256-0.181-0.395-0.469-0.395-0.757z"></path>
</svg>
