<?xml version="1.0" encoding="utf-8"?>
<!-- Generated by IcoMoon.io -->
<!DOCTYPE svg PUBLIC "-//W3C//DTD SVG 1.1//EN" "http://www.w3.org/Graphics/SVG/1.1/DTD/svg11.dtd">
<svg version="1.1" xmlns="http://www.w3.org/2000/svg" xmlns:xlink="http://www.w3.org/1999/xlink" width="32" height="32" viewBox="0 0 32 32">
<path fill="#444" d="M1.194 15.992c0-8.172 6.625-14.797 14.797-14.797s14.797 6.625 14.797 14.797-6.625 14.797-14.797 14.797c-8.172 0-14.797-6.625-14.797-14.797v0zM0.040 15.992c0 8.81 7.142 15.951 15.951 15.951s15.951-7.142 15.951-15.951c0-8.81-7.142-15.951-15.951-15.951s-15.951 7.142-15.951 15.951v0z"></path>
<path fill="#444" d="M16.111 16.555c-3.512 0-10.536 1.774-10.536 5.288 0 2.081 1.671 3.787 3.785 3.787h13.571c2.080 0 3.785-1.672 3.785-3.787-0.068-3.514-7.092-5.288-10.604-5.288zM16.111 17.919c3.528 0 9.178 1.801 9.24 3.937-0.008 1.329-1.091 2.408-2.421 2.408h-13.571c-1.335 0-2.421-1.087-2.421-2.422 0-2.128 5.634-3.923 9.172-3.923z"></path>
<path fill="#444" d="M16.142 5.828c-2.757 0-4.936 2.43-4.464 5.269 0.273 1.944 1.841 3.48 3.751 3.752 0.232 0.033 0.46 0.050 0.685 0.050 2.753 0 4.906-2.43 4.464-5.269-0.307-1.91-1.841-3.445-3.751-3.752-0.231-0.033-0.46-0.049-0.685-0.049zM16.142 7.192c0.158 0 0.32 0.012 0.479 0.034 1.324 0.218 2.397 1.294 2.609 2.613 0.149 0.959-0.105 1.881-0.717 2.595-0.598 0.699-1.473 1.099-2.4 1.099-0.161 0-0.326-0.012-0.492-0.036-1.318-0.189-2.409-1.278-2.593-2.591l-0.005-0.035c-0.157-0.942 0.088-1.851 0.689-2.561 0.602-0.711 1.488-1.119 2.429-1.119z"></path>
</svg>
