<?xml version="1.0" encoding="utf-8"?>
<!-- Generated by IcoMoon.io -->
<!DOCTYPE svg PUBLIC "-//W3C//DTD SVG 1.1//EN" "http://www.w3.org/Graphics/SVG/1.1/DTD/svg11.dtd">
<svg version="1.1" xmlns="http://www.w3.org/2000/svg" xmlns:xlink="http://www.w3.org/1999/xlink" width="32" height="32" viewBox="0 0 32 32">
<path d="M30.048 18.389l-3.925-10.155 2.325-1.845c0.021-0.021 0.021-0.021 0.021-0.021 0.107-0.096 0.117-0.107 0.224-0.203 0.16-0.139 0.096-0.448-0.064-0.533-0.096-0.043-0.32-0.149-0.32-0.149l-9.909-3.957c-0.331-0.128-0.523-0.107-0.747 0.053-0.085 0.064-15.573 12.267-15.573 12.267-0.32 0.277-0.171 0.693 0.267 0.875l3.179 1.28-1.547 9.568c-0.032 0.405 0.267 0.629 0.533 0.747l0.373 0.16c0.075 0.021 0.192 0.053 0.267 0.053v0c0.107 0 0.245-0.053 0.352-0.107 0.011-0.011 0.011-0.021 0.021-0.021 0.011-0.011 0.032-0.011 0.043-0.021l0.416-0.352c0.032-0.021 0.139-0.107 0.16-0.267l1.973-8.661 0.597 0.235 0.181 0.405 5.205 12.192c0.053 0.107 0.139 0.299 0.352 0.373l0.011-0.011c0.011 0.011 0.032 0.021 0.043 0.032l0.405 0.16c0.171 0.075 0.512 0.064 0.715-0.085l0.427-0.352c0.213-0.181 0.245-0.48 0.16-0.64l-4.171-10.795 0.245 0.107c0.256 0.107 0.555 0.053 0.768-0.107l5.024-3.957c0.021 0.299 0.299 0.48 0.533 0.587l0.373 0.16c0.128 0.053 0.405 0.085 0.587-0.075l0.48-0.373c0.064-0.043 0.107-0.085 0.117-0.139s0.043-0.16 0.043-0.16l0.48-2.069 3.552-2.805 3.851 9.035c0.053 0.16 0.352 0.469 0.693 0.64v0c0.192 0.075 0.405 0.053 0.565-0.021 0.021 0 0.021-0.021 0.053-0.021l0.491-0.384c0.021-0.021 0.021-0.021 0.053-0.053 0.117-0.16 0.171-0.373 0.096-0.587zM5.333 25.408l-0.245 0.213-0.213-0.085 1.483-9.195 0.949 0.384-1.973 8.683zM15.221 29.525l-0.075 0.064c-0.021 0.021-0.053 0.043-0.075 0.064l-0.181-0.096-5.003-11.733 0.949 0.373 4.384 11.328zM19.371 14.379l-0.128 0.107-0.107 0.075-0.213-0.075 0.107-0.587 0.565-0.427-0.224 0.907zM12.523 17.877l-9.376-3.744 15.072-11.861 9.376 3.744-15.072 11.861zM29.28 18.464l-0.235 0.149-0.107-0.043-0.107-0.075-3.925-9.248 0.619-0.48 3.755 9.696z"></path>
</svg>
