<?xml version="1.0" encoding="utf-8"?>
<!-- Generated by IcoMoon.io -->
<!DOCTYPE svg PUBLIC "-//W3C//DTD SVG 1.1//EN" "http://www.w3.org/Graphics/SVG/1.1/DTD/svg11.dtd">
<svg version="1.1" xmlns="http://www.w3.org/2000/svg" xmlns:xlink="http://www.w3.org/1999/xlink" width="32" height="32" viewBox="0 0 32 32">
<path fill="#444" d="M28.053 29.237c-0.299 0-0.587-0.117-0.821-0.341l-24.245-24.107c-0.459-0.448-0.459-1.184 0-1.643 0.448-0.448 1.184-0.459 1.643 0l24.245 24.117c0.459 0.448 0.459 1.184 0 1.643-0.224 0.224-0.523 0.331-0.821 0.331z"></path>
<path fill="#444" d="M3.947 29.195c-0.299 0-0.597-0.117-0.821-0.341-0.448-0.459-0.448-1.184 0-1.643l24.245-24.117c0.448-0.448 1.184-0.448 1.643 0 0.448 0.459 0.448 1.184 0 1.643l-24.256 24.117c-0.224 0.235-0.523 0.341-0.811 0.341z"></path>
</svg>
