<?xml version="1.0" encoding="utf-8"?>
<!-- Generated by IcoMoon.io -->
<!DOCTYPE svg PUBLIC "-//W3C//DTD SVG 1.1//EN" "http://www.w3.org/Graphics/SVG/1.1/DTD/svg11.dtd">
<svg version="1.1" xmlns="http://www.w3.org/2000/svg" xmlns:xlink="http://www.w3.org/1999/xlink" width="32" height="32" viewBox="0 0 32 32">
<path fill="#444" d="M23.888 26.177h-15.776c-2.425 0-4.375-1.972-4.375-4.375v-11.628c0 0 0-0.023 0-0.023s0-0.023 0-0.023c0.023-2.402 1.972-4.352 4.375-4.352h15.776c2.425 0 4.375 1.972 4.375 4.375v11.651c0 2.425-1.972 4.375-4.375 4.375zM4.349 10.469v11.333c0 2.085 1.678 3.763 3.763 3.763h15.776c2.085 0 3.763-1.677 3.763-3.763v-11.333h-23.302zM4.372 9.857h23.279c-0.159-1.927-1.791-3.445-3.763-3.445h-15.776c-1.972-0.023-3.581 1.496-3.74 3.445z"></path>
<path fill="#444" d="M9.064 14.617c0 0.426-0.345 0.771-0.771 0.771s-0.771-0.345-0.771-0.771c0-0.426 0.345-0.771 0.771-0.771s0.771 0.345 0.771 0.771z"></path>
<path fill="#444" d="M12.872 14.64c0 0.426-0.345 0.771-0.771 0.771s-0.771-0.345-0.771-0.771c0-0.426 0.345-0.771 0.771-0.771s0.771 0.345 0.771 0.771z"></path>
<path fill="#444" d="M16.703 14.663c0 0.426-0.345 0.771-0.771 0.771s-0.771-0.345-0.771-0.771c0-0.426 0.345-0.771 0.771-0.771s0.771 0.345 0.771 0.771z"></path>
<path fill="#444" d="M20.511 14.663c0 0.426-0.345 0.771-0.77 0.771s-0.77-0.345-0.77-0.771c0-0.426 0.345-0.771 0.77-0.771s0.77 0.345 0.77 0.771z"></path>
<path fill="#444" d="M24.341 14.685c0 0.426-0.345 0.771-0.77 0.771s-0.77-0.345-0.77-0.771c0-0.426 0.345-0.771 0.77-0.771s0.77 0.345 0.77 0.771z"></path>
<path fill="#444" d="M9.064 18.131c0 0.426-0.345 0.77-0.771 0.77s-0.771-0.345-0.771-0.77c0-0.426 0.345-0.77 0.771-0.77s0.771 0.345 0.771 0.77z"></path>
<path fill="#444" d="M12.872 18.153c0 0.426-0.345 0.77-0.771 0.77s-0.771-0.345-0.771-0.77c0-0.426 0.345-0.77 0.771-0.77s0.771 0.345 0.771 0.77z"></path>
<path fill="#444" d="M16.703 18.176c0 0.426-0.345 0.77-0.771 0.77s-0.771-0.345-0.771-0.77c0-0.426 0.345-0.77 0.771-0.77s0.771 0.345 0.771 0.77z"></path>
<path fill="#444" d="M20.511 18.176c0 0.426-0.345 0.77-0.77 0.77s-0.77-0.345-0.77-0.77c0-0.426 0.345-0.77 0.77-0.77s0.77 0.345 0.77 0.77z"></path>
<path fill="#444" d="M24.341 18.198c0 0.426-0.345 0.77-0.77 0.77s-0.77-0.345-0.77-0.77c0-0.426 0.345-0.77 0.77-0.77s0.77 0.345 0.77 0.77z"></path>
<path fill="#444" d="M9.064 21.644c0 0.426-0.345 0.77-0.771 0.77s-0.771-0.345-0.771-0.77c0-0.426 0.345-0.77 0.771-0.77s0.771 0.345 0.771 0.77z"></path>
<path fill="#444" d="M12.895 21.644c0 0.426-0.345 0.77-0.771 0.77s-0.771-0.345-0.771-0.77c0-0.426 0.345-0.77 0.771-0.77s0.771 0.345 0.771 0.77z"></path>
<path fill="#444" d="M16.703 21.689c0 0.426-0.345 0.77-0.771 0.77s-0.771-0.345-0.771-0.77c0-0.426 0.345-0.77 0.771-0.77s0.771 0.345 0.771 0.77z"></path>
<path fill="#444" d="M20.534 21.689c0 0.426-0.345 0.77-0.77 0.77s-0.77-0.345-0.77-0.77c0-0.426 0.345-0.77 0.77-0.77s0.77 0.345 0.77 0.77z"></path>
<path fill="#444" d="M24.341 21.712c0 0.426-0.345 0.77-0.77 0.77s-0.77-0.345-0.77-0.77c0-0.426 0.345-0.77 0.77-0.77s0.77 0.345 0.77 0.77z"></path>
<path fill="#444" d="M9.064 8.203c0 0.426-0.345 0.771-0.771 0.771s-0.771-0.345-0.771-0.771c0-0.426 0.345-0.771 0.771-0.771s0.771 0.345 0.771 0.771z"></path>
<path fill="#444" d="M24.341 8.203c0 0.426-0.345 0.771-0.77 0.771s-0.77-0.345-0.77-0.771c0-0.426 0.345-0.771 0.77-0.771s0.77 0.345 0.77 0.771z"></path>
</svg>
