<?xml version="1.0" encoding="utf-8"?>
<!-- Generated by IcoMoon.io -->
<!DOCTYPE svg PUBLIC "-//W3C//DTD SVG 1.1//EN" "http://www.w3.org/Graphics/SVG/1.1/DTD/svg11.dtd">
<svg version="1.1" xmlns="http://www.w3.org/2000/svg" xmlns:xlink="http://www.w3.org/1999/xlink" width="32" height="32" viewBox="0 0 32 32">
<path d="M25.429 10.133c-0.053 0-0.117-0.011-0.171-0.032-1.376-0.587-2.571-1.472-3.669-2.72-0.16-0.181-0.139-0.448 0.043-0.597 0.181-0.16 0.448-0.139 0.597 0.043 1.003 1.141 2.101 1.963 3.36 2.496 0.213 0.096 0.32 0.341 0.224 0.555-0.053 0.16-0.213 0.256-0.384 0.256z"></path>
<path d="M25.429 5.845c-0.053 0-0.117-0.011-0.171-0.032-1.387-0.608-2.624-1.536-3.669-2.741-0.149-0.181-0.139-0.448 0.043-0.597s0.448-0.139 0.597 0.043c0.96 1.109 2.091 1.952 3.36 2.517 0.213 0.096 0.309 0.341 0.224 0.565-0.053 0.149-0.213 0.245-0.384 0.245z"></path>
<path d="M13.109 31.883c-0.011 0-0.011 0-0.021 0h-0.011c-0.011 0-0.032 0-0.043 0s-0.032-0.011-0.043-0.011h-0.011c-0.011 0-0.021-0.011-0.032-0.011s-0.021-0.011-0.032-0.011h-0.011c-0.011 0-0.021-0.011-0.021-0.011-0.011 0-0.021-0.011-0.021-0.011l-0.011-0.011c0 0-0.011 0-0.011-0.011 0 0-0.011-0.011-0.011-0.011l-0.288-0.171c0 0 0 0-0.011 0 0 0-0.011 0-0.011-0.011l-0.011-0.011c0 0-0.011 0-0.011-0.011 0 0-0.011-0.011-0.011-0.011l-0.011-0.011c0 0-0.011-0.011-0.011-0.011-0.011 0-0.011-0.011-0.021-0.011l-0.011-0.011c0 0-0.011-0.011-0.011-0.011s-0.011-0.011-0.011-0.011l-0.011-0.011c0 0-0.011-0.011-0.011-0.011s-0.011-0.011-0.011-0.011l-0.011-0.011c0 0 0 0 0 0s0 0 0 0 0 0 0 0 0-0.011-0.011-0.011l-0.011-0.011c-0.011-0.011-0.011-0.011-0.021-0.021 0-0.011-0.011-0.011-0.011-0.021l-0.011-0.011c-0.139-0.192-0.096-0.459 0.096-0.597s0.448-0.096 0.587 0.085l0.139 0.085c0.011-0.011 0.011-0.011 0.021-0.021l-2.069-9.301-0.768-0.448c-0.032 0.043-0.085 0.085-0.139 0.107h-0.011c-0.213 0.107-0.469 0.011-0.576-0.192-0.011-0.032-0.032-0.064-0.032-0.096-0.043-0.085-0.053-0.192-0.032-0.288l-0.352-0.203-2.549 6.453c0 0.011-0.011 0.021-0.011 0.032s-0.011 0.021-0.011 0.021-0.011 0.032-0.021 0.043c-0.011 0.011-0.011 0.021-0.021 0.032s-0.021 0.021-0.032 0.032c-0.011 0.011-0.021 0.021-0.032 0.032s-0.021 0.021-0.043 0.032c-0.011 0.011-0.032 0.021-0.043 0.032l-0.203 0.117c-0.203 0.117-0.469 0.043-0.587-0.16s-0.043-0.469 0.16-0.587l0.085-0.053 2.56-6.464-3.605-2.123c0 0-0.011-0.011-0.011-0.011s-0.011 0-0.011-0.011l-0.011-0.011c-0.011 0-0.011-0.011-0.021-0.021s-0.011-0.011-0.021-0.021l-0.011-0.011c-0.011 0-0.011-0.011-0.021-0.021s-0.011-0.011-0.021-0.021l-0.011-0.011c-0.011-0.011-0.021-0.021-0.021-0.021-0.011-0.011-0.011-0.021-0.021-0.032v0c-0.011-0.011-0.011-0.021-0.021-0.021-0.011-0.011-0.011-0.021-0.021-0.032v0c-0.011-0.021-0.021-0.032-0.032-0.053s-0.011-0.043-0.021-0.053c0-0.011-0.011-0.032-0.011-0.043s0-0.032-0.011-0.043c0-0.021 0-0.043 0-0.064s0-0.043 0-0.053c0-0.021 0.011-0.043 0.011-0.064 0.011-0.021 0.011-0.043 0.021-0.064s0.011-0.032 0.021-0.053c0.011-0.021 0.021-0.032 0.032-0.053 0.011-0.011 0.011-0.021 0.021-0.021 0.011-0.011 0.011-0.011 0.021-0.021s0.032-0.032 0.043-0.043c0.011-0.011 0.032-0.021 0.053-0.032v0c0 0 0.011-0.011 0.011-0.011s0.011-0.011 0.011-0.011l10.773-6.101c0.203-0.117 0.469-0.043 0.587 0.16s0.043 0.469-0.16 0.587l-10.251 5.813 6.741 3.968 13.109-7.392-2.048-1.28c-0.203-0.128-0.256-0.384-0.139-0.587 0.128-0.203 0.384-0.256 0.587-0.139l2.507 1.579c0 0 0 0 0.011 0 0 0 0 0 0.011 0l0.011 0.011c0.011 0 0.011 0.011 0.021 0.011s0.011 0.011 0.021 0.011l0.011 0.011c0.011 0.011 0.021 0.011 0.032 0.021s0.021 0.021 0.021 0.021v0c0.011 0.011 0.011 0.011 0.021 0.021s0.011 0.011 0.021 0.021v0c0.011 0.011 0.011 0.011 0.021 0.021s0.011 0.021 0.021 0.032v0c0.011 0.011 0.021 0.032 0.021 0.043 0.011 0.011 0.011 0.032 0.021 0.053s0.011 0.043 0.021 0.064c0 0.021 0.011 0.043 0.011 0.064 0 0.011 0 0.032 0 0.043s0 0.032 0 0.043c0 0.021-0.011 0.053-0.011 0.075-0.011 0.021-0.021 0.053-0.032 0.075-0.011 0.011-0.011 0.032-0.021 0.043s-0.021 0.032-0.032 0.043c-0.011 0.011-0.011 0.021-0.021 0.032s-0.011 0.021-0.021 0.021-0.021 0.021-0.043 0.032c-0.011 0.011-0.032 0.021-0.043 0.032v0c-0.011 0-0.011 0.011-0.021 0.011s-0.011 0.011-0.021 0.011l-1.995 1.131 1.845 8.373c0 0 0 0.011 0 0.011s0 0.011 0 0.011v0.011c0 0.011 0 0.032 0.011 0.043s0 0.032 0 0.043v0c0 0.021 0 0.032 0 0.053s0 0.032-0.011 0.043v0c0 0.021-0.011 0.032-0.011 0.053s-0.011 0.032-0.021 0.053c-0.011 0.021-0.021 0.032-0.032 0.053s-0.021 0.032-0.032 0.053c-0.011 0.021-0.032 0.032-0.043 0.053-0.021 0.021-0.032 0.032-0.053 0.043v0c-0.011 0.011-0.011 0.011-0.021 0.021s-0.021 0.011-0.021 0.011l-0.203 0.117c0 0 0 0 0 0l-0.213 0.117c-0.021 0.011-0.043 0.021-0.064 0.032-0.032 0.011-0.075 0.021-0.117 0.032h-0.011c-0.011 0-0.032 0-0.043 0s-0.032 0-0.043 0v0c-0.011 0-0.032 0-0.043 0s-0.032 0-0.043-0.011h-0.011c-0.011 0-0.021-0.011-0.043-0.011-0.011 0-0.021-0.011-0.032-0.011h-0.011c-0.011 0-0.021-0.011-0.043-0.011-0.011-0.011-0.021-0.011-0.032-0.021l-0.011-0.011c0 0 0 0-0.011 0l-0.299-0.171c0 0-0.011 0-0.011-0.011l-0.011-0.011c-0.011 0-0.011-0.011-0.021-0.011s-0.011-0.011-0.021-0.011l-0.011-0.011c0 0-0.011-0.011-0.011-0.011s-0.011-0.011-0.011-0.011l-0.011-0.011c0 0-0.011-0.011-0.011-0.011s-0.011-0.011-0.011-0.011l-0.011-0.011c0 0 0 0 0 0l-0.011-0.011c-0.011-0.011-0.011-0.011-0.021-0.021s-0.011-0.011-0.021-0.021l-0.011-0.011c0 0 0 0-0.011-0.011l-0.011-0.011c-0.011-0.011-0.011-0.011-0.021-0.021 0-0.011-0.011-0.011-0.011-0.021l-0.011-0.011c0 0 0 0 0-0.011 0 0 0 0 0 0s0 0 0 0 0 0 0-0.011l-0.011-0.011c0 0-0.011-0.011-0.011-0.011 0-0.011-0.011-0.011-0.011-0.021v-0.011c0 0 0-0.011-0.011-0.011 0 0 0-0.011-0.011-0.011v-0.011c0-0.011-0.011-0.021-0.011-0.032s-0.011-0.021-0.011-0.032v-0.011c0 0 0 0 0 0s0 0 0 0 0 0 0 0v0l-1.92-7.445-3.019 1.707-0.608 1.547c0 0.011-0.011 0.011-0.011 0.021s-0.011 0.011-0.011 0.021-0.011 0.032-0.021 0.043c-0.011 0.011-0.021 0.021-0.032 0.043-0.011 0.011-0.021 0.021-0.032 0.043-0.011 0.011-0.021 0.021-0.032 0.032s-0.021 0.021-0.043 0.032c-0.011 0.011-0.032 0.021-0.043 0.021l-0.405 0.235c-0.011 0-0.021 0.011-0.021 0.011-0.011 0.011-0.021 0.011-0.043 0.021-0.011 0.011-0.021 0.011-0.043 0.011-0.011 0-0.021 0.011-0.032 0.011s-0.021 0-0.032 0.011c-0.011 0-0.032 0-0.043 0.011-0.021 0-0.032 0-0.043 0v0c-0.011 0-0.021 0-0.021 0-0.011 0-0.021 0-0.021 0v0c-0.011 0-0.032 0-0.043-0.011-0.011 0-0.032-0.011-0.043-0.011v0c-0.011 0-0.011 0-0.021 0s-0.011 0-0.021-0.011h-0.011c-0.011 0-0.011 0-0.021-0.011-0.011 0-0.011 0-0.021-0.011h-0.011c-0.011 0-0.021-0.011-0.032-0.011s-0.021-0.011-0.021-0.011h-0.011c0 0 0 0-0.011 0 0 0 0 0 0 0l-0.299-0.171c0 0-0.011 0-0.011-0.011 0 0-0.011-0.011-0.011-0.011l-0.011-0.011c-0.011 0-0.011-0.011-0.021-0.011s-0.011-0.011-0.021-0.011l-0.011-0.011c0 0-0.011-0.011-0.011-0.011s-0.011-0.011-0.011-0.011l-0.011-0.011c-0.011-0.011-0.011-0.011-0.021-0.021s-0.011-0.011-0.021-0.021l-0.011-0.011c0 0-0.011-0.011-0.011-0.011s-0.011-0.011-0.011-0.011l-0.011-0.011c-0.011-0.011-0.011-0.011-0.021-0.021s-0.011-0.021-0.021-0.021l-0.011-0.021c0 0 0-0.011-0.011-0.011 0 0 0-0.011-0.011-0.011l-0.011-0.011c0-0.011-0.011-0.021-0.011-0.032s-0.011-0.021-0.011-0.032v-0.011c0-0.011-0.011-0.021-0.011-0.032s-0.011-0.021-0.011-0.021v-0.011c0 0 0-0.011 0-0.011l-4.299 2.432c0 0-0.011 0-0.011 0s-0.011 0-0.011 0.011h-0.011c-0.011 0-0.021 0.011-0.032 0.011s-0.021 0.011-0.032 0.011h-0.011c-0.011 0-0.021 0.011-0.043 0.011-0.011 0-0.021 0.011-0.043 0.011h-0.011c-0.011 0-0.011 0-0.021 0s-0.011 0-0.021 0h-0.011c0 0-0.011 0-0.011 0-0.011 0-0.011 0-0.021 0h-0.011c-0.011 0-0.011 0-0.021 0s-0.011 0-0.021 0h-0.011c-0.011 0-0.011 0-0.021 0s-0.021 0-0.021 0h-0.021c0 0-0.011 0-0.011 0s-0.011 0-0.011 0h-0.021c-0.011 0-0.011 0-0.021 0s-0.011 0-0.021-0.011h-0.011c-0.011 0-0.011 0-0.021-0.011-0.011 0-0.011 0-0.021-0.011l-0.011-0.011c0 0-0.011 0-0.011-0.011 0 0-0.011 0-0.011-0.011l-0.011-0.011c-0.011 0-0.011-0.011-0.021-0.011s-0.011-0.011-0.021-0.011l-0.011-0.011c0 0-0.011 0-0.011-0.011 0 0-0.011 0-0.011-0.011l-0.021-0.011 1.931 8.768c0 0.011 0 0.011 0 0.021s0 0.011 0 0.021v0.011c0 0.011 0 0.021 0 0.032s0 0.021 0 0.032v0c0 0.021 0 0.043 0 0.053 0 0.021 0 0.043-0.011 0.064v0c0 0.021-0.011 0.032-0.011 0.053s-0.011 0.032-0.021 0.053c-0.011 0.021-0.021 0.043-0.032 0.053-0.011 0.021-0.021 0.032-0.032 0.053s-0.032 0.032-0.043 0.053c-0.011 0.011-0.032 0.032-0.053 0.043-0.011 0.011-0.021 0.011-0.032 0.021s-0.021 0.011-0.032 0.021l-0.203 0.117c-0.032 0.021-0.075 0.032-0.117 0.043-0.043 0.043-0.096 0.085-0.16 0.107l-0.011 0.011c-0.032 0.011-0.075 0.021-0.117 0.021-0.064-0.011-0.075-0.011-0.096-0.011zM25.301 23.936l0.128 0.075 0.021-0.011-1.739-7.893-0.373 0.213 1.963 7.616zM17.995 19.637l0.053 0.032 0.053-0.032c0 0 0 0 0 0l0.096-0.053 0.181-0.448-0.267 0.149-0.117 0.352z"></path>
<path d="M13.141 31.883c-0.149 0-0.288-0.075-0.373-0.213-0.021-0.032-0.032-0.064-0.043-0.085-0.171 0.043-0.363-0.021-0.469-0.181l-0.011-0.011c0-0.011-0.011-0.011-0.011-0.021s-0.011-0.011-0.011-0.021l-0.021-0.021c0-0.011-0.011-0.021-0.011-0.032s-0.011-0.021-0.011-0.032v-0.011c0-0.011 0-0.011-0.011-0.021 0-0.011 0-0.011-0.011-0.021v-0.011c0 0 0-0.011 0-0.011s0-0.011 0-0.011l-2.592-10.069-0.939-0.555c-0.203-0.117-0.267-0.384-0.149-0.587s0.384-0.267 0.587-0.149l1.088 0.64c0.021 0.011 0.043 0.021 0.053 0.043 0.021 0.021 0.053 0.043 0.075 0.064l0.011 0.011c0 0 0.011 0.011 0.011 0.011s0.011 0.011 0.011 0.011v0c0.011 0.011 0.021 0.021 0.032 0.043 0.011 0.011 0.021 0.032 0.021 0.043 0.011 0.011 0.011 0.021 0.011 0.032s0.011 0.021 0.011 0.032c0 0.011 0.011 0.021 0.011 0.032s0 0.021 0.011 0.032c0 0.011 0.011 0.032 0.011 0.043 0 0.021 0 0.032 0 0.053v0c0 0.011 0 0.021 0 0.032s0 0.011 0 0.021l2.571 9.973c0.021 0.032 0.032 0.053 0.043 0.085l0.117-0.064c0.203-0.117 0.469-0.043 0.587 0.16s0.043 0.469-0.16 0.587l-0.213 0.117c-0.075 0.043-0.149 0.064-0.224 0.064zM5.739 27.541c0 0-0.011 0-0.011 0-0.011 0-0.021 0-0.032 0s-0.021 0-0.032 0v0c-0.011 0-0.011 0-0.021 0s-0.011 0-0.021 0v0c-0.011 0-0.021 0-0.032-0.011-0.011 0-0.021-0.011-0.032-0.011v0c-0.011 0-0.021-0.011-0.032-0.011s-0.021-0.011-0.032-0.011h-0.011c0 0 0 0-0.011 0 0 0-0.011 0-0.011 0l-0.011-0.011c0 0-0.011 0-0.011-0.011 0 0-0.011 0-0.011-0.011l-0.288-0.171c0 0-0.011 0-0.011-0.011 0 0-0.011 0-0.011-0.011l-0.011-0.011c-0.011 0-0.011-0.011-0.021-0.011s-0.011-0.011-0.021-0.011l-0.011-0.011c-0.011 0-0.011-0.011-0.021-0.011s-0.011-0.011-0.021-0.021l-0.011-0.011c-0.011-0.011-0.011-0.011-0.021-0.021s-0.011-0.011-0.021-0.021l-0.011-0.011c0 0-0.011-0.011-0.011-0.011s-0.011-0.011-0.011-0.011l-0.011-0.011c0-0.011-0.011-0.011-0.011-0.021s-0.011-0.011-0.011-0.021l-0.011-0.011c-0.011-0.011-0.011-0.021-0.011-0.021 0-0.011-0.011-0.011-0.011-0.021l-0.011-0.011c0-0.011-0.011-0.011-0.011-0.021s-0.011-0.011-0.011-0.021l-0.011-0.011c0-0.011-0.011-0.021-0.011-0.032s-0.011-0.021-0.011-0.032v-0.011c0-0.011 0-0.021-0.011-0.032 0-0.011 0-0.021 0-0.032v-0.011c0-0.021 0-0.032-0.011-0.053 0-0.021 0-0.032 0-0.053v0c0-0.011 0-0.021 0-0.043 0-0.011 0-0.021 0.011-0.043v0c0-0.011 0-0.021 0.011-0.032 0-0.011 0-0.021 0.011-0.032l2.4-7.467c0.075-0.224 0.309-0.352 0.533-0.277s0.352 0.309 0.277 0.533l-2.336 7.285 0.053 0.032 0.053-0.032c0.203-0.117 0.469-0.043 0.587 0.16s0.043 0.469-0.16 0.587l-0.203 0.117c-0.011 0-0.011 0.011-0.021 0.011-0.011 0.011-0.021 0.011-0.043 0.021-0.011 0.011-0.032 0.011-0.043 0.011s-0.021 0.011-0.043 0.011c-0.011 0-0.021 0.011-0.032 0.011s-0.032 0-0.043 0.011c-0.032-0.011-0.043-0.011-0.053-0.011z"></path>
<path d="M23.659 12.8c-0.139 0-0.277-0.053-0.384-0.149l-1.579-1.419c-0.139-0.117-0.213-0.299-0.213-0.48v-1.077l0.011-8.192c0-0.725 0.587-1.312 1.312-1.312h1.813c0.693 0 1.259 0.565 1.259 1.259v9.291c0 0.181-0.075 0.352-0.213 0.469l-1.621 1.461c-0.107 0.096-0.245 0.149-0.384 0.149zM22.336 10.656l1.323 1.184 1.355-1.227v-9.195c0-0.224-0.181-0.405-0.405-0.405h-1.813c-0.245 0-0.459 0.203-0.459 0.459v9.184z"></path>
</svg>
