<?xml version="1.0" encoding="utf-8"?>
<!-- Generated by IcoMoon.io -->
<!DOCTYPE svg PUBLIC "-//W3C//DTD SVG 1.1//EN" "http://www.w3.org/Graphics/SVG/1.1/DTD/svg11.dtd">
<svg version="1.1" xmlns="http://www.w3.org/2000/svg" xmlns:xlink="http://www.w3.org/1999/xlink" width="32" height="32" viewBox="0 0 32 32">
<path d="M21.611 22.315c-0.192 0-0.373-0.075-0.512-0.213l-11.253-11.2c-0.288-0.288-0.288-0.747 0-1.035s0.747-0.288 1.035 0l11.253 11.2c0.288 0.288 0.288 0.747 0 1.035-0.149 0.139-0.331 0.213-0.523 0.213z"></path>
<path d="M10.421 22.293c-0.192 0-0.373-0.075-0.523-0.213-0.288-0.288-0.288-0.747 0-1.035l11.253-11.2c0.288-0.288 0.747-0.288 1.035 0s0.288 0.747 0 1.035l-11.253 11.2c-0.139 0.139-0.331 0.213-0.512 0.213z"></path>
<path d="M16.011 29.888c-7.669 0-13.92-6.24-13.92-13.909s6.251-13.92 13.92-13.92 13.909 6.24 13.909 13.909-6.229 13.92-13.909 13.92zM16.011 3.52c-6.859 0-12.448 5.589-12.448 12.448s5.589 12.448 12.448 12.448 12.448-5.589 12.448-12.448-5.579-12.448-12.448-12.448z"></path>
</svg>
