<?xml version="1.0" encoding="utf-8"?>
<!-- Generated by IcoMoon.io -->
<!DOCTYPE svg PUBLIC "-//W3C//DTD SVG 1.1//EN" "http://www.w3.org/Graphics/SVG/1.1/DTD/svg11.dtd">
<svg version="1.1" xmlns="http://www.w3.org/2000/svg" xmlns:xlink="http://www.w3.org/1999/xlink" width="32" height="32" viewBox="0 0 32 32">
<path fill="#444" d="M28.032 28.939c-0.245 0-0.491-0.096-0.672-0.277l-24.203-24.064c-0.373-0.373-0.373-0.981 0-1.355s0.981-0.373 1.355 0l24.192 24.064c0.373 0.373 0.373 0.981 0 1.355-0.181 0.181-0.427 0.277-0.672 0.277z"></path>
<path fill="#444" d="M3.968 28.896c-0.245 0-0.491-0.096-0.672-0.277-0.373-0.373-0.373-0.981 0-1.355l24.192-24.075c0.373-0.373 0.981-0.373 1.355 0s0.373 0.981 0 1.355l-24.203 24.075c-0.181 0.181-0.427 0.277-0.672 0.277z"></path>
</svg>
