<?xml version="1.0" encoding="utf-8"?>
<!-- Generated by IcoMoon.io -->
<!DOCTYPE svg PUBLIC "-//W3C//DTD SVG 1.1//EN" "http://www.w3.org/Graphics/SVG/1.1/DTD/svg11.dtd">
<svg version="1.1" xmlns="http://www.w3.org/2000/svg" xmlns:xlink="http://www.w3.org/1999/xlink" width="32" height="32" viewBox="0 0 32 32">
<path d="M6.837 23.755h-0.085c-0.053 0-0.107 0-0.16-0.011h-4.107c-0.053 0-0.107 0.011-0.16 0.011h-0.085c-0.992 0-1.813-0.821-1.813-1.824v-4.587c0-0.981 0.789-1.792 1.76-1.824 0.021 0 0.053-0.011 0.075-0.011h4.544c0.032 0 0.053 0 0.085 0.011 0.971 0.032 1.76 0.843 1.76 1.824v4.587c0.011 1.003-0.811 1.824-1.813 1.824zM2.464 22.624h4.16c0.021 0 0.043 0 0.053 0 0.021 0 0.053 0 0.075 0h0.085c0.384 0 0.704-0.32 0.704-0.704v-4.587c0-0.395-0.309-0.704-0.704-0.704h-0.021c-0.021 0-0.053 0-0.075 0h-4.395c-0.021 0-0.053 0-0.075 0h-0.021c-0.395 0-0.704 0.309-0.704 0.704v4.587c0 0.384 0.32 0.704 0.704 0.704h0.085c0.021 0 0.053 0 0.075 0 0.011 0 0.032 0 0.053 0z"></path>
<path d="M5.717 14.517h-0.043c-0.032 0-0.064 0-0.096 0h-2.059c-0.032 0-0.064 0-0.096 0h-0.043c-0.661 0-1.205-0.544-1.205-1.205v-2.325c0-0.64 0.512-1.173 1.152-1.205 0.021 0 0.043 0 0.064 0h2.315c0.021 0 0.043 0 0.064 0 0.64 0.032 1.152 0.555 1.152 1.205v2.325c0 0.672-0.533 1.205-1.205 1.205zM3.499 13.397h2.112c0.021 0 0.043 0 0.053 0h0.053c0.043 0 0.085-0.043 0.085-0.085v-2.325c0-0.043-0.032-0.085-0.085-0.085h-0.011c-0.021 0-0.032 0-0.053 0h-2.197c-0.021 0-0.032 0-0.053 0h-0.011c-0.043 0-0.085 0.032-0.085 0.085v2.325c0 0.043 0.043 0.085 0.085 0.085h0.043c0.011 0 0.043 0 0.064 0z"></path>
<path d="M29.813 23.765h-0.085c-0.053 0-0.107 0-0.16-0.011h-4.107c-0.053 0-0.107 0.011-0.16 0.011h-0.085c-1.003 0-1.824-0.821-1.824-1.824v-4.587c0-0.981 0.789-1.792 1.76-1.824 0.021 0 0.053-0.011 0.075-0.011h4.544c0.032 0 0.053 0 0.085 0.011 0.971 0.032 1.76 0.832 1.76 1.824v4.587c0.021 1.013-0.8 1.824-1.803 1.824zM25.44 22.645h4.16c0.021 0 0.043 0 0.053 0 0.021 0 0.053 0 0.075 0h0.085c0.384 0 0.704-0.32 0.704-0.704v-4.587c0-0.395-0.309-0.704-0.704-0.704h-0.021c-0.021 0-0.053 0-0.075 0h-4.405c-0.021 0-0.053 0-0.075 0h-0.021c-0.395 0-0.704 0.309-0.704 0.704v4.587c0 0.384 0.32 0.704 0.704 0.704h0.085c0.021 0 0.053 0 0.075 0s0.043 0 0.064 0z"></path>
<path d="M28.704 14.645h-0.043c-0.032 0-0.064 0-0.096 0h-2.069c-0.032 0-0.064 0-0.096 0h-0.043c-0.661 0-1.205-0.544-1.205-1.205v-2.325c0-0.64 0.512-1.173 1.152-1.205 0.021 0 0.043 0 0.064 0h2.325c0.021 0 0.043 0 0.064 0 0.64 0.032 1.152 0.555 1.152 1.205v2.325c-0.011 0.661-0.544 1.205-1.205 1.205zM26.475 13.525h2.112c0.021 0 0.043 0 0.064 0h0.053c0.043 0 0.085-0.043 0.085-0.085v-2.325c0-0.043-0.032-0.085-0.085-0.085h-0.011c-0.021 0-0.032 0-0.053 0h-2.208c-0.021 0-0.032 0-0.053 0h-0.011c-0.043 0-0.085 0.032-0.085 0.085v2.325c0 0.043 0.043 0.085 0.085 0.085h0.043c0.021 0 0.043 0 0.064 0z"></path>
<path d="M19.275 23.819h-0.117c-0.075 0-0.139 0-0.213-0.011h-5.803c-0.075 0.011-0.149 0.011-0.213 0.011h-0.117c-1.291 0-2.336-1.045-2.336-2.336v-6.453c0-1.269 1.013-2.304 2.283-2.336 0.032 0 0.064-0.011 0.096-0.011h6.4c0.032 0 0.064 0 0.096 0.011 1.259 0.032 2.272 1.067 2.272 2.336v6.453c-0.011 1.291-1.056 2.336-2.347 2.336zM13.109 22.688h5.856c0.021 0 0.043 0 0.053 0 0.043 0 0.085 0.011 0.128 0.011h0.117c0.672 0 1.216-0.544 1.216-1.216v-6.453c0-0.672-0.544-1.216-1.216-1.216h-0.021c-0.032 0-0.064 0-0.085-0.011h-6.229c-0.032 0-0.053 0.011-0.085 0.011h-0.032c-0.672 0-1.216 0.544-1.216 1.216v6.453c0 0.672 0.544 1.216 1.216 1.216h0.117c0.043 0 0.085 0 0.128-0.011 0.011 0 0.032 0 0.053 0z"></path>
<path d="M17.707 11.648h-0.053c-0.043 0-0.085 0-0.117 0h-2.933c-0.043 0-0.085 0-0.117 0h-0.053c-0.811 0-1.461-0.661-1.461-1.461v-3.285c0-0.789 0.629-1.429 1.408-1.461 0.021 0 0.043 0 0.075 0h3.253c0.021 0 0.053 0 0.075 0 0.779 0.032 1.408 0.672 1.408 1.461v3.285c-0.021 0.8-0.683 1.461-1.483 1.461zM14.571 10.517h2.976c0.021 0 0.043 0 0.053 0s0.021 0 0.032 0h0.053c0.192 0 0.341-0.149 0.341-0.341v-3.275c0-0.192-0.149-0.341-0.341-0.341h-0.011c-0.021 0-0.043 0-0.064 0h-3.136c-0.021 0-0.043 0-0.064 0h-0.011c-0.192 0-0.341 0.149-0.341 0.341v3.285c0 0.192 0.149 0.341 0.341 0.341h0.053c0.011 0 0.021 0 0.032 0 0.043-0.011 0.064-0.011 0.085-0.011z"></path>
</svg>
