<?xml version="1.0" encoding="utf-8"?>
<!-- Generated by IcoMoon.io -->
<!DOCTYPE svg PUBLIC "-//W3C//DTD SVG 1.1//EN" "http://www.w3.org/Graphics/SVG/1.1/DTD/svg11.dtd">
<svg version="1.1" xmlns="http://www.w3.org/2000/svg" xmlns:xlink="http://www.w3.org/1999/xlink" width="32" height="32" viewBox="0 0 32 32">
<path fill="#444" d="M3.307 24.971c-0.181 0-0.373-0.053-0.533-0.171-0.416-0.299-0.512-0.875-0.213-1.291l10.784-15.136c0.608-0.843 1.547-1.333 2.581-1.333 0 0 0.011 0 0.011 0 1.035 0 1.973 0.48 2.581 1.323l10.923 15.147c0.299 0.416 0.203 0.992-0.213 1.291s-0.992 0.203-1.291-0.213l-10.923-15.147c-0.256-0.352-0.651-0.555-1.077-0.555 0 0 0 0 0 0-0.437 0-0.832 0.203-1.077 0.555l-10.795 15.136c-0.181 0.256-0.469 0.395-0.757 0.395z"></path>
</svg>
