<?xml version="1.0" encoding="utf-8"?>
<!-- Generated by IcoMoon.io -->
<!DOCTYPE svg PUBLIC "-//W3C//DTD SVG 1.1//EN" "http://www.w3.org/Graphics/SVG/1.1/DTD/svg11.dtd">
<svg version="1.1" xmlns="http://www.w3.org/2000/svg" xmlns:xlink="http://www.w3.org/1999/xlink" width="32" height="32" viewBox="0 0 32 32">
<path fill="#444" d="M25.845 26.795h-19.637c-3.296 0-5.973-2.677-5.973-5.973v-0.341c0-2.891 2.048-5.333 4.843-5.867 0.533-5.472 5.141-9.685 10.688-9.685 5.515 0 10.112 4.181 10.677 9.611 1.387 0.139 2.677 0.747 3.659 1.749 1.099 1.12 1.707 2.603 1.707 4.181v0.341c0.011 3.307-2.667 5.984-5.963 5.984zM15.765 6.048c-5.109 0-9.323 3.989-9.611 9.088-0.011 0.277-0.224 0.491-0.501 0.523-2.453 0.277-4.309 2.347-4.309 4.821v0.341c0 2.677 2.176 4.853 4.853 4.853h19.637c2.677 0 4.853-2.176 4.853-4.853v-0.341c0-2.677-2.101-4.8-4.768-4.843-0.288 0-0.533-0.235-0.555-0.523-0.288-5.088-4.512-9.067-9.6-9.067z"></path>
<path fill="#444" d="M16.011 22.539c-0.309 0-0.555-0.245-0.555-0.555l-0.011-11.499c0-0.309 0.245-0.565 0.555-0.565 0 0 0 0 0 0 0.309 0 0.555 0.245 0.555 0.555l0.011 11.499c0 0.309-0.245 0.565-0.555 0.565 0 0 0 0 0 0z"></path>
<path fill="#444" d="M16.011 22.539c-0.139 0-0.288-0.053-0.395-0.16-0.224-0.213-0.224-0.576 0-0.789l4.779-4.789c0.213-0.224 0.576-0.224 0.789 0 0.224 0.213 0.224 0.576 0 0.789l-4.779 4.789c-0.107 0.107-0.256 0.16-0.395 0.16z"></path>
<path fill="#444" d="M16.011 22.539c-0.139 0-0.288-0.053-0.395-0.16l-4.789-4.789c-0.224-0.213-0.224-0.576 0-0.789 0.213-0.224 0.576-0.224 0.789 0l4.789 4.789c0.213 0.213 0.213 0.576 0 0.789-0.107 0.107-0.256 0.16-0.395 0.16z"></path>
</svg>
