<?xml version="1.0" encoding="utf-8"?>
<!-- Generated by IcoMoon.io -->
<!DOCTYPE svg PUBLIC "-//W3C//DTD SVG 1.1//EN" "http://www.w3.org/Graphics/SVG/1.1/DTD/svg11.dtd">
<svg version="1.1" xmlns="http://www.w3.org/2000/svg" xmlns:xlink="http://www.w3.org/1999/xlink" width="32" height="32" viewBox="0 0 32 32">
<path fill="#444" d="M16.064 24.971c-1.035 0-1.973-0.48-2.581-1.323l-10.923-15.147c-0.299-0.416-0.203-0.992 0.213-1.291s0.992-0.203 1.291 0.213l10.923 15.147c0.256 0.352 0.672 0.544 1.088 0.555 0.437 0 0.832-0.203 1.077-0.555l10.784-15.147c0.299-0.416 0.875-0.512 1.291-0.213s0.512 0.875 0.213 1.291l-10.784 15.125c-0.597 0.853-1.536 1.333-2.592 1.344 0.011 0 0.011 0 0 0z"></path>
</svg>
