<?xml version="1.0" encoding="utf-8"?>
<!-- Generated by IcoMoon.io -->
<!DOCTYPE svg PUBLIC "-//W3C//DTD SVG 1.1//EN" "http://www.w3.org/Graphics/SVG/1.1/DTD/svg11.dtd">
<svg version="1.1" xmlns="http://www.w3.org/2000/svg" xmlns:xlink="http://www.w3.org/1999/xlink" width="32" height="32" viewBox="0 0 32 32">
<path fill="#444" d="M21.521 30.177h-17.916c-0.824 0-1.5-0.676-1.5-1.5v-25.417c0-0.824 0.676-1.5 1.5-1.5h17.895c0.824 0 1.5 0.676 1.5 1.5v6.36c0 0.19-0.148 0.338-0.338 0.338s-0.338-0.148-0.338-0.338v-6.36c0-0.444-0.359-0.803-0.803-0.803h-17.916c-0.444 0-0.803 0.359-0.803 0.803v25.417c0 0.444 0.359 0.803 0.803 0.803h17.895c0.444 0 0.803-0.359 0.803-0.803v-10.247c0-0.19 0.148-0.338 0.338-0.338s0.338 0.148 0.338 0.338v10.247c0.042 0.824-0.634 1.5-1.458 1.5z"></path>
<path fill="#444" d="M17.443 24.472h-8.789c-0.338 0-0.613-0.275-0.613-0.613v-13.057c0-2.662 2.155-4.817 4.817-4.817h0.296c2.282 0 4.268 1.606 4.712 3.845 0.042 0.19-0.085 0.359-0.275 0.401s-0.359-0.085-0.401-0.275c-0.38-1.902-2.092-3.296-4.035-3.296h-0.296c-2.282 0-4.12 1.859-4.12 4.12v12.994h8.705c0.19 0 0.338 0.148 0.338 0.338s-0.148 0.359-0.338 0.359z"></path>
<path fill="#444" d="M13.978 16.296h-7.944c-0.19 0-0.338-0.148-0.338-0.338s0.148-0.338 0.338-0.338h7.923c0.19 0 0.338 0.148 0.338 0.338 0.021 0.169-0.127 0.338-0.317 0.338z"></path>
<path fill="#444" d="M21.415 18.789c-0.423 0-0.803-0.254-0.951-0.655l-1.141-2.916c-0.148-0.359-0.105-0.782 0.105-1.12l5.641-8.874c0.507-0.824 1.31-1.373 2.261-1.585 0.929-0.211 1.902-0.042 2.704 0.486l0.169 0.105c0.803 0.507 1.373 1.31 1.584 2.24s0.042 1.902-0.486 2.704l-5.62 8.874c-0.232 0.359-0.613 0.57-1.014 0.592l-3.19 0.148c-0.021 0-0.042 0-0.064 0zM23.633 8.795l-3.613 5.683c-0.085 0.148-0.105 0.338-0.042 0.486l1.141 2.916c0.042 0.127 0.19 0.232 0.338 0.211l3.19-0.148c0.19 0 0.359-0.105 0.465-0.275l5.62-8.852c0.423-0.655 0.549-1.437 0.38-2.197s-0.634-1.394-1.289-1.817l-0.169-0.105c-0.655-0.423-1.437-0.549-2.176-0.38-0.761 0.169-1.394 0.613-1.817 1.289l-2.028 3.19z"></path>
<path fill="#444" d="M17.443 24.472c-0.064 0-0.127-0.021-0.19-0.064-0.169-0.105-0.211-0.317-0.105-0.465l10.289-16.163c0.105-0.169 0.317-0.211 0.465-0.105 0.169 0.105 0.211 0.317 0.105 0.465l-10.289 16.163c-0.064 0.105-0.169 0.169-0.275 0.169z"></path>
</svg>
