<?xml version="1.0" encoding="utf-8"?>
<!-- Generated by IcoMoon.io -->
<!DOCTYPE svg PUBLIC "-//W3C//DTD SVG 1.1//EN" "http://www.w3.org/Graphics/SVG/1.1/DTD/svg11.dtd">
<svg version="1.1" xmlns="http://www.w3.org/2000/svg" xmlns:xlink="http://www.w3.org/1999/xlink" width="32" height="32" viewBox="0 0 32 32">
<path d="M22.891 20.459c-0.309 0-0.555-0.256-0.555-0.555v-7.648c0-3.307-2.688-5.995-5.995-5.995h-0.416c-3.307 0-5.995 2.688-5.995 5.995v4.853c0 0.309-0.256 0.555-0.555 0.555s-0.555-0.256-0.555-0.555v-4.853c0-1.909 0.736-3.701 2.091-5.045 1.344-1.333 3.125-2.069 5.024-2.069h0.416c1.899 0 3.691 0.736 5.024 2.069 1.344 1.344 2.091 3.136 2.091 5.045v7.648c-0.011 0.299-0.267 0.555-0.576 0.555z"></path>
<path d="M20.853 20.32h-0.128c-1.44 0-2.613-1.173-2.613-2.613v-2.4c0-1.44 1.173-2.613 2.613-2.613h0.128c1.44 0 2.613 1.173 2.613 2.613v2.4c0.011 1.44-1.163 2.613-2.613 2.613zM20.725 13.803c-0.821 0-1.493 0.672-1.493 1.493v2.4c0 0.821 0.672 1.493 1.493 1.493h0.128c0.821 0 1.493-0.672 1.493-1.493v-2.4c0-0.821-0.672-1.493-1.493-1.493h-0.128z"></path>
<path d="M11.552 20.32h-0.128c-1.44 0-2.613-1.173-2.613-2.613v-2.4c0-1.44 1.173-2.613 2.613-2.613h0.128c1.44 0 2.613 1.173 2.613 2.613v2.4c0.011 1.44-1.163 2.613-2.613 2.613zM11.424 13.803c-0.821 0-1.493 0.672-1.493 1.493v2.4c0 0.821 0.672 1.493 1.493 1.493h0.128c0.821 0 1.493-0.672 1.493-1.493v-2.4c0-0.821-0.672-1.493-1.493-1.493h-0.128z"></path>
<path d="M18.987 23.147c-0.267 0-0.501-0.192-0.555-0.459-0.053-0.299 0.139-0.597 0.448-0.651l1.984-0.373c0.885-0.171 1.493-0.885 1.461-1.749-0.011-0.309 0.235-0.565 0.544-0.576 0.011 0 0.011 0 0.021 0 0.299 0 0.555 0.235 0.555 0.544 0.043 1.397-0.96 2.613-2.379 2.88l-1.984 0.373c-0.032 0.011-0.064 0.011-0.096 0.011z"></path>
<path d="M17.397 22.944l-0.011-0.032c-0.053-0.277 0.117-0.544 0.395-0.608l0.587-0.117c0.277-0.053 0.544 0.117 0.608 0.395l0.011 0.032c0.053 0.277-0.117 0.544-0.395 0.608l-0.587 0.117c-0.277 0.053-0.544-0.117-0.608-0.395z"></path>
<path d="M17.899 23.829c-0.192 0-0.373-0.053-0.544-0.16-0.224-0.149-0.373-0.363-0.427-0.629l-0.011-0.032c-0.117-0.533 0.235-1.067 0.768-1.173l0.587-0.117c0.256-0.053 0.523 0 0.747 0.139 0.224 0.149 0.373 0.363 0.427 0.629l0.011 0.032c0.117 0.533-0.235 1.067-0.768 1.173l-0.587 0.117c-0.064 0.011-0.128 0.021-0.203 0.021zM18.485 22.645c0 0-0.011 0 0 0l-0.597 0.128c-0.021 0-0.032 0.021-0.021 0.043l0.011 0.032c0 0 0 0 0 0s0 0.011 0.011 0.021c0.011 0.011 0.021 0.011 0.021 0l0.587-0.117c0.021 0 0.032-0.021 0.021-0.043l-0.011-0.032c0 0 0-0.011-0.011-0.021 0-0.011-0.011-0.011-0.011-0.011z"></path>
<path d="M30.315 30.421c-0.331 0-0.651-0.128-0.885-0.384l-3.392-3.52c-0.224-0.235-0.544-0.373-0.864-0.373h-19.52c-2.88 0.011-5.227-2.336-5.227-5.216v-13.525c0-2.88 2.347-5.227 5.227-5.227h20.661c2.891 0 5.237 2.347 5.237 5.237v13.515c0 0.021 0 0.043 0 0.075v8.192c0 0.501-0.299 0.96-0.768 1.141-0.16 0.064-0.309 0.085-0.469 0.085zM5.653 3.296c-2.272 0-4.117 1.845-4.117 4.117v13.515c0 2.272 1.845 4.117 4.117 4.117h19.509c0.629 0 1.237 0.256 1.675 0.715l3.392 3.52c0.011 0.011 0.053 0.053 0.128 0.032 0.075-0.032 0.075-0.085 0.075-0.107v-8.213c0-0.021 0-0.043 0-0.064v-13.525c0-2.272-1.845-4.117-4.117-4.117h-20.661z"></path>
</svg>
