<?xml version="1.0" encoding="utf-8"?>
<!-- Generated by IcoMoon.io -->
<!DOCTYPE svg PUBLIC "-//W3C//DTD SVG 1.1//EN" "http://www.w3.org/Graphics/SVG/1.1/DTD/svg11.dtd">
<svg version="1.1" xmlns="http://www.w3.org/2000/svg" xmlns:xlink="http://www.w3.org/1999/xlink" width="32" height="32" viewBox="0 0 32 32">
<path fill="#444" d="M28.288 15.189c0.075 0.011 0.149 0.011 0.224 0.011 0.448 0 0.875-0.149 1.237-0.448l0.299-0.235c0.267-0.213 0.48-0.491 0.608-0.811l0.949-2.293c0.085-0.203 0.053-0.437-0.085-0.608s-0.363-0.245-0.576-0.213l-2.432 0.416c-0.331 0.064-0.651 0.203-0.917 0.416l-0.309 0.245c-0.053 0.043-0.107 0.085-0.149 0.139-0.192-0.811-0.469-1.589-0.832-2.325 0.533-0.085 1.003-0.416 1.259-0.939l0.139-0.277c0.128-0.256 0.192-0.555 0.181-0.853l-0.085-2.027c-0.011-0.224-0.139-0.416-0.331-0.512-0.203-0.096-0.427-0.085-0.608 0.043l-1.664 1.152c-0.245 0.171-0.448 0.395-0.576 0.661l-0.064 0.139c-0.309-0.352-0.64-0.683-1.003-0.992 0.107-0.608-0.149-1.237-0.693-1.589l-0.224-0.149c-0.235-0.149-0.491-0.224-0.757-0.245l-1.728-0.107c-0.213-0.011-0.416 0.096-0.533 0.277s-0.128 0.405-0.021 0.597l0.832 1.515c0.128 0.235 0.32 0.437 0.544 0.576l0.235 0.149c0.256 0.16 0.544 0.245 0.832 0.245 0.117 0 0.224-0.021 0.331-0.032 0.224-0.053 0.427-0.149 0.597-0.277 0.181 0.16 0.352 0.331 0.523 0.512l-0.203 0.011c-0.299 0.021-0.587 0.117-0.832 0.277l-1.696 1.109c-0.181 0.117-0.277 0.331-0.267 0.544 0.011 0.224 0.149 0.405 0.341 0.501l1.835 0.843c0.224 0.107 0.48 0.16 0.736 0.16 0.043 0 0.085 0 0.117-0.011l0.32-0.021c0.459-0.032 0.875-0.235 1.173-0.587 0.096-0.107 0.171-0.224 0.235-0.341 0.277 0.555 0.501 1.131 0.672 1.728l-0.267-0.107c-0.32-0.128-0.661-0.16-1.003-0.117l-2.453 0.341c-0.213 0.032-0.405 0.181-0.48 0.384-0.075 0.213-0.032 0.437 0.107 0.608l1.589 1.888c0.213 0.267 0.501 0.469 0.821 0.587l0.363 0.139c0.235 0.085 0.469 0.128 0.704 0.128 0.363 0 0.704-0.096 1.013-0.277-0.053 0.789-0.192 1.557-0.416 2.304-0.011-0.021-0.032-0.053-0.043-0.085l-0.235-0.363c-0.203-0.309-0.48-0.565-0.811-0.747l-2.475-1.312c-0.192-0.107-0.437-0.096-0.619 0.021s-0.288 0.331-0.277 0.555l0.192 2.784c0.032 0.373 0.149 0.736 0.352 1.045l0.245 0.373c0.32 0.48 0.8 0.821 1.365 0.939 0.149 0.032 0.309 0.053 0.459 0.053 0.075 0 0.139 0 0.213-0.011-0.149 0.203-0.309 0.405-0.48 0.597-0.459 0.533-0.971 1.003-1.525 1.419 0.032-0.181 0.053-0.373 0.043-0.565l-0.021-0.48c-0.021-0.395-0.139-0.789-0.352-1.131l-1.621-2.613c-0.117-0.192-0.331-0.299-0.555-0.288s-0.427 0.139-0.523 0.341l-1.344 2.741c-0.171 0.363-0.256 0.768-0.235 1.163l0.021 0.491c0.032 0.619 0.299 1.184 0.757 1.6 0.192 0.171 0.405 0.299 0.619 0.395-0.512 0.16-1.045 0.277-1.579 0.363-0.309 0.043-0.523 0.32-0.48 0.629 0.043 0.277 0.277 0.48 0.555 0.48 0.032 0 0.053 0 0.075 0 0.661-0.096 1.312-0.245 1.931-0.459-0.064 0.363-0.043 0.725 0.075 1.088 0.181 0.597 0.587 1.077 1.131 1.365l0.427 0.224c0.331 0.171 0.715 0.267 1.099 0.267 0.011 0 0.032-0.011 0.043 0l3.072-0.064c0.224-0.011 0.427-0.128 0.533-0.331 0.107-0.192 0.096-0.437-0.032-0.619l-1.685-2.549c-0.213-0.341-0.523-0.619-0.875-0.8l-0.427-0.224c-0.032-0.021-0.064-0.032-0.096-0.043 0.651-0.48 1.259-1.035 1.803-1.664 0.181-0.213 0.363-0.427 0.523-0.651 0.341 0.757 1.099 1.269 1.973 1.269 0.032 0 0.064 0 0.096 0l0.437-0.021c0.373-0.011 0.736-0.128 1.056-0.32l2.4-1.461c0.181-0.117 0.299-0.32 0.288-0.544s-0.139-0.427-0.341-0.523l-2.496-1.248c-0.331-0.171-0.704-0.245-1.077-0.235l-0.448 0.021c-0.085 0-0.171 0.011-0.256 0.021 0.395-1.109 0.619-2.272 0.661-3.456 0.256 0.16 0.544 0.267 0.853 0.309zM27.968 12.544l0.309-0.245c0.128-0.096 0.267-0.16 0.416-0.181l1.515-0.256-0.608 1.429c-0.053 0.139-0.149 0.267-0.267 0.363l-0.299 0.235c-0.181 0.139-0.405 0.203-0.629 0.181-0.235-0.032-0.437-0.139-0.576-0.32-0.288-0.373-0.235-0.907 0.139-1.205zM23.168 19.104l-0.245-0.373c-0.096-0.16-0.16-0.341-0.171-0.523l-0.128-1.867 1.653 0.896c0.171 0.085 0.309 0.213 0.405 0.373l0.235 0.363c0.32 0.48 0.171 1.131-0.309 1.44-0.48 0.32-1.131 0.171-1.44-0.309zM18.773 21.813c-0.011-0.203 0.032-0.416 0.128-0.608l0.939-1.92 1.152 1.835c0.107 0.181 0.171 0.384 0.181 0.597l0.021 0.48c0.032 0.651-0.48 1.216-1.141 1.248-0.32 0.021-0.629-0.096-0.864-0.309-0.245-0.224-0.384-0.512-0.395-0.832l-0.021-0.491zM23.285 25.355l1.184 1.792-2.155 0.043c-0.213 0.011-0.416-0.043-0.608-0.139l-0.427-0.224c-0.288-0.149-0.491-0.405-0.587-0.704s-0.064-0.619 0.085-0.907c0.149-0.288 0.395-0.491 0.704-0.587 0.117-0.032 0.235-0.053 0.352-0.053 0.192 0 0.384 0.043 0.565 0.139l0.427 0.224c0.181 0.096 0.341 0.235 0.459 0.416zM27.072 19.445l0.448-0.021c0.011 0 0.032 0 0.043 0 0.171 0 0.341 0.032 0.491 0.117l1.675 0.832-1.611 0.981c-0.16 0.096-0.341 0.149-0.523 0.16l-0.437 0.021c-0.576 0.021-1.067-0.427-1.088-1.003s0.427-1.067 1.003-1.088zM25.483 7.52l0.139-0.288c0.053-0.096 0.128-0.181 0.213-0.245l0.885-0.608 0.032 1.088c0.011 0.107-0.021 0.213-0.064 0.309l-0.139 0.277c-0.139 0.288-0.501 0.416-0.8 0.267-0.075-0.032-0.139-0.085-0.181-0.139-0.021-0.043-0.053-0.085-0.085-0.117-0.075-0.171-0.085-0.363 0-0.544zM22.411 5.813c-0.053 0.096-0.149 0.171-0.267 0.192-0.107 0.032-0.224 0.011-0.32-0.053l-0.235-0.149c-0.064-0.043-0.117-0.107-0.16-0.171l-0.373-0.672 0.779 0.032c0.085 0.011 0.16 0.032 0.224 0.075l0.224 0.149c0.192 0.128 0.256 0.395 0.128 0.597zM24.181 9.44c-0.107 0.117-0.256 0.192-0.416 0.203l-0.32 0.021c-0.107 0.011-0.213-0.011-0.309-0.053l-0.971-0.448 0.917-0.608c0.085-0.053 0.192-0.085 0.299-0.096l0.309-0.021c0.16-0.011 0.32 0.043 0.437 0.149s0.192 0.256 0.203 0.416c0.011 0.16-0.043 0.32-0.149 0.437zM26.101 13.749c-0.171 0.437-0.672 0.661-1.109 0.491l-0.363-0.139c-0.139-0.064-0.267-0.149-0.363-0.267l-0.992-1.173 1.525-0.213c0.149-0.021 0.309 0 0.448 0.053l0.363 0.139c0.437 0.171 0.661 0.672 0.491 1.109z"></path>
<path fill="#444" d="M14.411 24.704c-0.427-0.064-0.843-0.16-1.259-0.277 0.693-0.373 1.184-1.077 1.227-1.92l0.021-0.491c0.021-0.405-0.064-0.8-0.235-1.163l-1.344-2.741c-0.096-0.203-0.299-0.331-0.523-0.341s-0.437 0.096-0.555 0.288l-1.621 2.613c-0.213 0.341-0.331 0.736-0.352 1.131l-0.021 0.48c-0.011 0.16 0 0.309 0.021 0.459-0.576-0.437-1.12-0.939-1.6-1.493-0.117-0.139-0.224-0.277-0.341-0.416 0.053 0 0.107 0.011 0.171 0.011 0.149 0 0.309-0.011 0.448-0.064 0.565-0.117 1.056-0.448 1.365-0.939l0.245-0.373c0.203-0.309 0.331-0.672 0.352-1.045l0.192-2.784c0.011-0.224-0.096-0.437-0.277-0.555s-0.427-0.128-0.619-0.021l-2.475 1.333c-0.331 0.171-0.608 0.437-0.811 0.747l-0.235 0.363c-0.021 0.032-0.032 0.064-0.053 0.096-0.235-0.757-0.395-1.547-0.448-2.347 0.32 0.203 0.683 0.309 1.067 0.309 0.235 0 0.469-0.043 0.704-0.139l0.363-0.139c0.32-0.128 0.597-0.331 0.821-0.587l1.6-1.888c0.149-0.171 0.181-0.405 0.107-0.608s-0.267-0.352-0.48-0.384l-2.453-0.341c-0.341-0.043-0.683 0-1.003 0.117l-0.363 0.139c-0.011 0-0.021 0.011-0.032 0.011 0.181-0.651 0.416-1.291 0.725-1.888 0.075 0.171 0.16 0.32 0.288 0.469 0.299 0.341 0.715 0.555 1.173 0.587l0.32 0.021c0.043 0 0.085 0 0.128 0 0.256 0 0.501-0.053 0.736-0.16l1.835-0.832c0.192-0.096 0.331-0.288 0.341-0.501 0.021-0.213-0.085-0.427-0.267-0.544l-1.707-1.109c-0.245-0.16-0.533-0.256-0.832-0.277l-0.309-0.021c-0.021 0-0.043 0-0.064 0 0.192-0.203 0.384-0.405 0.597-0.597 0.288 0.256 0.661 0.395 1.035 0.395 0.288 0 0.576-0.075 0.821-0.245l0.235-0.149c0.235-0.139 0.416-0.341 0.544-0.576l0.832-1.515c0.096-0.181 0.096-0.416-0.021-0.597s-0.32-0.288-0.533-0.277l-1.728 0.107c-0.267 0.021-0.533 0.107-0.757 0.245l-0.235 0.149c-0.352 0.224-0.597 0.565-0.683 0.971-0.032 0.149-0.043 0.299-0.043 0.437-0.373 0.32-0.715 0.661-1.035 1.024-0.139-0.256-0.331-0.48-0.565-0.64l-1.664-1.152c-0.181-0.128-0.416-0.139-0.608-0.043s-0.32 0.299-0.331 0.512l-0.085 2.027c-0.011 0.288 0.053 0.587 0.181 0.853l0.139 0.277c0.245 0.469 0.661 0.779 1.131 0.896-0.341 0.725-0.597 1.483-0.789 2.272-0.021-0.011-0.032-0.032-0.053-0.043l-0.309-0.245c-0.267-0.213-0.576-0.363-0.917-0.416l-2.432-0.416c-0.224-0.032-0.437 0.053-0.576 0.224s-0.171 0.405-0.085 0.608l0.949 2.293c0.128 0.32 0.341 0.597 0.608 0.811l0.299 0.235c0.363 0.288 0.8 0.427 1.227 0.427 0.352 0 0.704-0.096 1.013-0.277 0.064 1.173 0.299 2.336 0.715 3.424-0.075-0.011-0.16-0.021-0.235-0.021l-0.448-0.021c-0.373-0.011-0.747 0.064-1.077 0.235l-2.496 1.248c-0.203 0.107-0.331 0.299-0.341 0.523s0.096 0.427 0.288 0.544l2.411 1.461c0.32 0.192 0.683 0.309 1.056 0.32l0.437 0.021c0.021 0 0.053 0 0.085 0 0.544 0 1.056-0.203 1.472-0.576 0.224-0.213 0.405-0.459 0.523-0.736 0.128 0.171 0.256 0.331 0.395 0.491 0.597 0.683 1.259 1.291 1.984 1.813-0.064 0.021-0.128 0.053-0.181 0.085l-0.427 0.224c-0.352 0.192-0.651 0.469-0.875 0.8l-1.685 2.549c-0.128 0.181-0.139 0.416-0.032 0.619s0.309 0.331 0.533 0.331l3.072 0.064c0.021 0 0.032 0 0.053 0 0.384 0 0.768-0.096 1.088-0.267l0.427-0.224c0.96-0.501 1.419-1.589 1.173-2.592 0.587 0.192 1.184 0.331 1.792 0.427 0.032 0.011 0.053 0.011 0.085 0.011 0.277 0 0.512-0.192 0.544-0.469 0.043-0.309-0.16-0.597-0.469-0.64zM10.901 21.856c0.011-0.213 0.075-0.416 0.181-0.597l1.131-1.835 0.949 1.92c0.096 0.181 0.139 0.395 0.128 0.608l-0.021 0.491c-0.032 0.661-0.587 1.173-1.248 1.141s-1.173-0.587-1.141-1.248l0.021-0.48zM7.125 18.123l0.235-0.363c0.107-0.16 0.245-0.288 0.405-0.373l1.664-0.896-0.117 1.867c-0.011 0.192-0.075 0.363-0.171 0.523l-0.245 0.373c-0.16 0.235-0.384 0.395-0.661 0.459s-0.555 0.011-0.789-0.139c-0.235-0.16-0.395-0.384-0.459-0.661s-0.011-0.555 0.139-0.789zM9.579 5.643c0.032-0.107 0.096-0.203 0.192-0.267l0.224-0.149c0.075-0.043 0.149-0.075 0.224-0.075l0.779-0.043-0.373 0.661c-0.043 0.075-0.096 0.128-0.16 0.171l-0.235 0.149c-0.203 0.128-0.469 0.075-0.597-0.128-0.053-0.096-0.075-0.203-0.053-0.32zM4.203 13.899c-0.299 0.373-0.832 0.437-1.205 0.139l-0.299-0.235c-0.117-0.096-0.213-0.224-0.267-0.363l-0.587-1.429 1.493 0.256c0.149 0.021 0.299 0.085 0.416 0.181l0.309 0.245c0.181 0.149 0.299 0.352 0.32 0.576s-0.043 0.448-0.181 0.629zM5.643 21.397c-0.203 0.192-0.469 0.288-0.747 0.277l-0.437-0.021c-0.181-0.011-0.363-0.064-0.523-0.16l-1.611-0.981 1.664-0.832c0.16-0.085 0.352-0.128 0.533-0.117l0.448 0.021c0.576 0.021 1.024 0.512 1.003 1.088-0.011 0.277-0.128 0.533-0.331 0.725zM6.443 12.789l0.363-0.139c0.096-0.043 0.213-0.064 0.32-0.064 0.032 0 0.075 0 0.107 0.011l1.536 0.213-0.992 1.173c-0.096 0.117-0.224 0.213-0.363 0.267l-0.363 0.139c-0.448 0.171-0.939-0.053-1.109-0.491-0.075-0.224-0.075-0.448 0.021-0.661 0.096-0.203 0.267-0.363 0.48-0.448zM8.683 8.64c0.107 0 0.213 0.043 0.299 0.096l0.907 0.587-0.971 0.448c-0.096 0.043-0.203 0.064-0.309 0.053l-0.32-0.021c-0.16-0.011-0.309-0.075-0.416-0.203s-0.16-0.277-0.149-0.437c0.011-0.16 0.085-0.309 0.203-0.416 0.117-0.096 0.245-0.149 0.395-0.149 0.021 0 0.032 0 0.053 0.021l0.309 0.021zM5.493 8.192l-0.139-0.277c-0.043-0.096-0.064-0.203-0.064-0.309l0.043-1.077 0.875 0.597c0.096 0.064 0.171 0.149 0.213 0.245l0.139 0.288c0.032 0.064 0.053 0.139 0.064 0.203-0.149 0.203-0.288 0.416-0.416 0.629-0.277 0.096-0.576-0.032-0.715-0.299zM10.773 26.965l-0.427 0.224c-0.192 0.096-0.395 0.149-0.608 0.139l-2.155-0.043 1.195-1.792c0.107-0.171 0.267-0.32 0.459-0.416l0.427-0.224c0.576-0.309 1.301-0.085 1.611 0.501 0.309 0.576 0.085 1.301-0.501 1.611z"></path>
</svg>
