<?xml version="1.0" encoding="utf-8"?>
<!-- Generated by IcoMoon.io -->
<!DOCTYPE svg PUBLIC "-//W3C//DTD SVG 1.1//EN" "http://www.w3.org/Graphics/SVG/1.1/DTD/svg11.dtd">
<svg version="1.1" xmlns="http://www.w3.org/2000/svg" xmlns:xlink="http://www.w3.org/1999/xlink" width="125" height="32" viewBox="0 0 125 32">
<path fill="#444" d="M10.063 12.942c0-2.011-1.645-3.646-3.592-3.646h-0.336c-1.947 0-3.592 1.636-3.592 3.646v6.202c0 1.976 1.645 3.646 3.592 3.646h0.336c1.947 0 3.592-1.67 3.592-3.646v-6.202zM6.471 24.461h-0.336c-2.887 0-5.237-2.386-5.237-5.316v-6.202c0-2.965 2.35-5.316 5.237-5.316h0.336c2.887 0 5.236 2.352 5.236 5.316v6.202c0 2.93-2.349 5.316-5.236 5.316v0z"></path>
<path fill="#444" d="M26.247 12.909c0-1.977-1.578-3.613-3.558-3.613h-0.302c-1.981 0-3.592 1.738-3.592 3.714v6.066c0 2.010 1.578 3.714 3.592 3.714h0.302c1.98 0 3.558-1.602 3.558-3.612v-6.27zM22.689 24.461h-0.302c-1.377 0-2.954-0.682-3.592-1.67v7.974c0 0.579-0.436 0.852-0.84 0.852s-0.839-0.273-0.839-0.852v-22.286c0-0.58 0.436-0.852 0.839-0.852s0.84 0.273 0.84 0.852v0.818c0.638-0.886 2.215-1.67 3.592-1.67h0.302c2.921 0 5.236 2.386 5.236 5.316v6.202c0 2.964-2.35 5.316-5.236 5.316v0z"></path>
<path fill="#444" d="M42.162 12.942c0-2.011-1.679-3.646-3.559-3.646h-0.336c-1.981 0-3.626 1.636-3.626 3.646v2.249h7.52v-2.249zM42.968 16.895h-8.325v2.249c0 1.976 1.645 3.646 3.592 3.646h0.336c1.544 0 2.854-1.022 3.323-2.454 0.134-0.409 0.436-0.579 0.772-0.579 0.436 0 0.907 0.306 0.907 0.818 0 0.102-0.035 0.204-0.068 0.307-0.705 2.113-2.651 3.578-4.934 3.578h-0.336c-2.887 0-5.237-2.386-5.237-5.316v-6.202c0-2.93 2.35-5.316 5.204-5.316h0.336c2.92 0 5.27 2.249 5.27 5.316v3.101c0 0.443-0.403 0.852-0.839 0.852v0z"></path>
<path fill="#444" d="M58.85 24.461c-0.403 0-0.839-0.273-0.839-0.852v-10.7c0-2.011-1.578-3.613-3.559-3.613h-0.302c-2.014 0-3.592 1.704-3.592 3.714v10.598c0 0.579-0.436 0.852-0.84 0.852s-0.839-0.273-0.839-0.852v-15.13c0-0.58 0.436-0.852 0.839-0.852s0.84 0.273 0.84 0.852v0.818c0.638-0.988 2.215-1.67 3.592-1.67h0.302c2.887 0 5.236 2.352 5.236 5.316v10.666c0 0.579-0.436 0.852-0.839 0.852z"></path>
<path fill="#444" d="M73.893 13.010c0-2.010-1.578-3.714-3.592-3.714h-0.302c-1.981 0-3.559 1.602-3.559 3.612v6.27c0 1.976 1.578 3.612 3.559 3.612h0.302c1.98 0 3.592-1.738 3.592-3.714v-6.066zM74.731 24.461c-0.403 0-0.839-0.273-0.839-0.852v-0.818c-0.638 0.886-2.216 1.67-3.592 1.67h-0.302c-2.921 0-5.237-2.386-5.237-5.316v-6.202c0-2.965 2.35-5.316 5.237-5.316h0.302c1.376 0 2.954 0.682 3.592 1.67v-7.94c0-0.58 0.436-0.852 0.839-0.852s0.839 0.272 0.839 0.852v22.253c0 0.579-0.436 0.852-0.839 0.852v0z"></path>
<path fill="#444" d="M90.781 12.942c0-2.011-1.679-3.646-3.559-3.646h-0.336c-1.981 0-3.626 1.636-3.626 3.646v2.249h7.52v-2.249zM91.587 16.895h-8.325v2.249c0 1.976 1.645 3.646 3.592 3.646h0.336c1.544 0 2.854-1.022 3.323-2.454 0.134-0.409 0.436-0.579 0.772-0.579 0.436 0 0.907 0.306 0.907 0.818 0 0.102-0.035 0.204-0.068 0.307-0.705 2.113-2.651 3.578-4.934 3.578h-0.336c-2.887 0-5.237-2.386-5.237-5.316v-6.202c0-2.93 2.35-5.316 5.204-5.316h0.336c2.921 0 5.27 2.249 5.27 5.316v3.101c0 0.443-0.403 0.852-0.839 0.852v0z"></path>
<path fill="#444" d="M102.333 24.461h-0.604c-2.048 0-4.331-1.329-5.304-3.374-0.033-0.136-0.1-0.272-0.1-0.375 0-0.477 0.47-0.852 0.906-0.852 0.303 0 0.605 0.17 0.739 0.511 0.671 1.431 2.35 2.419 3.76 2.419h0.604c2.282 0 3.793-1.499 3.793-3.17 0-5.52-9.097-1.601-9.097-7.906v-0.17c0-2.249 2.216-3.919 5.103-3.919h0.067c2.82 0 4.733 1.431 4.733 2.215 0 0.444-0.369 0.853-0.805 0.853-0.168 0-0.369-0.068-0.57-0.239-0.873-0.818-1.88-1.159-3.357-1.159h-0.168c-1.377 0-3.358 0.682-3.358 2.283v0.136c0 4.362 9.131 0.955 9.131 7.906 0 3.374-3.122 4.84-5.472 4.84z"></path>
<path fill="#444" d="M123.887 9.091l-4.901 5.282 4.968 8.792c0.101 0.17 0.135 0.307 0.135 0.443 0 0.477-0.437 0.852-0.907 0.852-0.269 0-0.537-0.137-0.705-0.444l-4.7-8.315-3.022 3.237v4.669c0 0.579-0.403 0.852-0.805 0.852-0.436 0-0.839-0.273-0.839-0.852v-22.253c0-0.58 0.403-0.852 0.839-0.852 0.403 0 0.805 0.272 0.805 0.852v15.062l7.889-8.519c0.202-0.205 0.404-0.273 0.604-0.273 0.47 0 0.873 0.409 0.873 0.886 0 0.17-0.033 0.375-0.235 0.579z"></path>
</svg>
