<?xml version="1.0" encoding="utf-8"?>
<!-- Generated by IcoMoon.io -->
<!DOCTYPE svg PUBLIC "-//W3C//DTD SVG 1.1//EN" "http://www.w3.org/Graphics/SVG/1.1/DTD/svg11.dtd">
<svg version="1.1" xmlns="http://www.w3.org/2000/svg" xmlns:xlink="http://www.w3.org/1999/xlink" width="31" height="32" viewBox="0 0 31 32">
<path d="M1.123 15.75c0-8.069 6.444-14.61 14.392-14.61s14.392 6.542 14.392 14.61-6.444 14.61-14.392 14.61c-7.949 0-14.392-6.542-14.392-14.61v0zM0 15.75c0 8.698 6.947 15.75 15.515 15.75s15.515-7.052 15.515-15.75c0-8.698-6.947-15.75-15.515-15.75s-15.515 7.052-15.515 15.75v0z"></path>
<path d="M24.017 10.611l-11.219-4.585c-0.213-0.087-0.456-0.033-0.613 0.137l-5.517 5.957c-0.097 0.105-0.151 0.243-0.151 0.387v8.328c0 0.312 0.249 0.565 0.557 0.565 0.154 0 0.3-0.065 0.405-0.178l5.335-5.761 4.922 2.012v7.947c0 0.312 0.249 0.565 0.557 0.565 0.154 0 0.3-0.064 0.405-0.178l5.517-5.958c0.097-0.105 0.151-0.243 0.151-0.387v-8.328c0-0.231-0.138-0.438-0.349-0.524v0zM7.63 19.41v-6.065l4.074 1.665-4.074 4.4zM18.148 16.424l-10.111-4.132 4.699-5.073 10.11 4.132-4.698 5.073zM23.253 19.239l-4.404 4.755v-6.678l4.404-4.755v6.678z"></path>
</svg>
