<?xml version="1.0" encoding="utf-8"?>
<!-- Generated by IcoMoon.io -->
<!DOCTYPE svg PUBLIC "-//W3C//DTD SVG 1.1//EN" "http://www.w3.org/Graphics/SVG/1.1/DTD/svg11.dtd">
<svg version="1.1" xmlns="http://www.w3.org/2000/svg" xmlns:xlink="http://www.w3.org/1999/xlink" width="26" height="32" viewBox="0 0 26 32">
<path fill="#444" d="M22.724 15.432h-19.855c-0.314 0-0.567 0.254-0.567 0.567s0.254 0.567 0.567 0.567h19.855c0.314 0 0.567-0.254 0.567-0.567s-0.254-0.567-0.567-0.567z"></path>
<path fill="#444" d="M22.724 21.106h-19.855c-0.314 0-0.567 0.254-0.567 0.567s0.254 0.567 0.567 0.567h19.855c0.314 0 0.567-0.254 0.567-0.567s-0.254-0.567-0.567-0.567z"></path>
<path fill="#444" d="M2.869 10.894h19.855c0.314 0 0.567-0.254 0.567-0.567s-0.254-0.567-0.567-0.567h-19.855c-0.314 0-0.567 0.254-0.567 0.567s0.254 0.567 0.567 0.567z"></path>
</svg>
