<?xml version="1.0" encoding="utf-8"?>
<!-- Generated by IcoMoon.io -->
<!DOCTYPE svg PUBLIC "-//W3C//DTD SVG 1.1//EN" "http://www.w3.org/Graphics/SVG/1.1/DTD/svg11.dtd">
<svg version="1.1" xmlns="http://www.w3.org/2000/svg" xmlns:xlink="http://www.w3.org/1999/xlink" width="32" height="32" viewBox="0 0 32 32">
<path d="M11.375 6.961c0.064 0.381 0.212 0.91 0.572 1.143 0.212 0.148 0.572 0.275 1.164 0.381 0.275 0.042 1.567 0.233 2.985 0.254 0 0 0 0 0 0s0 0 0 0 0 0 0 0 0 0 0 0 0 0 0 0 0 0 0 0c1.418-0.021 2.71-0.212 2.985-0.254 0.572-0.106 0.953-0.233 1.143-0.381 0.36-0.254 0.508-0.783 0.572-1.143 0.085-0.36 0.106-0.741 0.106-1.207 0 0 0 0 0 0 0.021-0.487-0.064-1.080-0.085-1.334-0.064-0.381-0.212-0.91-0.572-1.143-0.212-0.148-0.572-0.275-1.164-0.381-0.148-0.021-1.461-0.254-2.964-0.275-0.021 0-0.106 0-0.106 0-1.503 0.021-2.816 0.254-2.964 0.275-0.572 0.106-0.953 0.233-1.143 0.381-0.36 0.254-0.508 0.783-0.572 1.164-0.042 0.233-0.106 0.847-0.085 1.313s0.042 0.847 0.127 1.207zM12.031 4.547c0.106-0.55 0.233-0.677 0.275-0.72 0.064-0.042 0.254-0.148 0.868-0.254 0.148-0.021 1.397-0.254 2.837-0.275 0.021 0 0.085 0 0.106 0 1.44 0.021 2.71 0.254 2.837 0.275 0.635 0.106 0.826 0.212 0.889 0.254 0.042 0.021 0.169 0.169 0.275 0.699 0.021 0.212 0.106 0.783 0.085 1.207 0 0 0 0 0 0s0 0 0 0c0 0.55-0.042 0.847-0.106 1.080-0.106 0.55-0.233 0.677-0.275 0.72-0.064 0.042-0.254 0.148-0.868 0.254-0.254 0.042-1.503 0.233-2.879 0.254-1.376-0.021-2.604-0.191-2.879-0.254-0.635-0.106-0.826-0.212-0.889-0.254-0.042-0.021-0.169-0.169-0.275-0.72-0.042-0.212-0.106-0.529-0.106-1.080 0 0 0 0 0 0s0 0 0 0c0-0.423 0.085-0.974 0.106-1.186z"></path>
<path d="M14.889 1.351c0 0 0 0.021 0 0.021 0.042 0.318 0.106 0.635 0.36 0.762 0.233 0.127 0.423 0.148 0.804 0.148 0.042 0 0.042 0 0.064 0 0.381 0 0.572-0.021 0.783-0.148 0.275-0.127 0.339-0.445 0.381-0.783 0-0.021 0-0.042 0-0.064 0 0 0-0.021 0-0.021 0-0.191 0-0.381-0.085-0.55-0.148-0.339-0.466-0.466-1.143-0.466-0.614 0-0.995 0.169-1.143 0.487-0.085 0.169-0.085 0.381-0.064 0.572 0.042 0.021 0.042 0.042 0.042 0.042zM16.116 1.584c-0.275 0-0.423-0.021-0.487-0.042-0.021-0.042-0.042-0.106-0.042-0.254v-0.021c0-0.169 0-0.212 0.021-0.233 0.042-0.064 0.318-0.085 0.508-0.085 0.106 0 0.445 0.042 0.487 0.085 0 0.021 0.021 0.064 0 0.233v0.042c-0.021 0.148-0.042 0.212-0.042 0.254-0.085 0.021-0.169 0.021-0.445 0.021z"></path>
<path d="M26.616 26.542c0-2.879-2.35-5.229-5.229-5.229h-5.652c-0.042 0-0.085 0-0.106 0.021h-0.339c-0.931 0-1.715 0.148-2.307 0.466l1.037-3.154c0.318-0.974 0.212-2.032-0.233-2.879 0.064 0 0.127 0 0.212 0h0.847c0 0.529 0 1.037-0.021 1.482-0.021 1.418 0 1.567 0.021 1.694 0.127 0.423 0.529 0.635 1.185 0.635 0.72 0 1.143-0.212 1.249-0.656 0.021-0.127 0.042-0.487 0-3.239 1.101-0.296 1.926-1.313 1.926-2.519v-0.127c0-1.185-0.804-2.202-1.905-2.519v-0.656c-0.021-0.487-0.487-0.804-1.186-0.826 0 0-0.042 0-0.064 0-0.572 0-1.228 0.233-1.228 0.847v0.529h-0.847c-0.656 0-1.249 0.339-1.757 0.741-0.021 0.021-0.042 0.021-0.064 0.042l-3.853 3.133-0.423 0.36c0 0 0 0 0 0s0 0 0 0c-0.508 0.445-0.826 0.953-1.058 1.609l-1.207 3.683c-0.191 0.55-0.233 1.016-0.127 1.651 0 0.021 0.021 0.042 0.021 0.064s0 0.021 0 0.042l1.926 6.605c0 0 0 0 0 0s0 0 0 0.021c0.741 2.032 2.688 3.387 4.89 3.387h9.018c2.837 0 5.144-2.265 5.208-5.102 0.042-0.021 0.064-0.064 0.064-0.106zM16.603 18.773c-0.021 0.021-0.127 0.106-0.572 0.106-0.296 0-0.466-0.042-0.508-0.148-0.021-0.148 0-0.826 0-1.482 0-0.445 0-0.953 0.021-1.482h1.058c0 1.461 0.021 2.773 0 3.006zM15.524 9.903c0-0.064 0.254-0.148 0.55-0.148s0.529 0.085 0.529 0.127v0.55c0 0 0 0 0 0h-1.058v-0.529zM15.079 15.090h-1.101c-0.381 0-0.762-0.148-0.931-0.254-0.021-0.021-0.021-0.021-0.042-0.042-0.148-0.127-0.36-0.106-0.487 0.042-0.064 0.064-0.085 0.148-0.085 0.233 0 0.127 0.042 0.233 0.148 0.296 0.021 0 0.021 0.021 0.042 0.021 0.783 0.741 1.080 1.948 0.72 3.048l-1.376 4.192c-0.042 0.148 0 0.296 0.106 0.381 0 0 0.021 0.021 0.021 0.021 0.064 0.064 0.148 0.085 0.233 0.085 0.106 0 0.191-0.042 0.275-0.127 0.529-0.635 1.418-0.931 2.688-0.931h0.741c0.042 0 0.085 0 0.106-0.021h5.25c2.456 0 4.467 1.969 4.509 4.424 0 0.042-0.021 0.064-0.021 0.106 0 2.498-2.032 4.509-4.509 4.509h-9.018c-1.884 0-3.578-1.164-4.213-2.921l-1.926-6.605c0-0.021 0-0.021-0.021-0.042-0.085-0.508-0.064-0.847 0.085-1.291l1.207-3.705c0.169-0.529 0.445-0.931 0.847-1.313l0.402-0.36 3.683-2.943c0.021 0 0.021-0.021 0.042-0.021 0.487-0.381 0.995-0.741 1.545-0.741h2.625c1.058 0 1.905 0.868 1.905 1.905v0.127c0 1.080-0.847 1.926-1.905 1.926h-1.545z"></path>
<path d="M19.44 23.409h-0.106c-0.762 0-1.397 0.381-1.778 0.953-0.381-0.572-1.016-0.953-1.757-0.953h-0.106c-1.185 0-2.096 0.931-2.096 2.117 0 0.042 0 0.085 0.021 0.127 0.021 0.445 0.191 0.868 0.466 1.207 0.127 0.169 0.254 0.318 0.296 0.36l2.943 3.006c0 0 0 0 0 0s0 0 0 0 0.021 0.021 0.021 0.021c0 0 0.021 0.021 0.021 0.021 0.021 0 0.021 0.021 0.042 0.021 0 0 0.021 0 0.021 0.021 0.021 0 0.021 0 0.042 0.021 0 0 0.021 0 0.021 0 0.021 0 0.042 0 0.064 0s0.042 0 0.064 0c0 0 0.021 0 0.021 0 0.021 0 0.021 0 0.042-0.021 0 0 0.021 0 0.021-0.021 0.021 0 0.021-0.021 0.042-0.021 0 0 0.021-0.021 0.021-0.021s0.021-0.021 0.021-0.021c0 0 0 0 0 0s0 0 0 0l2.265-2.307 0.677-0.699c0.042-0.042 0.169-0.212 0.296-0.36 0.296-0.36 0.487-0.847 0.487-1.313v-0.021c0.042-1.164-0.91-2.117-2.075-2.117zM20.837 25.547c0 0.318-0.106 0.635-0.318 0.868 0 0 0 0.021-0.021 0.021-0.106 0.148-0.233 0.296-0.254 0.296l-2.689 2.752-2.011-2.053-0.677-0.699c-0.021-0.021-0.127-0.148-0.254-0.296 0 0 0-0.021-0.021-0.021-0.212-0.233-0.318-0.55-0.318-0.868v-0.021c0-0.042 0-0.064-0.021-0.106 0.042-0.741 0.656-1.313 1.397-1.313h0.106c0.783 0 1.397 0.635 1.397 1.397 0 0.191 0.148 0.36 0.36 0.36 0 0 0 0 0.021 0 0 0 0 0 0.021 0 0.191 0 0.36-0.148 0.36-0.36 0-0.783 0.614-1.397 1.397-1.397h0.106c0.783 0 1.397 0.635 1.397 1.397v0.042z"></path>
</svg>
