<?xml version="1.0" encoding="utf-8"?>
<!-- Generated by IcoMoon.io -->
<!DOCTYPE svg PUBLIC "-//W3C//DTD SVG 1.1//EN" "http://www.w3.org/Graphics/SVG/1.1/DTD/svg11.dtd">
<svg version="1.1" xmlns="http://www.w3.org/2000/svg" xmlns:xlink="http://www.w3.org/1999/xlink" width="32" height="32" viewBox="0 0 32 32">
<path fill="#444" d="M26.72 16.608c-0.16 0.16-0.384 0.256-0.629 0.256l-20.181 0.053c-0.491 0-0.896-0.395-0.896-0.885s0.395-0.896 0.885-0.896l20.181-0.053c0.491 0 0.896 0.395 0.896 0.885 0.011 0.256-0.096 0.48-0.256 0.64z"></path>
<path fill="#444" d="M26.72 9.163c-0.16 0.16-0.384 0.256-0.629 0.256l-20.181 0.064c-0.491 0-0.896-0.395-0.896-0.885s0.395-0.896 0.885-0.896l20.181-0.053c0.491 0 0.896 0.395 0.896 0.885 0.011 0.245-0.096 0.469-0.256 0.629z"></path>
<path fill="#444" d="M26.72 24.043c-0.16 0.16-0.384 0.256-0.629 0.256l-20.181 0.053c-0.491 0-0.896-0.395-0.896-0.885s0.395-0.896 0.885-0.896l20.181-0.053c0.491 0 0.896 0.395 0.896 0.885 0.011 0.256-0.096 0.48-0.256 0.64z"></path>
</svg>
