<?xml version="1.0" encoding="utf-8"?>
<!-- Generated by IcoMoon.io -->
<!DOCTYPE svg PUBLIC "-//W3C//DTD SVG 1.1//EN" "http://www.w3.org/Graphics/SVG/1.1/DTD/svg11.dtd">
<svg version="1.1" xmlns="http://www.w3.org/2000/svg" xmlns:xlink="http://www.w3.org/1999/xlink" width="32" height="32" viewBox="0 0 32 32">
<path fill="#444" d="M19.040 14.272c-0.043 0-0.085 0-0.117-0.011-0.651-0.149-1.333-0.224-2.005-0.224-0.587 0-1.184 0.053-1.749 0.16-0.309 0.053-0.597-0.139-0.651-0.448s0.139-0.597 0.448-0.651c0.64-0.117 1.301-0.181 1.963-0.181 0.757 0 1.515 0.085 2.251 0.245 0.299 0.064 0.491 0.363 0.427 0.672-0.085 0.256-0.309 0.437-0.565 0.437z"></path>
<path fill="#444" d="M18.592 14.123c0 0 0 0 0 0-0.309 0-0.565-0.256-0.555-0.565 0-0.533-0.437-0.971-0.971-0.971 0 0 0 0 0 0-0.256 0-0.501 0.096-0.683 0.288-0.181 0.181-0.288 0.427-0.288 0.683 0 0.309-0.256 0.555-0.555 0.555 0 0 0 0 0 0-0.309 0-0.555-0.256-0.555-0.565 0-0.555 0.224-1.088 0.619-1.483s0.917-0.608 1.472-0.608c0 0 0 0 0 0 1.152 0 2.091 0.939 2.091 2.091-0.011 0.331-0.267 0.576-0.576 0.576z"></path>
<path fill="#444" d="M11.392 15.616c0 0.235 0.203 0.416 0.448 0.416s0.448-0.181 0.448-0.416c0-0.235-0.203-0.416-0.448-0.416s-0.448 0.181-0.448 0.416v0z"></path>
<path fill="#444" d="M23.2 31.883h-0.107c-1.067 0-1.952-0.747-2.187-1.739-1.195 0.459-2.453 0.683-3.744 0.683-1.141 0-2.261-0.181-3.328-0.544-0.277 0.928-1.131 1.6-2.155 1.6h-0.107c-1.237 0-2.24-1.003-2.24-2.24v-2.357c-1.429-1.621-2.325-3.659-2.549-5.803l-0.565-0.256c-0.768-0.352-1.344-0.981-1.643-1.771-0.288-0.789-0.256-1.643 0.085-2.411l0.064-0.149c0.011-0.011 0.011-0.021 0.021-0.032l0.832-1.781c0.672-1.451 2.315-2.155 3.808-1.685 1.984-2.219 4.8-3.477 7.787-3.477 0.011 0 0.011 0 0.021 0 5.771 0.011 10.453 4.715 10.443 10.485 0 2.315-0.789 4.576-2.208 6.4v2.848c0.011 1.227-0.992 2.229-2.229 2.229zM21.408 28.768c0.107 0 0.213 0.032 0.299 0.085 0.16 0.107 0.256 0.277 0.256 0.469v0.309c0 0.619 0.501 1.12 1.12 1.12h0.107c0.619 0 1.12-0.501 1.12-1.12v-3.051c0-0.128 0.043-0.256 0.128-0.352 1.355-1.675 2.080-3.701 2.080-5.856 0.011-5.152-4.171-9.355-9.323-9.365v0c-0.011 0-0.011 0-0.021 0-2.752 0-5.344 1.205-7.125 3.296-0.064 0.107-0.149 0.192-0.267 0.235-0.149 0.064-0.309 0.064-0.459 0l-0.043-0.021c-1.013-0.469-2.229-0.021-2.688 1.003l-0.843 1.792c0 0.011-0.011 0.021-0.011 0.032l-0.064 0.139c-0.224 0.491-0.245 1.045-0.053 1.547 0.192 0.512 0.565 0.917 1.056 1.141l0.864 0.395c0.181 0.085 0.309 0.267 0.32 0.469 0.149 2.091 1.013 4.085 2.432 5.632 0.096 0.107 0.149 0.235 0.149 0.384v2.571c0 0.619 0.501 1.12 1.12 1.12h0.107c0.619 0 1.12-0.501 1.12-1.12v-0.139c0-0.192 0.096-0.363 0.245-0.469 0.16-0.107 0.352-0.128 0.523-0.053 1.141 0.48 2.336 0.715 3.584 0.715 0.011 0 0.011 0 0.021 0 1.387 0 2.731-0.299 3.979-0.885 0.096 0 0.181-0.021 0.267-0.021z"></path>
<path fill="#444" d="M15.723 4.299c0 0 0 0 0 0-0.565 0-1.088-0.224-1.483-0.619s-0.608-0.917-0.608-1.483c0-0.555 0.224-1.088 0.619-1.483s0.917-0.608 1.472-0.608c0 0 0 0 0 0 0.555 0 1.088 0.224 1.483 0.619s0.608 0.917 0.608 1.483c0 1.152-0.939 2.091-2.091 2.091zM15.723 1.237c-0.256 0-0.501 0.096-0.683 0.288-0.181 0.181-0.288 0.427-0.288 0.683v0c0 0.256 0.096 0.501 0.288 0.683 0.181 0.181 0.427 0.288 0.683 0.288 0 0 0 0 0 0 0.533 0 0.971-0.437 0.971-0.971 0-0.256-0.096-0.501-0.288-0.683-0.181-0.192-0.416-0.288-0.683-0.288 0 0 0 0 0 0zM14.187 2.208v0 0z"></path>
<path fill="#444" d="M18.891 8.981c0 0 0 0 0 0-0.565 0-1.088-0.224-1.483-0.619s-0.608-0.917-0.608-1.483v0c0-0.555 0.224-1.088 0.619-1.483s0.917-0.608 1.472-0.608c0 0 0 0 0 0 0.555 0 1.088 0.224 1.483 0.619s0.608 0.917 0.608 1.483c0 0.555-0.224 1.088-0.619 1.483s-0.917 0.608-1.472 0.608zM18.891 5.92c-0.256 0-0.501 0.096-0.683 0.288-0.181 0.181-0.288 0.427-0.288 0.683 0 0 0 0 0 0 0 0.256 0.096 0.501 0.288 0.683 0.181 0.181 0.427 0.288 0.683 0.288 0 0 0 0 0 0 0.256 0 0.501-0.096 0.683-0.288 0.181-0.181 0.288-0.427 0.288-0.683s-0.096-0.501-0.288-0.683c-0.181-0.181-0.427-0.288-0.683-0.288 0 0 0 0 0 0zM17.355 6.891v0 0z"></path>
</svg>
