<?xml version="1.0" encoding="utf-8"?>
<!-- Generated by IcoMoon.io -->
<!DOCTYPE svg PUBLIC "-//W3C//DTD SVG 1.1//EN" "http://www.w3.org/Graphics/SVG/1.1/DTD/svg11.dtd">
<svg version="1.1" xmlns="http://www.w3.org/2000/svg" xmlns:xlink="http://www.w3.org/1999/xlink" width="32" height="32" viewBox="0 0 32 32">
<path fill="#444" d="M24.459 16.523c-0.128 0.128-0.32 0.213-0.523 0.213l-15.915 0.043c-0.405 0-0.736-0.331-0.736-0.736s0.331-0.736 0.736-0.736l15.915-0.043c0.405 0 0.736 0.331 0.736 0.736 0 0.213-0.075 0.395-0.213 0.523z"></path>
<path fill="#444" d="M16.512 24.448c-0.128 0.128-0.32 0.213-0.523 0.213-0.405 0-0.736-0.331-0.736-0.736l0.043-15.915c0-0.405 0.331-0.736 0.736-0.736s0.736 0.331 0.736 0.736l-0.043 15.915c0 0.203-0.075 0.384-0.213 0.523z"></path>
<path fill="#444" d="M16 29.941c-7.691 0-13.941-6.251-13.941-13.941s6.251-13.941 13.941-13.941 13.941 6.251 13.941 13.941-6.251 13.941-13.941 13.941zM16 3.52c-6.88 0-12.48 5.6-12.48 12.48s5.6 12.48 12.48 12.48 12.48-5.6 12.48-12.48-5.6-12.48-12.48-12.48z"></path>
</svg>
