<?xml version="1.0" encoding="utf-8"?>
<!-- Generated by IcoMoon.io -->
<!DOCTYPE svg PUBLIC "-//W3C//DTD SVG 1.1//EN" "http://www.w3.org/Graphics/SVG/1.1/DTD/svg11.dtd">
<svg version="1.1" xmlns="http://www.w3.org/2000/svg" xmlns:xlink="http://www.w3.org/1999/xlink" width="32" height="32" viewBox="0 0 32 32">
<path fill="#444" d="M16 26.342c-5.702 0-10.36-4.64-10.36-10.36s4.658-10.36 10.36-10.36c5.702 0 10.36 4.64 10.36 10.36s-4.658 10.36-10.36 10.36zM16 6.508c-5.224 0-9.475 4.25-9.475 9.475s4.25 9.474 9.475 9.474c5.224 0 9.474-4.25 9.474-9.475s-4.25-9.475-9.475-9.475z"></path>
<path fill="#444" d="M16.018 22.181h-0.053c-0.478 0-0.85-0.39-0.85-0.868v-10.679c0-0.478 0.39-0.85 0.868-0.85h0.053c0.478 0 0.85 0.39 0.85 0.868l-0.018 10.697c0 0.46-0.39 0.85-0.85 0.832z"></path>
<path fill="#444" d="M9.802 16v-0.053c0-0.478 0.39-0.85 0.868-0.85l10.697 0.018c0.478 0 0.85 0.39 0.85 0.868v0.053c0 0.478-0.39 0.85-0.868 0.85l-10.697-0.018c-0.478 0-0.868-0.39-0.85-0.868z"></path>
</svg>
