<?xml version="1.0" encoding="utf-8"?>
<!-- Generated by IcoMoon.io -->
<!DOCTYPE svg PUBLIC "-//W3C//DTD SVG 1.1//EN" "http://www.w3.org/Graphics/SVG/1.1/DTD/svg11.dtd">
<svg version="1.1" xmlns="http://www.w3.org/2000/svg" xmlns:xlink="http://www.w3.org/1999/xlink" width="32" height="32" viewBox="0 0 32 32">
<path d="M11.52 21.963c-0.085 0-0.171-0.011-0.245-0.043l-8.587-3.403c-0.352-0.139-0.523-0.533-0.384-0.885s0.533-0.523 0.885-0.384l8.587 3.403c0.352 0.139 0.523 0.533 0.384 0.885-0.117 0.267-0.373 0.427-0.64 0.427z"></path>
<path d="M29.003 28.907c-0.085 0-0.171-0.011-0.245-0.043l-7.563-2.997c-0.352-0.139-0.523-0.533-0.384-0.885s0.533-0.523 0.885-0.384l6.208 2.464-7.936-23.883c-0.117-0.352 0.075-0.736 0.427-0.864 0.352-0.117 0.736 0.075 0.864 0.427l8.395 25.269c0.085 0.256 0.011 0.523-0.181 0.704-0.128 0.128-0.299 0.192-0.469 0.192z"></path>
<path d="M2.933 18.56c-0.149 0-0.309-0.053-0.427-0.149-0.288-0.235-0.331-0.661-0.096-0.96 0.309-0.373 0.704-0.715 1.056-1.024 0.288-0.245 0.64-0.544 0.725-0.704 0.192-0.331 0.181-0.768 0.171-1.227-0.011-0.544-0.021-1.163 0.299-1.696 0.512-0.832 1.323-1.024 1.92-1.163 0.32-0.075 0.629-0.149 0.736-0.288 0.139-0.192 0.16-0.565 0.181-0.949 0.032-0.608 0.075-1.365 0.64-1.92 0.555-0.555 1.301-0.64 1.909-0.704 0.352-0.043 0.725-0.085 0.885-0.213 0.245-0.192 0.341-0.565 0.448-1.003 0.149-0.576 0.32-1.291 0.981-1.739s1.483-0.363 2.219-0.288c0.395 0.043 0.928 0.096 1.109-0.021 0.277-0.181 0.416-0.544 0.576-0.96 0.224-0.555 0.469-1.195 1.131-1.536 1.568-0.821 2.752-0.224 3.616 0.384 0.309 0.213 0.384 0.64 0.16 0.949-0.213 0.309-0.64 0.384-0.949 0.16-0.747-0.523-1.344-0.736-2.197-0.288-0.203 0.107-0.341 0.437-0.491 0.832-0.213 0.533-0.469 1.184-1.099 1.6-0.576 0.373-1.291 0.299-1.984 0.235-0.501-0.053-1.067-0.107-1.312 0.064-0.213 0.149-0.309 0.459-0.427 0.949-0.139 0.555-0.32 1.248-0.917 1.728-0.469 0.373-1.056 0.437-1.579 0.491-0.448 0.053-0.875 0.096-1.099 0.32-0.192 0.192-0.213 0.597-0.235 1.024-0.032 0.544-0.064 1.163-0.448 1.685-0.405 0.544-1.024 0.683-1.525 0.8-0.533 0.117-0.864 0.213-1.067 0.544-0.117 0.203-0.117 0.565-0.107 0.96 0.011 0.565 0.021 1.28-0.352 1.931-0.203 0.363-0.587 0.683-1.024 1.056-0.331 0.277-0.661 0.565-0.896 0.853-0.139 0.181-0.341 0.267-0.533 0.267z"></path>
<path d="M18.688 22.816c-0.117 0-0.235-0.032-0.341-0.096-0.32-0.192-0.427-0.608-0.235-0.928 0.085-0.149 0.149-0.32 0.171-0.491 0.096-0.715-0.405-1.387-1.131-1.483-0.352-0.053-0.693 0.043-0.971 0.256s-0.459 0.523-0.512 0.875c-0.053 0.373-0.395 0.64-0.768 0.576-0.373-0.053-0.629-0.395-0.576-0.768 0.096-0.704 0.459-1.333 1.035-1.771 0.565-0.437 1.269-0.619 1.984-0.523 0.704 0.096 1.333 0.459 1.771 1.035 0.437 0.565 0.619 1.269 0.523 1.984-0.053 0.363-0.171 0.693-0.352 1.003-0.149 0.213-0.373 0.331-0.597 0.331z"></path>
<path d="M21.365 25.845c-0.203 0-0.405-0.096-0.533-0.267-0.224-0.299-0.171-0.725 0.128-0.949 0.117-0.085 0.171-0.16 0.277-0.341 0.363-0.64 0.149-1.451-0.48-1.803-0.459-0.256-1.024-0.213-1.451 0.107-0.299 0.224-0.725 0.171-0.949-0.128s-0.171-0.725 0.128-0.949c0.853-0.661 2.016-0.747 2.955-0.213 1.28 0.725 1.717 2.368 0.981 3.659-0.16 0.288-0.331 0.512-0.629 0.747-0.128 0.096-0.277 0.139-0.427 0.139z"></path>
<path d="M11.52 21.909c-0.021 0-0.043 0-0.064 0-0.373-0.032-0.651-0.373-0.608-0.747 0.096-0.981 0.576-1.557 0.971-1.867 0.533-0.416 1.227-0.608 1.899-0.512 0.992 0.139 1.781 0.896 1.952 1.877 0.064 0.373-0.181 0.725-0.555 0.789s-0.725-0.181-0.789-0.555c-0.075-0.405-0.384-0.715-0.789-0.768-0.309-0.043-0.629 0.043-0.875 0.235-0.267 0.203-0.416 0.523-0.459 0.928-0.043 0.363-0.341 0.619-0.683 0.619z"></path>
<path d="M12.287 25.696c0.176 0.293 0.082 0.673-0.211 0.849s-0.673 0.082-0.849-0.211c-0.176-0.293-0.082-0.673 0.211-0.849s0.673-0.082 0.849 0.211z"></path>
<path d="M17.91 28.636c0.304 0.505 0.141 1.16-0.364 1.464s-1.16 0.141-1.464-0.364c-0.304-0.505-0.141-1.16 0.364-1.464s1.16-0.141 1.464 0.364z"></path>
<path d="M15.765 24.932c0.009 0.489-0.38 0.892-0.869 0.901s-0.892-0.38-0.901-0.869c-0.009-0.489 0.38-0.892 0.869-0.901s0.892 0.38 0.901 0.869z"></path>
</svg>
