<?xml version="1.0" encoding="utf-8"?>
<!-- Generated by IcoMoon.io -->
<!DOCTYPE svg PUBLIC "-//W3C//DTD SVG 1.1//EN" "http://www.w3.org/Graphics/SVG/1.1/DTD/svg11.dtd">
<svg version="1.1" xmlns="http://www.w3.org/2000/svg" xmlns:xlink="http://www.w3.org/1999/xlink" width="32" height="32" viewBox="0 0 32 32">
<path d="M29.248 16.832c-0.203 0.203-0.491 0.341-0.811 0.341l-24.917 0.064c-0.629 0-1.152-0.512-1.152-1.152 0-0.629 0.512-1.152 1.152-1.152l24.917-0.064c0.629 0 1.152 0.512 1.152 1.152 0 0.32-0.128 0.608-0.341 0.811z"></path>
<path d="M16.811 29.237c-0.213 0.213-0.501 0.341-0.811 0.341-0.64 0-1.152-0.523-1.152-1.152l0.064-24.917c0-0.64 0.512-1.152 1.152-1.152s1.152 0.523 1.152 1.152l-0.064 24.917c-0.011 0.309-0.139 0.597-0.341 0.811z"></path>
</svg>
