<?xml version="1.0" encoding="utf-8"?>
<!-- Generated by IcoMoon.io -->
<!DOCTYPE svg PUBLIC "-//W3C//DTD SVG 1.1//EN" "http://www.w3.org/Graphics/SVG/1.1/DTD/svg11.dtd">
<svg version="1.1" xmlns="http://www.w3.org/2000/svg" xmlns:xlink="http://www.w3.org/1999/xlink" width="32" height="32" viewBox="0 0 32 32">
<path d="M13.717 24.149h-0.096c-1.184 0-2.144-0.96-2.144-2.144v-12.544c0-1.184 0.96-2.144 2.144-2.144h0.096c0.448 0 0.864 0.128 1.184 0.363 0.011 0.011 0.021 0.021 0.032 0.021l8.075 6.752c0.395 0.331 0.619 0.811 0.608 1.323 0 0.512-0.224 0.992-0.619 1.312l-7.936 6.56c-0.384 0.331-0.853 0.501-1.344 0.501zM13.621 8.587c-0.491 0-0.885 0.395-0.885 0.885v12.544c0 0.491 0.395 0.885 0.885 0.885h0.096c0.245 0 0.437-0.107 0.555-0.203l7.936-6.56c0.139-0.117 0.16-0.267 0.16-0.352 0-0.075-0.021-0.235-0.16-0.352l-8.053-6.741c-0.107-0.075-0.267-0.117-0.437-0.117h-0.096z"></path>
<path d="M16.064 30.752c-8.149 0-14.773-6.624-14.773-14.773s6.624-14.773 14.773-14.773 14.773 6.624 14.773 14.773c0 8.139-6.624 14.773-14.773 14.773zM16.064 2.464c-7.456 0-13.515 6.059-13.515 13.515s6.059 13.515 13.515 13.515 13.515-6.059 13.515-13.515-6.059-13.515-13.515-13.515z"></path>
</svg>
