<?xml version="1.0" encoding="utf-8"?>
<!-- Generated by IcoMoon.io -->
<!DOCTYPE svg PUBLIC "-//W3C//DTD SVG 1.1//EN" "http://www.w3.org/Graphics/SVG/1.1/DTD/svg11.dtd">
<svg version="1.1" xmlns="http://www.w3.org/2000/svg" xmlns:xlink="http://www.w3.org/1999/xlink" width="32" height="32" viewBox="0 0 32 32">
<path fill="#444" d="M24.756 8.549c-0.29 0.295-0.575 0.585-0.851 0.865l0.274 0.27c0.086 0.086 0.632 0.633 0.632 0.633l-0.008 5.449-10.683 10.683-8.527-8.53 10.683-10.678h5.449l0.841 0.841 0.865-0.869-1.026-1.019c-0.113-0.116-0.269-0.187-0.431-0.187h-5.955c-0.019 0-0.039 0.005-0.058 0.007-0.142 0.015-0.274 0.083-0.373 0.186l-11.28 11.282c-0.235 0.236-0.235 0.619 0 0.855l9.389 9.389c0.236 0.235 0.618 0.235 0.854 0l11.288-11.28c0.113-0.115 0.176-0.27 0.174-0.431l0.008-5.947c-0.001-0.163-0.066-0.318-0.183-0.431l-1.084-1.088z"></path>
<path fill="#444" d="M15.988 30.843c-8.191 0-14.831-6.64-14.831-14.831s6.64-14.831 14.831-14.831c3.869 0 7.391 1.482 10.032 3.909l-6.4 6.47c-0.253 0.219-0.28 0.602-0.061 0.854s0.622 0.296 0.854 0.061c0.128-0.13 3.477-3.535 6.444-6.552 2.458 2.647 3.961 6.192 3.961 10.088 0 8.19-6.64 14.831-14.83 14.831zM15.988 0.025c-8.83 0-15.988 7.158-15.988 15.988s7.158 15.988 15.988 15.988 15.988-7.158 15.988-15.988c0-8.83-7.158-15.988-15.988-15.988z"></path>
<path fill="#444" d="M20.263 10.423c-0.097-0.017-0.197-0.027-0.298-0.027-0.926 0-1.68 0.754-1.68 1.68s0.754 1.68 1.68 1.68c0.926 0 1.68-0.754 1.68-1.68 0-0.113-0.011-0.224-0.033-0.331l0.949-0.965c0.196 0.39 0.306 0.831 0.306 1.297 0 1.601-1.302 2.903-2.903 2.903s-2.903-1.302-2.903-2.903 1.302-2.903 2.903-2.903c0.448 0 0.873 0.102 1.252 0.284l-0.954 0.965z"></path>
<path fill="#444" d="M8.845 19.292c-0.139 0-0.279-0.053-0.385-0.16-0.212-0.213-0.212-0.557 0.001-0.77l5.547-5.539c0.213-0.212 0.557-0.212 0.77 0.001s0.212 0.557-0.001 0.77l-5.547 5.539c-0.106 0.106-0.245 0.159-0.385 0.159z"></path>
<path fill="#444" d="M10.514 20.961c-0.139 0-0.279-0.053-0.385-0.16-0.212-0.213-0.212-0.557 0.001-0.77l5.546-5.539c0.213-0.212 0.557-0.212 0.77 0.001s0.212 0.557-0 0.77l-5.546 5.539c-0.106 0.106-0.245 0.159-0.385 0.159z"></path>
<path fill="#444" d="M13.343 23.792c-0.139 0-0.279-0.053-0.385-0.16-0.212-0.213-0.212-0.557 0.001-0.77l4.036-4.031c0.213-0.212 0.557-0.212 0.77 0s0.212 0.557-0 0.77l-4.036 4.031c-0.106 0.106-0.245 0.159-0.385 0.159z"></path>
</svg>
