<?xml version="1.0" encoding="utf-8"?>
<!-- Generated by IcoMoon.io -->
<!DOCTYPE svg PUBLIC "-//W3C//DTD SVG 1.1//EN" "http://www.w3.org/Graphics/SVG/1.1/DTD/svg11.dtd">
<svg version="1.1" xmlns="http://www.w3.org/2000/svg" xmlns:xlink="http://www.w3.org/1999/xlink" width="32" height="32" viewBox="0 0 32 32">
<path d="M23.666 9.315c-0.446 0-0.869-0.134-1.27-0.401l-0.111-0.067c-1.025-0.691-1.292-2.117-0.602-3.142l1.248-1.827c0.334-0.513 0.847-0.847 1.448-0.958s1.203 0.022 1.694 0.357l0.111 0.067c1.025 0.691 1.292 2.117 0.602 3.142l-1.248 1.827c-0.423 0.669-1.137 1.003-1.872 1.003zM24.802 3.632c-0.089 0-0.201 0-0.29 0.022-0.401 0.067-0.758 0.312-0.98 0.646l-1.248 1.827c-0.468 0.691-0.29 1.649 0.401 2.117l0.111 0.067c0.691 0.468 1.649 0.29 2.117-0.401l1.248-1.827c0.468-0.691 0.29-1.649-0.401-2.117l-0.111-0.067c-0.245-0.178-0.535-0.267-0.847-0.267z"></path>
<path d="M16.468 32c-0.713 0-1.426-0.223-2.028-0.624l-10.050-6.819c-1.649-1.114-2.095-3.387-0.958-5.036l7.176-10.585c1.047-1.538 1.76-1.961 2.474-2.362l0.178-0.111 10.318-5.727c1.337-0.735 2.942-0.669 4.212 0.178s1.916 2.318 1.716 3.833l-1.515 11.699c0 0.022 0 0.045-0.022 0.067-0.134 1.137-0.602 2.273-1.337 3.387l-7.153 10.518c-0.535 0.802-1.359 1.337-2.318 1.515-0.245 0.045-0.468 0.067-0.691 0.067zM25.515 0.958c-0.535 0-1.092 0.134-1.604 0.423l-10.273 5.705-0.178 0.111c-0.646 0.379-1.27 0.735-2.228 2.139l-7.176 10.585c-0.891 1.315-0.557 3.12 0.758 4.011l10.050 6.819c0.646 0.423 1.404 0.602 2.162 0.446s1.426-0.579 1.85-1.226l7.153-10.518c0.691-1.025 1.114-2.072 1.226-3.098 0-0.022 0-0.045 0.022-0.067l1.515-11.655c0.156-1.248-0.357-2.429-1.404-3.142-0.602-0.334-1.226-0.535-1.872-0.535z"></path>
<path d="M14.485 26.474c-0.067 0-0.134-0.022-0.201-0.067l-5.437-3.699c-0.267-0.178-0.334-0.535-0.156-0.78l5.504-8.089c1.159-1.694 3.476-2.139 5.17-0.98l0.178 0.111c1.448 0.98 2.028 2.875 1.337 4.501-0.067 0.178-0.29 0.267-0.49 0.201-0.178-0.089-0.267-0.29-0.201-0.49 0.535-1.292 0.089-2.808-1.092-3.61l-0.178-0.111c-1.359-0.914-3.209-0.579-4.145 0.802l-5.393 7.955 5.304 3.588c0.178 0.111 0.223 0.334 0.089 0.513-0.045 0.111-0.178 0.156-0.29 0.156z"></path>
<path d="M15.777 19.944c-0.067 0-0.134-0.022-0.201-0.067l-4.902-3.343c-0.178-0.111-0.223-0.334-0.089-0.513 0.111-0.178 0.334-0.201 0.513-0.089l4.902 3.343c0.178 0.111 0.223 0.334 0.089 0.513-0.067 0.111-0.201 0.156-0.312 0.156z"></path>
</svg>
