<?xml version="1.0" encoding="utf-8"?>
<!-- Generated by IcoMoon.io -->
<!DOCTYPE svg PUBLIC "-//W3C//DTD SVG 1.1//EN" "http://www.w3.org/Graphics/SVG/1.1/DTD/svg11.dtd">
<svg version="1.1" xmlns="http://www.w3.org/2000/svg" xmlns:xlink="http://www.w3.org/1999/xlink" width="32" height="32" viewBox="0 0 32 32">
<path fill="#444" d="M13.603 31.75c-0.066 0-0.155-0.022-0.221-0.044l-0.331-0.133c-0.177-0.066-0.287-0.287-0.199-0.464 0.066-0.177 0.287-0.287 0.464-0.199l0.243 0.088c0.022-0.022 0.044-0.044 0.066-0.066l0.022-0.022-3.623-9.366-0.972-0.376c-0.022 0.066-0.066 0.133-0.133 0.177v0c-0.155 0.11-0.398 0.066-0.508-0.088-0.022-0.044-0.044-0.066-0.044-0.11-0.044-0.088-0.066-0.177-0.044-0.287l-0.552-0.221-1.635 7.157c-0.022 0.133-0.11 0.199-0.133 0.221l-0.398 0.309c-0.155 0.133-0.398 0.088-0.508-0.066-0.133-0.155-0.088-0.398 0.066-0.508l0.309-0.243 1.635-7.179-4.109-1.657c0 0 0 0-0.022 0 0 0 0 0-0.022 0h-0.022c0 0-0.022 0-0.022 0s-0.022 0-0.022-0.022h-0.022c0 0-0.022 0-0.022 0s-0.022 0-0.022-0.022v0c0 0-0.022 0-0.022-0.022 0 0-0.022-0.022-0.022-0.022v0c0 0 0 0-0.022-0.022 0 0-0.022-0.022-0.022-0.022v0c0 0 0-0.022-0.022-0.022 0 0 0 0 0 0s0 0 0 0 0 0 0 0 0 0 0 0c-0.022-0.022-0.022-0.044-0.044-0.066v0c0 0 0-0.022-0.022-0.022 0-0.022 0-0.022-0.022-0.044v0c0 0 0 0 0-0.022 0 0 0-0.022 0-0.022 0-0.022 0-0.044 0-0.066v0c0 0 0-0.022 0-0.022s0 0 0-0.022c0 0 0 0 0 0s0 0 0 0c0-0.022 0-0.044 0-0.066v0c0 0 0 0 0-0.022 0 0 0-0.022 0-0.022 0-0.022 0.022-0.044 0.022-0.066v0c0 0 0-0.022 0.022-0.022 0 0 0 0 0 0v0c0 0 0-0.022 0.022-0.022v0c0.022-0.022 0.044-0.044 0.066-0.066v0c0 0 0 0 0.022 0 0 0 0 0 0 0l12.878-10.139c0 0 0 0 0 0s0 0 0.022 0h0.022c0 0 0.022 0 0.022-0.022 0.022 0 0.022-0.022 0.044-0.022v0c0 0 0 0 0 0s0 0 0.022 0h0.022c0 0 0.022 0 0.022-0.022 0 0 0.022 0 0.022 0h0.022c0 0 0.022 0 0.022 0s0.022 0 0.022 0h0.022c0 0 0 0 0 0s0 0 0 0 0 0 0 0h0.022c0 0 0.022 0 0.022 0s0.022 0 0.022 0h0.022c0 0 0.022 0 0.022 0s0.022 0 0.022 0h0.022c0 0 0 0 0 0s0 0 0 0h0.022c0 0 0.022 0 0.022 0s0.022 0 0.022 0h0.022c0 0 0 0 0 0s0 0 0 0h0.022c0 0 0.022 0 0.022 0s0.022 0 0.022 0.022h0.022c0 0 0 0 0 0l8.195 3.269c0 0 0 0 0.022 0 0 0 0 0 0.022 0h0.022c0 0 0 0 0.022 0 0 0 0 0 0.022 0h0.022c0 0 0.022 0 0.022 0.022 0 0 0.022 0.022 0.022 0.022v0c0 0 0 0 0.022 0.022 0 0 0.022 0.022 0.022 0.022v0c0 0 0.022 0.022 0.022 0.022s0.022 0.022 0.022 0.022v0c0 0 0.022 0.022 0.022 0.022 0 0.022 0.022 0.022 0.022 0.044v0c0 0 0 0 0 0.022 0 0 0 0 0 0.022s0.022 0.044 0.022 0.066v0c0 0 0 0.022 0 0.044s0 0.022 0 0.044v0c0 0.044 0 0.088-0.022 0.133v0c0 0 0 0.022-0.022 0.022 0 0.022-0.022 0.022-0.022 0.044v0c0 0 0 0.022-0.022 0.022 0 0-0.022 0.022-0.022 0.022v0c0 0 0 0 0 0s-0.022 0.022-0.022 0.022c0 0.022-0.022 0.022-0.044 0.044v0c0 0 0 0-0.022 0.022v0c0 0 0 0 0 0s0 0-0.022 0.022l-1.922 1.524 3.247 8.394c0.066 0.177 0.022 0.353-0.088 0.486-0.022 0.022-0.022 0.022-0.044 0.044l-0.199 0.155c0 0 0 0 0 0l-0.199 0.155c-0.022 0-0.022 0.022-0.044 0.022-0.133 0.066-0.309 0.088-0.464 0.022l-0.199-0.155c-0.199-0.088-0.331-0.243-0.376-0.376l-3.181-7.466-2.938 2.319-0.398 1.723c0 0 0 0.022 0 0.022s0 0.022 0 0.022v0c0 0.022 0 0.022-0.022 0.044 0 0.022-0.022 0.022-0.022 0.044v0c0 0-0.022 0.022-0.022 0.022 0 0.022-0.022 0.022-0.022 0.044 0 0-0.022 0.022-0.022 0.022s-0.022 0.022-0.022 0.022l-0.398 0.309c-0.155 0.133-0.376 0.11-0.486 0.066l-0.309-0.133c-0.221-0.066-0.42-0.243-0.442-0.486l-4.153 3.269c0 0 0 0 0 0s0 0 0 0v0c0 0-0.022 0-0.022 0.022 0 0-0.022 0.022-0.022 0.022v0c0 0-0.022 0-0.022 0.022 0 0-0.022 0-0.022 0.022v0c0 0-0.022 0-0.022 0s-0.022 0-0.022 0h-0.022c0 0 0 0-0.022 0 0 0 0 0-0.022 0h-0.022c0 0 0 0-0.022 0 0 0-0.022 0-0.022 0h-0.022c0 0-0.022 0-0.022 0s-0.022 0-0.022 0h-0.022c0 0 0 0 0 0s0 0 0 0h-0.022c0 0-0.022 0-0.022 0s-0.022 0-0.022 0h-0.022c0 0-0.022 0-0.022 0s-0.022 0-0.022 0h-0.022c0 0 0 0 0 0s0 0-0.022 0h-0.022c0 0-0.022 0-0.022 0s-0.022 0-0.022 0h-0.022c0 0 0 0-0.022 0 0 0 0 0 0 0l-0.199-0.088 3.446 8.924c0.066 0.133 0.044 0.376-0.133 0.53l-0.199 0.155c-0.044 0.022-0.066 0.044-0.11 0.066-0.022 0.022-0.022 0.044-0.044 0.066-0.133 0.066-0.265 0.11-0.376 0.11zM13.405 31.109c0 0 0 0 0 0s0 0 0 0zM24.957 21.765l0.221 0.088 0.066-0.066c0 0 0 0 0 0v0l0.022-0.022-3.093-8.019-0.486 0.376 3.269 7.643zM24.98 21.809c0 0 0 0 0 0s0 0 0 0zM3.663 18.187l7.753 3.093 12.459-9.808-7.753-3.093-12.459 9.808zM16.696 18.474l0.177 0.066 0.088-0.066c0 0 0 0 0 0v0c0 0 0 0 0 0l0.11-0.088 0.177-0.751-0.464 0.353-0.088 0.486z"></path>
<path fill="#444" d="M13.67 31.728c-0.11 0-0.221-0.044-0.287-0.133 0 0-0.022-0.022-0.022-0.022-0.088 0.044-0.199 0.044-0.287 0-0.177-0.066-0.309-0.243-0.353-0.331 0-0.022-0.022-0.022-0.022-0.044l-4.285-10.029c0 0 0-0.022 0-0.022l-0.221-0.486c-0.088-0.177 0-0.398 0.199-0.486 0.177-0.088 0.398 0 0.486 0.199l0.133 0.309c0 0 0.022 0.022 0.022 0.022 0.022 0.022 0.022 0.022 0.022 0.044v0c0 0 0 0.022 0.022 0.022 0 0 0 0.022 0.022 0.022v0c0 0 0 0.022 0 0.022s0 0.022 0 0.022v0c0 0.022 0 0.022 0.022 0.044 0 0.022 0 0.022 0 0.044v0c0 0.022 0 0.044 0 0.044l4.219 9.896c0 0 0 0 0.022 0.022 0.066 0.022 0.11 0.066 0.155 0.133l0.133-0.11c0.155-0.133 0.398-0.088 0.508 0.066 0.133 0.155 0.088 0.398-0.066 0.508l-0.199 0.155c-0.066 0.066-0.155 0.088-0.221 0.088zM5.32 28.436c-0.066 0-0.155-0.022-0.221-0.044l-0.309-0.133c-0.199-0.066-0.464-0.287-0.442-0.619l1.303-8.085c0.022-0.199 0.221-0.331 0.42-0.309s0.331 0.221 0.309 0.42l-1.281 7.952 0.221 0.088c0.133-0.022 0.265 0.022 0.353 0.133 0.11 0.155 0.088 0.398-0.066 0.508-0.088 0.044-0.199 0.088-0.287 0.088zM5.165 27.752c0 0 0 0 0 0s0 0 0 0zM5.364 27.707v0c0.022 0 0.022 0 0 0z"></path>
<path fill="#444" d="M27.365 28.414h-12.127c-1.104 0-2.010-0.906-2.010-2.010v-6.34c0-0.199 0.155-0.376 0.353-0.376s0.353 0.155 0.353 0.376v6.34c0 0.707 0.574 1.281 1.281 1.281h12.127c0.685 0 1.259-0.552 1.259-1.259v-24.166c0-0.707-0.574-1.281-1.281-1.281h-12.083c-0.707 0-1.281 0.574-1.281 1.281v7.488c0 0.199-0.155 0.353-0.353 0.353s-0.353-0.155-0.353-0.353v-7.488c0-1.105 0.906-2.010 2.010-2.010h12.105c1.105 0 2.010 0.906 2.010 2.010v24.166c-0.022 1.105-0.906 1.988-2.010 1.988z"></path>
<path fill="#444" d="M22.992 10.963c-0.199 0-0.376-0.155-0.376-0.353v-6.075c0-0.641 0.353-1.259 0.972-1.635l4.175-2.474c0.177-0.11 0.398-0.044 0.508 0.133s0.044 0.398-0.133 0.508l-4.153 2.496c-0.376 0.243-0.619 0.619-0.619 1.016v6.053c-0.022 0.177-0.177 0.331-0.376 0.331z"></path>
<path fill="#444" d="M28.006 28.282c-0.066 0-0.133-0.022-0.177-0.044l-4.131-2.43c-0.641-0.309-1.060-0.906-1.060-1.568v-6.141c0-0.199 0.155-0.376 0.376-0.376s0.376 0.155 0.376 0.376v6.141c0 0.376 0.243 0.729 0.641 0.906 0 0 0.022 0 0.022 0.022l4.153 2.452c0.177 0.11 0.221 0.331 0.133 0.508-0.088 0.088-0.221 0.155-0.331 0.155z"></path>
<path fill="#444" d="M22.992 15.138c-0.199 0-0.376-0.155-0.376-0.353v-2.143c0-0.199 0.155-0.353 0.376-0.353s0.376 0.155 0.376 0.353v2.143c0 0.199-0.177 0.353-0.376 0.353z"></path>
</svg>
