<?xml version="1.0" encoding="utf-8"?>
<!-- Generated by IcoMoon.io -->
<!DOCTYPE svg PUBLIC "-//W3C//DTD SVG 1.1//EN" "http://www.w3.org/Graphics/SVG/1.1/DTD/svg11.dtd">
<svg version="1.1" xmlns="http://www.w3.org/2000/svg" xmlns:xlink="http://www.w3.org/1999/xlink" width="32" height="32" viewBox="0 0 32 32">
<path d="M20.352 25.792h-15.872c-2.304 0-4.192-1.877-4.192-4.192v-10.368c0-2.304 1.877-4.192 4.192-4.192h15.872c2.304 0 4.192 1.877 4.192 4.192v1.76c0 0.309-0.256 0.555-0.555 0.555s-0.555-0.256-0.555-0.555v-1.76c0-1.696-1.376-3.072-3.072-3.072h-15.883c-1.696 0-3.072 1.376-3.072 3.072v10.368c0 1.696 1.376 3.072 3.072 3.072h15.872c1.696 0 3.072-1.376 3.072-3.072v-5.461c0-0.309 0.256-0.555 0.555-0.555s0.555 0.256 0.555 0.555v5.461c0.011 2.315-1.867 4.192-4.181 4.192z"></path>
<path d="M23.957 11.904h-23.104c-0.309 0-0.555-0.256-0.555-0.555s0.256-0.555 0.555-0.555h23.104c0.309 0 0.555 0.256 0.555 0.555s-0.245 0.555-0.555 0.555z"></path>
<path d="M4.672 9.525c0 0.277-0.224 0.501-0.501 0.501s-0.501-0.224-0.501-0.501c0-0.277 0.224-0.501 0.501-0.501s0.501 0.224 0.501 0.501z"></path>
<path d="M6.88 9.536c0 0.277-0.224 0.501-0.501 0.501s-0.501-0.224-0.501-0.501c0-0.277 0.224-0.501 0.501-0.501s0.501 0.224 0.501 0.501z"></path>
<path d="M9.088 9.557c0 0.277-0.224 0.501-0.501 0.501s-0.501-0.224-0.501-0.501c0-0.277 0.224-0.501 0.501-0.501s0.501 0.224 0.501 0.501z"></path>
<path d="M28.085 12.416c-0.139 0-0.277-0.053-0.395-0.16-0.224-0.213-0.224-0.565-0.011-0.789 0.181-0.181 0.171-0.491-0.021-0.672l-0.053-0.043c-0.096-0.096-0.224-0.139-0.341-0.139-0.128 0-0.245 0.053-0.331 0.139-0.213 0.224-0.565 0.224-0.789 0.011s-0.224-0.565-0.011-0.789c0.299-0.309 0.693-0.48 1.12-0.48 0 0 0.011 0 0.011 0 0.427 0 0.821 0.16 1.12 0.459l0.043 0.043c0 0 0 0 0 0 0.629 0.619 0.651 1.632 0.043 2.261-0.085 0.107-0.235 0.16-0.384 0.16z"></path>
<path d="M29.504 10.933c-0.139 0-0.277-0.053-0.395-0.16-0.224-0.213-0.224-0.565-0.011-0.789 0.085-0.085 0.128-0.203 0.128-0.331s-0.053-0.245-0.149-0.341l-0.043-0.043c-0.096-0.096-0.213-0.139-0.341-0.139s-0.245 0.053-0.331 0.139c-0.213 0.224-0.565 0.224-0.789 0.011s-0.224-0.565-0.011-0.789c0.299-0.309 0.693-0.48 1.12-0.48 0 0 0.011 0 0.011 0 0.427 0 0.821 0.16 1.12 0.459l0.043 0.043c0 0 0 0 0 0 0.309 0.299 0.48 0.693 0.491 1.12s-0.149 0.832-0.448 1.141c-0.107 0.107-0.245 0.16-0.395 0.16z"></path>
<path d="M15.797 23.616c-0.139 0-0.288-0.053-0.395-0.16-0.171-0.171-0.224-0.427-0.117-0.64l1.312-2.752c0.075-0.181 0.192-0.405 0.384-0.597l12.021-12.469c0.299-0.309 0.704-0.48 1.131-0.491 0.011 0 0.011 0 0.021 0 0.416 0 0.821 0.16 1.12 0.459l0.053 0.043c0.309 0.299 0.48 0.704 0.48 1.131 0.011 0.427-0.16 0.832-0.459 1.141l-12.021 12.459c0 0-0.011 0.011-0.011 0.011-0.128 0.128-0.341 0.299-0.544 0.395l-2.72 1.408c-0.085 0.043-0.171 0.064-0.256 0.064zM30.155 7.637c-0.011 0-0.011 0 0 0-0.139 0-0.256 0.053-0.352 0.149l-12.021 12.448c-0.064 0.064-0.117 0.181-0.16 0.267 0 0.011-0.011 0.011-0.011 0.021l-0.608 1.269 1.248-0.64c0 0 0.011 0 0.011-0.011 0.053-0.021 0.171-0.107 0.256-0.192l12.032-12.448c0.096-0.096 0.139-0.213 0.139-0.341s-0.053-0.256-0.149-0.341l-0.053-0.043c-0.085-0.096-0.203-0.139-0.331-0.139zM18.923 21.344v0 0z"></path>
<path d="M15.776 23.627h-4.48c-0.309 0-0.555-0.256-0.555-0.555s0.256-0.555 0.555-0.555h4.48c0.309 0 0.555 0.256 0.555 0.555s-0.245 0.555-0.555 0.555z"></path>
</svg>
