<?xml version="1.0" encoding="utf-8"?>
<!-- Generated by IcoMoon.io -->
<!DOCTYPE svg PUBLIC "-//W3C//DTD SVG 1.1//EN" "http://www.w3.org/Graphics/SVG/1.1/DTD/svg11.dtd">
<svg version="1.1" xmlns="http://www.w3.org/2000/svg" xmlns:xlink="http://www.w3.org/1999/xlink" width="32" height="32" viewBox="0 0 32 32">
<path d="M11.179 29.728c-1.877 0-3.403-1.525-3.403-3.403s1.525-3.403 3.403-3.403c1.877 0 3.403 1.525 3.403 3.403s-1.525 3.403-3.403 3.403zM11.179 24.544c-0.981 0-1.781 0.8-1.781 1.781s0.8 1.781 1.781 1.781 1.781-0.8 1.781-1.781c0-0.981-0.8-1.781-1.781-1.781z"></path>
<path d="M26.144 29.728c-1.877 0-3.403-1.525-3.403-3.403s1.525-3.403 3.403-3.403 3.403 1.525 3.403 3.403-1.525 3.403-3.403 3.403zM26.144 24.544c-0.981 0-1.781 0.8-1.781 1.781s0.8 1.781 1.781 1.781 1.781-0.8 1.781-1.781c0-0.981-0.8-1.781-1.781-1.781z"></path>
<path d="M30.133 9.6c-0.576-0.576-1.333-0.885-2.155-0.885h-14.56c-0.448 0-0.811 0.363-0.811 0.811s0.363 0.811 0.811 0.811h14.56c0.384 0 0.736 0.149 1.003 0.416 0.405 0.395 0.469 1.056 0.171 1.6l-3.627 6.56c-0.405 0.725-1.173 1.184-2.005 1.184h-11.435c-0.683 0-1.28-0.491-1.408-1.195l-3.093-13.984c0 0 0 0 0-0.011-0.299-1.525-1.643-2.635-3.211-2.635h-2.517c-0.448 0-0.811 0.363-0.811 0.811s0.363 0.811 0.811 0.811h2.517c0.8 0 1.483 0.565 1.621 1.355 0 0 0 0.011 0 0.011s0 0.011 0 0.011l3.083 13.952c0.267 1.44 1.525 2.496 2.997 2.496h11.435c1.419 0 2.731-0.779 3.424-2.016l3.627-6.56c0.661-1.184 0.48-2.635-0.427-3.541z"></path>
</svg>
