<?xml version="1.0" encoding="utf-8"?>
<!-- Generated by IcoMoon.io -->
<!DOCTYPE svg PUBLIC "-//W3C//DTD SVG 1.1//EN" "http://www.w3.org/Graphics/SVG/1.1/DTD/svg11.dtd">
<svg version="1.1" xmlns="http://www.w3.org/2000/svg" xmlns:xlink="http://www.w3.org/1999/xlink" width="32" height="32" viewBox="0 0 32 32">
<path fill="#444" d="M11.627 28.437c-1.653 0-3.008-1.344-3.008-3.008 0-1.653 1.344-3.008 3.008-3.008 1.653 0 3.008 1.344 3.008 3.008 0 1.653-1.344 3.008-3.008 3.008zM11.627 23.648c-0.981 0-1.781 0.8-1.781 1.781s0.8 1.781 1.781 1.781 1.781-0.8 1.781-1.781c0-0.981-0.8-1.781-1.781-1.781z"></path>
<path fill="#444" d="M25.44 28.437c-1.653 0-3.008-1.344-3.008-3.008 0-1.653 1.344-3.008 3.008-3.008 1.653 0 3.008 1.344 3.008 3.008 0 1.653-1.344 3.008-3.008 3.008zM25.44 23.648c-0.981 0-1.781 0.8-1.781 1.781s0.8 1.781 1.781 1.781c0.981 0 1.781-0.8 1.781-1.781s-0.8-1.781-1.781-1.781z"></path>
<path fill="#444" d="M29.024 10.080c-0.501-0.501-1.173-0.779-1.888-0.779h-13.451c-0.341 0-0.608 0.277-0.608 0.608 0 0.341 0.277 0.608 0.608 0.608h13.451c0.384 0 0.747 0.149 1.024 0.427 0.416 0.416 0.48 1.088 0.181 1.643l-3.349 6.059c-0.395 0.715-1.152 1.163-1.973 1.163h-10.549c-0.704 0-1.301-0.501-1.429-1.205l-2.859-12.907c0 0 0-0.011 0-0.011-0.277-1.355-1.461-2.325-2.837-2.325h-2.325c-0.341 0-0.608 0.277-0.608 0.608s0.277 0.608 0.608 0.608h2.325c0.8 0 1.483 0.576 1.632 1.355 0 0 0 0 0 0.011 0 0 0 0.011 0 0.011l2.848 12.885c0.235 1.269 1.344 2.187 2.635 2.187h10.549c1.269 0 2.432-0.683 3.040-1.792l3.349-6.059c0.587-1.024 0.427-2.293-0.373-3.093z"></path>
</svg>
