<?xml version="1.0" encoding="utf-8"?>
<!-- Generated by IcoMoon.io -->
<!DOCTYPE svg PUBLIC "-//W3C//DTD SVG 1.1//EN" "http://www.w3.org/Graphics/SVG/1.1/DTD/svg11.dtd">
<svg version="1.1" xmlns="http://www.w3.org/2000/svg" xmlns:xlink="http://www.w3.org/1999/xlink" width="32" height="32" viewBox="0 0 32 32">
<path fill="#444" d="M22.496 23.2h-12.992c-0.56 0-1.072-0.288-1.36-0.784s-0.288-1.072 0-1.568l6.464-11.28c0.288-0.496 0.784-0.784 1.36-0.784 0 0 0 0 0 0 0.56 0 1.072 0.288 1.36 0.784l6.528 11.28c0.288 0.496 0.288 1.072 0 1.568s-0.784 0.784-1.36 0.784zM15.968 9.504c0 0 0 0 0 0-0.304 0-0.576 0.16-0.736 0.432v0l-6.464 11.28c-0.144 0.272-0.144 0.576 0 0.848 0.16 0.256 0.432 0.416 0.736 0.416h12.992c0.304 0 0.576-0.16 0.736-0.416 0.16-0.272 0.16-0.576 0-0.848l-6.528-11.28c-0.16-0.272-0.432-0.432-0.736-0.432zM14.912 9.76v0 0z"></path>
</svg>
