<?xml version="1.0" encoding="utf-8"?>
<!-- Generated by IcoMoon.io -->
<!DOCTYPE svg PUBLIC "-//W3C//DTD SVG 1.1//EN" "http://www.w3.org/Graphics/SVG/1.1/DTD/svg11.dtd">
<svg version="1.1" xmlns="http://www.w3.org/2000/svg" xmlns:xlink="http://www.w3.org/1999/xlink" width="32" height="32" viewBox="0 0 32 32">
<path fill="#444" d="M14.912 31.584c-0.011 0-0.021 0-0.032 0-7.104-0.011-12.885-5.803-12.864-12.917v0c0.011-7.104 5.792-12.875 12.896-12.875 0.011 0 0.021 0 0.032 0 3.445 0.011 6.677 1.355 9.109 3.797s3.765 5.685 3.755 9.131c-0.011 3.445-1.355 6.677-3.797 9.109-2.432 2.421-5.664 3.755-9.099 3.755zM3.136 18.667c-0.011 6.496 5.259 11.787 11.755 11.797 0.011 0 0.021 0 0.021 0 3.136 0 6.091-1.216 8.309-3.435 2.229-2.219 3.456-5.173 3.467-8.32s-1.216-6.101-3.435-8.331c-2.219-2.229-5.173-3.456-8.32-3.467-0.011 0-0.021 0-0.021 0-6.485 0-11.765 5.269-11.776 11.755v0z"></path>
<path fill="#444" d="M14.933 21.28c-1.035 0-2.005-0.629-2.411-1.611-0.469-1.152-0.064-2.485 0.981-3.168 0.021-0.021 0.053-0.032 0.075-0.043l4.363-1.941c0.277-0.117 0.587-0.064 0.8 0.139s0.288 0.523 0.181 0.8l-1.675 4.405c-0.011 0.043-0.032 0.085-0.064 0.117-0.384 0.672-1.045 1.141-1.824 1.28-0.139 0.011-0.288 0.021-0.427 0.021zM14.080 17.461c-0.565 0.395-0.789 1.141-0.523 1.781 0.256 0.629 0.949 1.013 1.611 0.896 0.448-0.075 0.832-0.352 1.045-0.736l1.333-3.488-3.467 1.547z"></path>
<path fill="#444" d="M14.325 9.397c0 0.32 0.267 0.576 0.608 0.576s0.608-0.256 0.608-0.576-0.267-0.576-0.608-0.576-0.608 0.267-0.608 0.576v0z"></path>
<path fill="#444" d="M17.579 4.661h-5.216c-0.811 0-1.461-0.661-1.461-1.461v-1.333c0-0.811 0.661-1.461 1.461-1.461h5.216c0.811 0 1.461 0.661 1.461 1.461v1.333c0.011 0.811-0.651 1.461-1.461 1.461zM12.363 1.515c-0.192 0-0.341 0.149-0.341 0.341v1.344c0 0.192 0.149 0.341 0.341 0.341h5.216c0.192 0 0.341-0.149 0.341-0.341v-1.333c0-0.192-0.149-0.341-0.341-0.341h-5.216z"></path>
<path fill="#444" d="M14.933 6.912c-0.309 0-0.555-0.256-0.555-0.555v-2.251c0-0.309 0.256-0.555 0.555-0.555s0.555 0.256 0.555 0.555v2.251c0.011 0.309-0.245 0.555-0.555 0.555z"></path>
<path fill="#444" d="M27.499 10.891c-0.395 0-0.8-0.16-1.088-0.48v0l-3.509-3.861c-0.267-0.288-0.395-0.661-0.373-1.056s0.192-0.747 0.48-1.013l0.992-0.896c0.597-0.544 1.525-0.501 2.069 0.096l3.509 3.861c0.267 0.288 0.395 0.661 0.373 1.056s-0.192 0.747-0.48 1.013l-0.992 0.896c-0.277 0.256-0.629 0.384-0.981 0.384zM27.253 9.664c0.128 0.139 0.341 0.149 0.48 0.021l0.992-0.896c0.139-0.128 0.149-0.341 0.021-0.48l-3.509-3.861c-0.128-0.139-0.341-0.149-0.48-0.021l-0.992 0.896c-0.064 0.064-0.107 0.149-0.107 0.235 0 0.096 0.032 0.181 0.085 0.245l3.509 3.861z"></path>
<path fill="#444" d="M7.819 12.107c0 0.32 0.267 0.576 0.608 0.576s0.608-0.256 0.608-0.576-0.267-0.576-0.608-0.576c-0.341 0-0.608 0.256-0.608 0.576v0z"></path>
<path fill="#444" d="M5.109 18.784c0 0.32 0.267 0.576 0.608 0.576s0.608-0.256 0.608-0.576c0-0.32-0.267-0.576-0.608-0.576-0.331 0.011-0.608 0.267-0.608 0.576v0z"></path>
<path fill="#444" d="M7.712 25.077c0 0.32 0.267 0.576 0.608 0.576s0.608-0.256 0.608-0.576-0.267-0.576-0.608-0.576c-0.341 0.011-0.608 0.267-0.608 0.576v0z"></path>
<path fill="#444" d="M14.325 27.712c0 0.32 0.267 0.576 0.608 0.576s0.608-0.256 0.608-0.576c0-0.32-0.267-0.576-0.608-0.576s-0.608 0.256-0.608 0.576v0z"></path>
<path fill="#444" d="M20.939 25.152c0 0.32 0.267 0.576 0.608 0.576s0.608-0.256 0.608-0.576-0.267-0.576-0.608-0.576-0.608 0.256-0.608 0.576v0z"></path>
<path fill="#444" d="M23.456 18.784c0 0.32 0.267 0.576 0.608 0.576s0.608-0.256 0.608-0.576c0-0.32-0.267-0.576-0.608-0.576-0.331 0.011-0.608 0.267-0.608 0.576v0z"></path>
<path fill="#444" d="M20.725 12.139c0 0.32 0.267 0.576 0.608 0.576s0.608-0.256 0.608-0.576-0.267-0.576-0.608-0.576c-0.341 0-0.608 0.256-0.608 0.576v0z"></path>
</svg>
