<?xml version="1.0" encoding="utf-8"?>
<!-- Generated by IcoMoon.io -->
<!DOCTYPE svg PUBLIC "-//W3C//DTD SVG 1.1//EN" "http://www.w3.org/Graphics/SVG/1.1/DTD/svg11.dtd">
<svg version="1.1" xmlns="http://www.w3.org/2000/svg" xmlns:xlink="http://www.w3.org/1999/xlink" width="32" height="32" viewBox="0 0 32 32">
<path d="M4.523 3.072h22.955c1.077 0 2.037 0.555 2.571 1.483s0.544 2.037 0.011 2.965l-11.413 19.915c-0.533 0.939-1.493 1.493-2.571 1.493 0 0 0 0-0.011 0-1.077 0-2.037-0.555-2.571-1.483l-11.541-19.915c-0.544-0.928-0.544-2.048 0-2.976 0.533-0.928 1.493-1.483 2.571-1.483zM17.184 26.603l11.413-19.915c0.235-0.405 0.235-0.885 0-1.291s-0.651-0.64-1.12-0.64h-22.955c-0.469 0-0.885 0.245-1.12 0.651s-0.235 0.885 0 1.291l11.541 19.915c0.235 0.405 0.64 0.629 1.12 0.64 0.469-0.011 0.885-0.245 1.12-0.651v0z"></path>
</svg>
