<?xml version="1.0" encoding="utf-8"?>
<!-- Generated by IcoMoon.io -->
<!DOCTYPE svg PUBLIC "-//W3C//DTD SVG 1.1//EN" "http://www.w3.org/Graphics/SVG/1.1/DTD/svg11.dtd">
<svg version="1.1" xmlns="http://www.w3.org/2000/svg" xmlns:xlink="http://www.w3.org/1999/xlink" width="32" height="32" viewBox="0 0 32 32">
<path d="M6.965 14.955c-2.496 0-4.533-2.037-4.533-4.533s2.037-4.533 4.533-4.533 4.533 2.037 4.533 4.533-2.037 4.533-4.533 4.533zM6.965 7.008c-1.877 0-3.413 1.536-3.413 3.413s1.536 3.413 3.413 3.413 3.413-1.536 3.413-3.413-1.536-3.413-3.413-3.413z"></path>
<path d="M16.64 14.933c-3.339 0-6.059-2.72-6.059-6.059s2.72-6.059 6.059-6.059c3.339 0 6.059 2.72 6.059 6.059s-2.72 6.059-6.059 6.059zM16.64 3.925c-2.72 0-4.939 2.219-4.939 4.939s2.219 4.939 4.939 4.939 4.939-2.219 4.939-4.939-2.208-4.939-4.939-4.939z"></path>
<path d="M19.797 29.003h-17.493c-1.013 0-1.835-0.821-1.835-1.835v-11.040c0-1.013 0.821-1.835 1.835-1.835h17.493c1.013 0 1.835 0.821 1.835 1.835v11.040c0 1.013-0.821 1.835-1.835 1.835zM2.304 15.403c-0.395 0-0.715 0.32-0.715 0.715v11.040c0 0.395 0.32 0.715 0.715 0.715h17.493c0.395 0 0.715-0.32 0.715-0.715v-11.029c0-0.395-0.32-0.715-0.715-0.715h-17.493z"></path>
<path d="M29.195 29.024h-0.128c-0.629 0-1.173-0.192-1.621-0.565-0.011-0.011-0.021-0.021-0.032-0.032l-5.941-5.888c-0.235-0.235-0.363-0.544-0.363-0.864v-0.053c0-0.501 0.288-0.8 0.565-1.088l0.032-0.043c0 0 0-0.011 0.011-0.011l5.333-5.269c0.619-0.629 1.312-0.96 2.005-0.96h0.128c1.408 0 2.56 1.12 2.56 2.507v9.749c0.011 1.397-1.141 2.517-2.549 2.517zM28.181 27.616c0.245 0.192 0.533 0.288 0.885 0.288h0.128c0.8 0 1.44-0.619 1.44-1.387v-9.749c0-0.768-0.651-1.387-1.44-1.387h-0.128c-0.395 0-0.811 0.213-1.216 0.629 0 0 0 0.011-0.011 0.011l-5.365 5.301c-0.171 0.181-0.256 0.267-0.256 0.309v0.053c0 0.011 0 0.032 0.032 0.064l5.931 5.867z"></path>
</svg>
