<?xml version="1.0" encoding="utf-8"?>
<!-- Generated by IcoMoon.io -->
<!DOCTYPE svg PUBLIC "-//W3C//DTD SVG 1.1//EN" "http://www.w3.org/Graphics/SVG/1.1/DTD/svg11.dtd">
<svg version="1.1" xmlns="http://www.w3.org/2000/svg" xmlns:xlink="http://www.w3.org/1999/xlink" width="32" height="32" viewBox="0 0 32 32">
<path fill="#444" d="M22.581 19.989c-0.032 0-0.064 0-0.085-0.011-0.309-0.053-0.512-0.341-0.459-0.64l2.549-15.787c0.064-0.395-0.213-0.725-0.373-0.885-0.331-0.32-0.811-0.555-1.333-0.629l-0.235-0.032c-0.523-0.075-1.056 0-1.461 0.203-0.203 0.107-0.565 0.341-0.619 0.736l-2.368 14.667c-0.043 0.277-0.277 0.469-0.555 0.469s-0.512-0.213-0.544-0.48l-2.165-15.392c-0.053-0.363-0.405-0.587-0.608-0.693-0.405-0.203-0.939-0.277-1.472-0.203l-0.235 0.032c-1.013 0.149-1.824 0.832-1.728 1.461l1.931 13.877c0.043 0.309-0.171 0.587-0.48 0.629s-0.587-0.171-0.629-0.48l-1.92-13.856c-0.192-1.259 1.013-2.485 2.667-2.731l0.235-0.032c0.757-0.117 1.515 0 2.133 0.309 0.672 0.341 1.12 0.896 1.216 1.536l1.621 11.691 1.771-10.976c0.096-0.64 0.544-1.216 1.216-1.557 0.619-0.32 1.387-0.437 2.144-0.32l0.235 0.032c0.757 0.117 1.451 0.448 1.952 0.939 0.544 0.533 0.8 1.205 0.693 1.856l-2.549 15.797c-0.043 0.267-0.277 0.469-0.544 0.469z"></path>
<path fill="#444" d="M12.213 31.797c-0.768 0-1.515-0.288-2.048-0.864l-5.024-5.355c-0.544-0.587-0.789-1.376-0.704-2.219 0.085-0.811 0.491-1.568 1.12-2.155l0.128-0.117c0.779-0.725 1.792-1.045 2.709-0.928-0.128-0.992 0.256-2.059 1.109-2.848l0.128-0.117c1.323-1.227 3.296-1.269 4.384-0.085l1.803 1.92c0.352-0.149 0.704-0.213 1.067-0.213l7.733 0.032c0 0 0 0 0 0 0.747 0.011 1.461 0.32 2.016 0.885 0.64 0.651 1.003 1.589 0.992 2.571v0.181c-0.021 1.877-1.387 3.381-3.051 3.381-0.011 0-0.021 0-0.032 0l-5.173-0.021c-0.192 0.373-0.437 0.704-0.747 0.981l-0.128 0.117c-0.789 0.725-1.792 1.045-2.72 0.917 0.117 0.992-0.267 2.080-1.099 2.859l-0.128 0.117c-0.672 0.651-1.525 0.96-2.336 0.96zM8.011 21.269c-0.533 0-1.109 0.224-1.568 0.651l-0.128 0.117c-0.437 0.405-0.704 0.917-0.768 1.461-0.053 0.512 0.085 0.981 0.405 1.323l5.024 5.355c0.672 0.725 1.931 0.661 2.805-0.139l0.128-0.117c0.821-0.757 1.013-1.931 0.437-2.677-0.171-0.224-0.149-0.533 0.043-0.736 0.203-0.203 0.512-0.224 0.736-0.053 0.715 0.544 1.835 0.405 2.603-0.309l0.128-0.117c0.277-0.256 0.48-0.565 0.619-0.928 0.085-0.213 0.288-0.363 0.523-0.363 0 0 0 0 0 0l5.547 0.021c0.011 0 0.011 0 0.021 0 1.056 0 1.92-1.013 1.941-2.283v-0.181c0.011-0.683-0.235-1.323-0.672-1.771-0.341-0.352-0.779-0.544-1.216-0.544l-7.733-0.032c-0.299 0-0.597 0.085-0.896 0.267-0.224 0.139-0.523 0.096-0.704-0.096l-2.101-2.229c-0.672-0.725-1.931-0.661-2.805 0.139l-0.128 0.117c-0.832 0.768-1.024 1.92-0.437 2.677 0.171 0.224 0.149 0.533-0.043 0.736-0.203 0.203-0.512 0.224-0.736 0.053-0.277-0.235-0.64-0.341-1.024-0.341z"></path>
<path fill="#444" d="M14.805 27.456c-0.149 0-0.299-0.064-0.405-0.171l-5.408-5.739c-0.213-0.224-0.203-0.576 0.021-0.789s0.576-0.203 0.789 0.021l5.408 5.739c0.213 0.224 0.203 0.576-0.021 0.789-0.107 0.096-0.245 0.149-0.384 0.149z"></path>
<path fill="#444" d="M24.576 25.877c-0.011 0-0.021 0-0.032 0l-7.723-0.043c-0.757-0.011-1.472-0.32-2.016-0.885-0.64-0.651-0.992-1.589-0.981-2.571v-0.181c0.021-1.867 1.387-3.381 3.051-3.381 0.011 0 0.021 0 0.032 0l7.723 0.043c0.747 0.011 1.461 0.32 2.016 0.885 0.64 0.651 1.003 1.589 0.981 2.56v0.181c-0.032 1.888-1.397 3.392-3.051 3.392zM16.875 19.936c-1.056 0-1.92 1.013-1.931 2.272v0.181c-0.011 0.683 0.235 1.333 0.661 1.771 0.341 0.352 0.768 0.544 1.227 0.544l7.723 0.043c0.011 0 0.011 0 0.021 0 1.056 0 1.92-1.013 1.931-2.272v-0.181c0 0 0 0 0 0 0.011-0.683-0.235-1.323-0.672-1.771-0.341-0.352-0.768-0.544-1.216-0.555l-7.723-0.043c0 0.011-0.011 0.011-0.021 0.011z"></path>
</svg>
